<?xml version="1.0" standalone="no"?>
<!DOCTYPE svg PUBLIC "-//W3C//DTD SVG 1.1//EN" "http://www.w3.org/Graphics/SVG/1.1/DTD/svg11.dtd" >
<svg xmlns="http://www.w3.org/2000/svg" xmlns:xlink="http://www.w3.org/1999/xlink" version="1.1">
<metadata>
Created by FontForge 20170910 at Tue Mar 16 18:10:13 2004
 By Jimmy Wärting
2004 T.26 Digital Type Foundry www.t26.com PSID#5134585 designer: Neil Summerour / Positype
</metadata>
<defs>
<font id="AauxProBlack" horiz-adv-x="491" >
  <font-face 
    font-family="Aaux ProBlack"
    font-weight="400"
    font-stretch="normal"
    units-per-em="1000"
    panose-1="0 0 4 0 0 0 0 0 0 0"
    ascent="800"
    descent="-200"
    x-height="494"
    cap-height="698"
    bbox="-121 -223 1003 991"
    underline-thickness="20"
    underline-position="-145"
    unicode-range="U+0020-F002"
  />
<missing-glyph horiz-adv-x="500" 
d="M63 0v775h375v-775h-375zM125 63h250v650h-250v-650z" />
    <glyph glyph-name=".notdef" horiz-adv-x="500" 
d="M63 0v775h375v-775h-375zM125 63h250v650h-250v-650z" />
    <glyph glyph-name=".null" horiz-adv-x="0" 
 />
    <glyph glyph-name="nonmarkingreturn" horiz-adv-x="300" 
 />
    <glyph glyph-name="space" unicode=" " horiz-adv-x="300" 
 />
    <glyph glyph-name="exclam" unicode="!" horiz-adv-x="329" 
d="M232 698v-287l-6 -202h-122l-6 202v287h134zM249 74q0 -35 -24.5 -59.5t-59.5 -24.5t-60 24.5t-25 59.5t25 60t60 25t59.5 -25t24.5 -60z" />
    <glyph glyph-name="quotedbl" unicode="&#x22;" horiz-adv-x="423" 
d="M363 684v-160h-119v160q0 24 17.5 41.5t41.5 17.5q25 0 42.5 -17.5t17.5 -41.5zM179 524h-119v160q0 24 17.5 41.5t41.5 17.5q25 0 42.5 -17.5t17.5 -41.5v-160z" />
    <glyph glyph-name="numbersign" unicode="#" horiz-adv-x="725" 
d="M675 506l-25 -112h-116l-20 -90h117l-25 -112h-116l-42 -192h-116l42 192h-92l-41 -192h-117l42 192h-116l25 112h116l19 90h-116l25 112h116l42 192h116l-42 -192h91l42 192h116l-42 -192h117zM418 394h-91l-20 -90h91z" />
    <glyph glyph-name="dollar" unicode="$" horiz-adv-x="563" 
d="M513 230q0 -73 -51 -124q-46 -48 -120 -62v-44h-107v44q-142 23 -185 167l113 31q18 -60 72 -78v147q-80 21 -120 53q-53 43 -53 115q0 69 54 114q46 39 119 50v55h107v-53q87 -15 147 -97l-87 -72q-25 34 -60 51v-121q171 -50 171 -176zM235 525q-51 -14 -51 -46
q0 -28 51 -46v92zM390 227q0 34 -48 53v-116q48 16 48 63z" />
    <glyph glyph-name="percent" unicode="%" horiz-adv-x="837" 
d="M787 190q0 -83 -36 -137q-42 -63 -123 -63t-123 63q-35 54 -35 137q0 84 35 138q42 63 123 63t123 -63q36 -54 36 -138zM644 698l-319 -698h-133l320 698h132zM367 507q0 -84 -35 -137q-42 -63 -123 -63t-123 63q-36 53 -36 137t36 137q42 63 123 63t123 -63
q35 -53 35 -137zM679 190q0 94 -51 94t-51 -94q0 -93 51 -93t51 93zM259 507q0 94 -50 94q-51 0 -51 -94t51 -94q50 0 50 94z" />
    <glyph glyph-name="ampersand" unicode="&#x26;" horiz-adv-x="711" 
d="M628 342q-2 -132 -67 -203q41 -43 66 -66l-91 -91q-36 39 -60 62q-73 -54 -194 -54q-96 0 -158 54q-64 58 -64 152q0 64 29 113q25 42 80 85q-33 43 -43 64q-17 33 -17 75q0 78 51 125.5t130 47.5q78 0 130.5 -48.5t52.5 -125.5q0 -94 -126 -171q23 -27 118 -129
q33 42 32 110h131zM339 533q0 20 -15 36t-35 16q-21 0 -36 -15t-15 -36q0 -32 37 -77q64 40 64 76zM386 140q-76 72 -137 151q-50 -40 -50 -89q0 -42 30 -64.5t73 -22.5q45 0 84 25z" />
    <glyph glyph-name="quotesingle" unicode="'" horiz-adv-x="239" 
d="M179 684v-160h-119v160q0 24 17.5 41.5t41.5 17.5q25 0 42.5 -17.5t17.5 -41.5z" />
    <glyph glyph-name="parenleft" unicode="(" horiz-adv-x="400" 
d="M350 698q-177 -149 -177 -349q0 -192 176 -349h-146q-76 66 -116 162q-37 89 -37 187q0 206 153 349h147z" />
    <glyph glyph-name="parenright" unicode=")" horiz-adv-x="400" 
d="M350 349q0 -98 -37 -187q-40 -96 -116 -162h-146q177 157 177 349q0 200 -178 349h147q153 -143 153 -349z" />
    <glyph glyph-name="asterisk" unicode="*" horiz-adv-x="489" 
d="M439 541l-118 -34l75 -98l-82 -59l-69 101l-70 -101l-82 59l75 98l-118 34l31 97l116 -42l-3 123h101l-3 -123l116 42z" />
    <glyph glyph-name="plus" unicode="+" horiz-adv-x="542" 
d="M492 213h-160v-160h-122v160h-160v122h160v160h122v-160h160v-122z" />
    <glyph glyph-name="comma" unicode="," horiz-adv-x="296" 
d="M243 1l-106 -167h-67v242q0 36 25.5 61t60.5 25q36 0 61.5 -25t25.5 -61v-75z" />
    <glyph glyph-name="hyphen" unicode="-" horiz-adv-x="417" 
d="M357 216h-297v105h297v-105z" />
    <glyph glyph-name="hyphen" unicode="&#x2010;" horiz-adv-x="417" 
d="M357 216h-297v105h297v-105z" />
    <glyph glyph-name="period" unicode="." horiz-adv-x="313" 
d="M243 76q0 -36 -25.5 -61t-61.5 -25q-35 0 -60.5 25t-25.5 61t25.5 61t60.5 25q36 0 61.5 -25t25.5 -61z" />
    <glyph glyph-name="slash" unicode="/" horiz-adv-x="452" 
d="M452 775l-327 -852h-125l327 852h125z" />
    <glyph glyph-name="zero" unicode="0" horiz-adv-x="616" 
d="M566 351q0 -142 -56 -240q-69 -119 -201 -119q-133 0 -202 118q-57 97 -57 239t57 240q69 119 202 119q132 0 201 -118q56 -97 56 -239zM422 349q0 82 -19 138q-29 83 -94 83q-67 0 -96 -82q-20 -56 -20 -139q0 -82 20 -138q29 -82 96 -82q113 0 113 220z" />
    <glyph glyph-name="one" unicode="1" horiz-adv-x="409" 
d="M309 0h-137v519l-88 -49l-64 108l187 120h102v-698z" />
    <glyph glyph-name="two" unicode="2" horiz-adv-x="554" 
d="M504 0h-442v89q0 104 76 192q33 39 140 123q75 60 75 95q0 33 -25 52t-58 19q-61 0 -100 -83l-120 71q76 149 219 149q98 0 161 -54q65 -57 65 -154q0 -80 -63 -145q-1 -1 -123 -102q-72 -60 -86 -117h281v-135z" />
    <glyph glyph-name="three" unicode="3" horiz-adv-x="551" 
d="M501 215q0 -98 -65 -160.5t-164 -62.5q-177 0 -232 163l128 54q10 -36 36.5 -58.5t63.5 -22.5q39 0 66 24t27 63q0 55 -42 76q-30 16 -92 15v111q117 -1 117 80q0 31 -25.5 51t-57.5 20q-64 0 -89 -72l-125 56q60 153 219 153q91 0 154.5 -59t63.5 -149q0 -78 -61 -131
q34 -23 56 -65.5t22 -85.5z" />
    <glyph glyph-name="four" unicode="4" horiz-adv-x="558" 
d="M518 149h-51v-149h-132v149h-305v116l264 433h150l-251 -418h142v177l132 -16v-161h51v-131z" />
    <glyph glyph-name="five" unicode="5" horiz-adv-x="550" 
d="M510 248q0 -114 -60 -181q-64 -70 -178 -70q-169 0 -227 183l131 42q28 -89 96 -89q48 0 75 35q24 32 24 80q0 46 -25 75q-27 33 -74 33q-51 0 -89 -43h-119v385h398v-135h-269v-101q35 23 86 23q108 0 171 -67q60 -65 60 -170z" />
    <glyph glyph-name="six" unicode="6" horiz-adv-x="551" 
d="M511 230q0 -107 -61 -172.5t-168 -65.5t-172 80q-60 75 -60 184q0 280 208 442h170q-85 -70 -126 -115q-62 -69 -88 -144q31 23 81 23q98 0 157 -66.5t59 -165.5zM370 233q0 42 -25.5 70t-66.5 28q-39 0 -62.5 -29.5t-23.5 -70.5q0 -39 25 -67t63 -28q39 0 64.5 29
t25.5 68z" />
    <glyph glyph-name="seven" unicode="7" horiz-adv-x="506" 
d="M476 580q-103 -136 -146 -273q-41 -130 -41 -307h-147q0 154 44 298q47 153 136 268h-173v-57h-119v189h446v-118z" />
    <glyph glyph-name="eight" unicode="8" horiz-adv-x="555" 
d="M515 219q0 -103 -67.5 -166t-171.5 -63q-103 0 -169.5 62.5t-66.5 165.5q0 102 95 168q-29 18 -48.5 55.5t-19.5 72.5q0 84 62 139t147 55q86 0 148 -55t62 -139q0 -36 -19 -73t-49 -55q97 -68 97 -167zM349 509q0 30 -21.5 50t-51.5 20t-51.5 -20t-21.5 -50
q0 -29 21.5 -50.5t51.5 -21.5t51.5 21.5t21.5 50.5zM372 224q0 40 -28 68.5t-68 28.5q-39 0 -66.5 -29t-27.5 -69q0 -38 28.5 -65.5t66.5 -27.5q41 0 68 27t27 67z" />
    <glyph glyph-name="nine" unicode="9" horiz-adv-x="549" 
d="M504 442q0 -289 -196 -442h-182q86 70 125 114q63 68 89 142q-28 -20 -79 -20q-98 0 -159.5 64.5t-61.5 162.5q0 107 62.5 175.5t168.5 68.5q107 0 172 -81q61 -75 61 -184zM355 474q0 39 -25 67t-64 28q-38 0 -63.5 -29t-25.5 -68q0 -41 25.5 -69.5t65.5 -28.5t65 31
q22 28 22 69z" />
    <glyph glyph-name="colon" unicode=":" horiz-adv-x="313" 
d="M243 366q0 -36 -25.5 -61t-61.5 -25q-35 0 -60.5 25t-25.5 61t25.5 61t60.5 25q36 0 61.5 -25t25.5 -61zM243 76q0 -36 -25.5 -61t-61.5 -25q-35 0 -60.5 25t-25.5 61t25.5 61t60.5 25q36 0 61.5 -25t25.5 -61z" />
    <glyph glyph-name="semicolon" unicode=";" horiz-adv-x="313" 
d="M243 366q0 -36 -25.5 -61t-61.5 -25q-35 0 -60.5 25t-25.5 61t25.5 61t60.5 25q36 0 61.5 -25t25.5 -61zM243 0l-106 -167h-67v242q0 35 25.5 60.5t60.5 25.5q36 0 61.5 -25.5t25.5 -60.5v-75z" />
    <glyph glyph-name="less" unicode="&#x3c;" horiz-adv-x="550" 
d="M500 0h-171l-279 349l279 349h171l-278 -349z" />
    <glyph glyph-name="equal" unicode="=" horiz-adv-x="552" 
d="M492 308h-432v118h432v-118zM492 114h-432v119h432v-119z" />
    <glyph glyph-name="greater" unicode="&#x3e;" horiz-adv-x="550" 
d="M500 349l-278 -349h-172l279 349l-279 349h172z" />
    <glyph glyph-name="question" unicode="?" horiz-adv-x="547" 
d="M487 511q0 -92 -94 -147q-33 -19 -46 -33.5t-15 -38.5l-7 -97h-103q-9 75 -9 99q0 66 31 105q17 21 64 49q32 19 37 24q17 16 17 39q0 34 -23.5 54t-63.5 20q-92 0 -92 -91h-123q0 108 68 164q58 48 147 48q93 0 151 -49q61 -53 61 -146zM355 71q0 -34 -24 -57.5
t-58 -23.5q-33 0 -57 23.5t-24 57.5t24 57.5t57 23.5q34 0 58 -23.5t24 -57.5z" />
    <glyph glyph-name="at" unicode="@" horiz-adv-x="758" 
d="M688 410q0 -26 -9 -69q-10 -47 -11 -67l-17 -278l-111 6l3 42q-66 -57 -138 -57q-80 0 -127 62q-42 56 -42 138q0 111 71 209q78 107 186 107q40 0 75 -18q-30 110 -121 110q-116 0 -202 -121q-79 -110 -79 -231q0 -100 56 -163l-57 -83q-105 94 -105 250q0 162 109 303
q117 151 274 151q116 0 184 -90q61 -81 61 -201zM551 303q0 35 -12 61q-15 34 -46 34q-59 0 -105 -78q-41 -68 -41 -132q0 -34 11 -60q15 -35 45 -35q60 0 107 78q41 68 41 132z" />
    <glyph glyph-name="A" unicode="A" horiz-adv-x="662" 
d="M662 0h-155l-63 175h-227l-63 -175h-154l268 698h124zM398 300l-68 187l-67 -187h135z" />
    <glyph glyph-name="B" unicode="B" horiz-adv-x="631" 
d="M591 213q0 -123 -92 -178q-58 -35 -157 -35h-272v698h256q108 0 171 -48q70 -53 70 -158q0 -76 -50 -125q74 -49 74 -154zM427 491q0 43 -30 59q-21 12 -69 12h-115v-146h115q47 0 69 13q30 17 30 62zM448 212q0 48 -32 66q-24 12 -74 12h-129v-155h129q51 0 74 13
q32 17 32 64z" />
    <glyph glyph-name="C" unicode="C" horiz-adv-x="616" 
d="M594 121q-62 -73 -108 -99q-55 -31 -142 -31q-147 0 -230 108q-74 98 -74 250t74 250q81 108 229 108q81 0 137 -28.5t109 -92.5l-101 -99q-70 79 -145 79q-82 0 -123 -71q-34 -58 -34 -146t34 -146q41 -71 123 -71q80 0 150 87z" />
    <glyph glyph-name="D" unicode="D" horiz-adv-x="650" 
d="M600 349q0 -202 -65 -273q-69 -76 -268 -76h-197v698h197q199 0 268 -75q65 -72 65 -274zM457 301v96q0 98 -30 129t-128 31h-86v-416h86q97 0 127.5 31t30.5 129z" />
    <glyph glyph-name="E" unicode="E" horiz-adv-x="599" 
d="M549 0h-479v698h479v-141h-336v-131h293v-135h-293v-150h336v-141z" />
    <glyph glyph-name="F" unicode="F" horiz-adv-x="580" 
d="M540 557h-328v-131h292v-135h-292v-291h-142v698h470v-141z" />
    <glyph glyph-name="G" unicode="G" horiz-adv-x="634" 
d="M584 0h-120v51q-27 -34 -56 -46.5t-81 -12.5q-145 0 -221 110q-66 95 -66 247q0 153 67 248q77 109 224 109q81 0 139 -34q50 -29 103 -99l-100 -91q-32 42 -60 61q-35 22 -82 22q-148 0 -148 -216t149 -216q56 0 85 41q26 37 26 95h-124v122h265v-391z" />
    <glyph glyph-name="H" unicode="H" horiz-adv-x="675" 
d="M605 0h-143v291h-249v-291h-143v698h143v-272h249v272h143v-698z" />
    <glyph glyph-name="I" unicode="I" horiz-adv-x="283" 
d="M213 0h-143v698h143v-698z" />
    <glyph glyph-name="J" unicode="J" horiz-adv-x="568" 
d="M498 225q0 -113 -62 -172.5t-176 -59.5q-193 0 -240 200l137 37q25 -98 102 -98q97 0 97 97v469h142v-473z" />
    <glyph glyph-name="K" unicode="K" horiz-adv-x="621" 
d="M621 0h-185l-223 280v-280h-143v698h143v-280l198 280h174l-259 -345z" />
    <glyph glyph-name="L" unicode="L" horiz-adv-x="551" 
d="M508 0h-438v698h142v-560h296v-138z" />
    <glyph glyph-name="M" unicode="M" horiz-adv-x="764" 
d="M704 0h-144v328l-134 -328h-89l-133 328v-328h-144v698h136l185 -466l189 466h134v-698z" />
    <glyph glyph-name="N" unicode="N" horiz-adv-x="653" 
d="M583 0h-115l-255 398v-398h-143v698h116l254 -398v398h143v-698z" />
    <glyph glyph-name="O" unicode="O" horiz-adv-x="664" 
d="M624 349q0 -154 -67 -248q-77 -109 -225 -109t-225 109q-67 94 -67 248t67 248q77 109 225 109t225 -109q67 -94 67 -248zM480 349q0 216 -148 216t-148 -216t148 -216t148 216z" />
    <glyph glyph-name="P" unicode="P" horiz-adv-x="621" 
d="M581 485q0 -213 -233 -213h-135v-272h-143v698h273q109 0 171 -51q67 -55 67 -162zM438 485q0 77 -100 77h-125v-155h125q48 0 71 14q29 18 29 64z" />
    <glyph glyph-name="Q" unicode="Q" horiz-adv-x="672" 
d="M677 0h-179l-24 29q-63 -37 -142 -37q-153 0 -235 123q-57 85 -57 234q0 150 57 234q82 123 235 123q154 0 236 -123q56 -85 56 -234q0 -144 -52 -226zM481 349q0 215 -148 215q-149 0 -149 -213q0 -84 30 -139q38 -69 115 -69q14 0 33 6q-19 15 -46 18v110
q85 -8 148 -48q17 41 17 120z" />
    <glyph glyph-name="R" unicode="R" horiz-adv-x="629" 
d="M627 0h-166l-140 234q-17 29 -30 38t-43 9h-35v-281h-143v698h256q108 0 172 -51q70 -56 70 -161q0 -65 -35 -115.5t-96 -73.5zM425 485q0 75 -98 75h-116v-153h116q98 0 98 78z" />
    <glyph glyph-name="S" unicode="S" horiz-adv-x="617" 
d="M582 214q0 -103 -81 -166q-75 -58 -181 -58q-227 0 -282 212l135 27q29 -103 147 -103q45 0 79 21q40 25 40 67q0 49 -98 75q-155 42 -183 57q-98 51 -98 159q0 96 75 151q68 50 166 50q96 0 158 -38t103 -122l-123 -57q-25 45 -56 64.5t-82 19.5q-35 0 -63 -15
q-35 -19 -35 -53q0 -40 98 -66q143 -37 183 -60q98 -55 98 -165z" />
    <glyph glyph-name="T" unicode="T" horiz-adv-x="595" 
d="M565 557h-196v-557h-143v557h-196v141h535v-141z" />
    <glyph glyph-name="U" unicode="U" horiz-adv-x="655" 
d="M595 288q0 -296 -267 -296q-268 0 -268 296v410h143v-402q0 -79 22 -116q29 -49 102 -49q76 0 104 48q21 35 21 117v402h143v-410z" />
    <glyph glyph-name="V" unicode="V" horiz-adv-x="625" 
d="M615 698l-235 -698h-135l-235 698h151l152 -480l152 480h150z" />
    <glyph glyph-name="W" unicode="W" horiz-adv-x="876" 
d="M866 698l-163 -698h-157l-108 421l-108 -421h-157l-163 698h146l101 -463l124 463h114l124 -463l101 463h146z" />
    <glyph glyph-name="X" unicode="X" horiz-adv-x="660" 
d="M650 0h-171l-149 238l-150 -238h-170l238 359l-226 339h171l137 -219l137 219h170l-225 -339z" />
    <glyph glyph-name="Y" unicode="Y" horiz-adv-x="626" 
d="M616 698l-231 -468v-230h-143v232l-232 466h160l144 -306l143 306h159z" />
    <glyph glyph-name="Z" unicode="Z" horiz-adv-x="603" 
d="M553 0h-513v104l308 454h-285v140h481v-107l-305 -450h314v-141z" />
    <glyph glyph-name="bracketleft" unicode="[" horiz-adv-x="338" 
d="M288 -77h-208v852h208v-88h-90v-676h90v-88z" />
    <glyph glyph-name="backslash" unicode="\" horiz-adv-x="452" 
d="M452 -77h-125l-327 852h125z" />
    <glyph glyph-name="bracketright" unicode="]" horiz-adv-x="338" 
d="M258 -77h-208v88h90v676h-90v88h208v-852z" />
    <glyph glyph-name="asciicircum" unicode="^" horiz-adv-x="566" 
d="M526 412l-104 -54l-139 209l-139 -209l-104 54l196 294h94z" />
    <glyph glyph-name="underscore" unicode="_" horiz-adv-x="519" 
d="M499 -111h-479v111h479v-111z" />
    <glyph glyph-name="grave" unicode="`" horiz-adv-x="342" 
d="M282 537h-92l-130 163h137z" />
    <glyph glyph-name="a" unicode="a" 
d="M456 22l-119 -34l-8 25q-49 -26 -111 -26q-77 0 -128 42q-55 45 -55 120q0 148 180 157q31 1 76 1q16 0 16 12v14q0 46 -56 46q-62 0 -84 -47l-115 40q40 128 199 128q71 0 125 -42q58 -45 58 -114v-251zM307 141v72q-46 -3 -91 -7q-59 -7 -59 -48q0 -23 22 -36
q19 -12 42 -12q46 0 86 31z" />
    <glyph glyph-name="b" unicode="b" horiz-adv-x="513" 
d="M478 248q0 -114 -46 -181q-54 -77 -164 -77q-53 0 -87 29l-5 -19h-111v698h136v-214q34 19 79 19q102 0 154 -77q44 -67 44 -178zM342 247q0 56 -10 82q-17 43 -64 43q-67 0 -67 -64v-122q0 -63 67 -63q47 0 64 42q10 26 10 82z" />
    <glyph glyph-name="c" unicode="c" 
d="M466 91q-51 -52 -87 -73q-48 -27 -109 -27q-109 0 -174 74q-61 71 -61 181q0 111 61 181q65 75 174 75q61 0 109 -28q36 -20 87 -73l-98 -90q-55 61 -98 61q-97 0 -97 -126t97 -126q43 0 98 61z" />
    <glyph glyph-name="d" unicode="d" horiz-adv-x="517" 
d="M472 20l-119 -35l-10 29q-43 -24 -98 -24q-109 0 -163 77q-47 67 -47 181q0 113 47 180q54 76 163 76q36 0 68 -20v214h136v-604zM313 309q0 29 -19 46t-48 17q-48 0 -65 -42q-10 -25 -10 -83q0 -57 10 -82q17 -42 65 -42q29 0 48 17.5t19 45.5v123z" />
    <glyph glyph-name="e" unicode="e" horiz-adv-x="496" 
d="M461 223v-9h-286q9 -95 96 -95q45 0 93 53l92 -91q-46 -46 -83 -66q-46 -24 -103 -24q-109 0 -174 74q-61 71 -61 181q0 111 59 181q62 75 171 75q56 0 106 -36t72 -89q18 -42 18 -154zM335 299q-10 77 -76 77q-69 0 -83 -77h159z" />
    <glyph glyph-name="f" unicode="f" horiz-adv-x="330" 
d="M300 588q-42 0 -58 -10q-21 -15 -21 -57v-27h69v-114h-69v-380h-131v380h-40v114h40v63q0 95 63 124q37 17 147 17v-110z" />
    <glyph glyph-name="g" unicode="g" horiz-adv-x="503" 
d="M468 -2q0 -89 -73 -145q-67 -51 -158 -51q-85 0 -142 34q-68 41 -68 120q0 17 9 50l119 -36q-1 -9 -1 -11q0 -18 33 -28q24 -6 51 -6q34 0 65 16q38 20 38 51q0 23 -27 23q-20 0 -58.5 -7t-57.5 -7q-56 0 -95 23q-47 27 -47 79q0 44 33 87q-42 49 -42 127
q0 88 51.5 136.5t140.5 48.5q67 0 111 -26q5 14 4 38h112q0 -92 -45 -124q10 -27 10 -73q0 -85 -54.5 -132.5t-141.5 -47.5q-29 0 -52 10q-18 -15 -18 -33l2 -8q7 -5 18 -5q26 0 76.5 11.5t76.5 11.5q57 0 93.5 -35t36.5 -91zM302 317q0 59 -63 59t-63 -59q0 -60 63 -60
t63 60z" />
    <glyph glyph-name="h" unicode="h" horiz-adv-x="523" 
d="M478 0h-136v274q0 95 -74 95q-25 0 -46 -19t-21 -46v-304h-136v698h136v-221q30 27 86 27q95 0 145 -66q46 -61 46 -164v-274z" />
    <glyph glyph-name="i" unicode="i" horiz-adv-x="264" 
d="M209 649q0 -32 -22.5 -54.5t-54.5 -22.5t-54.5 22.5t-22.5 54.5t22.5 54.5t54.5 22.5t54.5 -22.5t22.5 -54.5zM198 0h-133v494h133v-494z" />
    <glyph glyph-name="j" unicode="j" horiz-adv-x="275" 
d="M220 649q0 -32 -23 -54.5t-55 -22.5t-54.5 22.5t-22.5 54.5t22.5 54.5t54.5 22.5t55 -22.5t23 -54.5zM207 -31q0 -76 -42 -123t-118 -57l-43 115q72 16 72 78v512h131v-525z" />
    <glyph glyph-name="k" unicode="k" horiz-adv-x="483" 
d="M488 0h-154l-143 208v-208h-131v698h131v-371l119 167h149l-165 -222z" />
    <glyph glyph-name="l" unicode="l" horiz-adv-x="258" 
d="M223 0q-83 0 -120 29q-43 33 -43 113v556h129v-554q0 -30 33 -30z" />
    <glyph glyph-name="m" unicode="m" horiz-adv-x="793" 
d="M738 0h-137v278q0 44 -12 64q-15 28 -57 28t-55 -39q-8 -22 -8 -75v-256h-137v278q0 44 -11 64q-16 28 -57 28q-28 0 -45 -18.5t-17 -46.5v-305h-137v494h112l5 -20q39 31 84 31q46 0 75.5 -10.5t66.5 -39.5q57 50 127 50q101 0 154 -64q49 -59 49 -163v-278z" />
    <glyph glyph-name="n" unicode="n" horiz-adv-x="533" 
d="M478 0h-136v275q0 95 -74 95q-29 0 -48 -20.5t-19 -50.5v-299h-136v494h111l5 -20q38 31 93 31q204 0 204 -227v-278z" />
    <glyph glyph-name="o" unicode="o" horiz-adv-x="518" 
d="M483 246q0 -117 -52 -183q-58 -73 -172 -73t-172 73q-52 66 -52 183t52 184q58 73 172 73t172 -73q52 -67 52 -184zM345 246q0 125 -86 125t-86 -125q0 -124 86 -124t86 124z" />
    <glyph glyph-name="p" unicode="p" horiz-adv-x="513" 
d="M478 243q0 -113 -47 -179q-54 -75 -163 -75q-37 0 -67 19v-228h-136v714h111l5 -20q39 31 88 31q109 0 163 -80q46 -68 46 -182zM342 243q0 55 -11 81q-16 42 -63 42q-67 0 -67 -63v-119q0 -63 67 -63q47 0 63 41q11 26 11 81z" />
    <glyph glyph-name="q" unicode="q" horiz-adv-x="511" 
d="M471 465l-22 -70v-615h-136v228q-35 -20 -68 -20q-108 0 -163 77q-47 66 -47 180q0 112 48 181q55 79 162 79q42 0 97 -31l8 28zM313 183v120q0 29 -19 46.5t-48 17.5q-48 0 -65 -42q-10 -25 -10 -82t10 -82q17 -42 65 -42q29 0 48 17.5t19 46.5z" />
    <glyph glyph-name="r" unicode="r" horiz-adv-x="404" 
d="M379 469l-50 -105q-32 14 -58 14q-71 0 -71 -69v-309h-135v494h110l5 -21q43 34 91 34q56 0 108 -38z" />
    <glyph glyph-name="s" unicode="s" horiz-adv-x="469" 
d="M439 151q0 -75 -63 -121q-56 -40 -134 -40q-174 0 -205 136l118 32q19 -47 85 -47q64 0 64 34q0 27 -68 47q-98 29 -127 45q-68 40 -68 115q0 74 55 115q50 37 127 37q70 0 112 -21.5t79 -77.5l-104 -58q-28 39 -74 39q-58 0 -58 -34q0 -23 67 -41q93 -23 126 -43
q68 -40 68 -117z" />
    <glyph glyph-name="t" unicode="t" horiz-adv-x="330" 
d="M285 380h-63v-228q0 -38 44 -38v-114h-53q-59 0 -92 41q-31 38 -31 99v240h-55v114h55v132h132v-132h63v-114z" />
    <glyph glyph-name="u" unicode="u" horiz-adv-x="533" 
d="M468 0h-111l-5 21q-42 -30 -90 -30q-102 0 -154.5 57t-52.5 159v287h136v-278q0 -46 14 -67q16 -26 60 -26q30 0 48.5 19t18.5 49v303h136v-494z" />
    <glyph glyph-name="v" unicode="v" horiz-adv-x="519" 
d="M504 494l-190 -494h-110l-189 494h146l95 -299l101 299h147z" />
    <glyph glyph-name="w" unicode="w" horiz-adv-x="772" 
d="M757 494l-165 -494h-113l-94 257l-94 -257h-113l-163 494h146l76 -285l98 285h99l95 -286l82 286h146z" />
    <glyph glyph-name="x" unicode="x" horiz-adv-x="521" 
d="M516 0h-166l-89 143l-90 -143h-166l178 252l-169 242h165l82 -128l81 128h166l-169 -242z" />
    <glyph glyph-name="y" unicode="y" horiz-adv-x="524" 
d="M509 494l-224 -603q-19 -51 -51 -78q-44 -36 -117 -36q-1 0 -52 1v115q54 0 67 3q22 7 33 35l25 69l-175 494h146l98 -325l104 325h146z" />
    <glyph glyph-name="z" unicode="z" horiz-adv-x="502" 
d="M447 0h-402v101l213 263h-203v130h392v-99l-215 -265h215v-130z" />
    <glyph glyph-name="braceleft" unicode="{" horiz-adv-x="387" 
d="M337 -77q-127 0 -173 66q-36 51 -36 174q0 89 -21 114q-13 18 -57 18v108q44 0 57 18q21 26 21 114q0 123 36 175q46 65 173 65v-108q-45 0 -65 -24q-26 -31 -26 -115q0 -129 -78 -179q78 -49 78 -179q0 -83 26 -114q20 -25 65 -25v-108z" />
    <glyph glyph-name="bar" unicode="|" horiz-adv-x="322" 
d="M222 -77h-122v852h122v-852z" />
    <glyph glyph-name="braceright" unicode="}" horiz-adv-x="387" 
d="M337 295q-43 0 -57 -18q-20 -25 -20 -114q0 -123 -36 -174q-46 -66 -174 -66v108q46 0 65 25q26 31 26 114q0 130 78 179q-78 50 -78 179q0 84 -26 115q-19 24 -65 24v108q128 0 174 -65q36 -52 36 -175q0 -88 20 -114q14 -18 57 -18v-108z" />
    <glyph glyph-name="asciitilde" unicode="~" horiz-adv-x="519" 
d="M479 302q-36 -46 -60 -64q-36 -26 -82 -26q-34 0 -77 28t-75 28t-67 -47l-78 68q56 85 145 85q37 0 78 -26.5t72 -26.5q37 0 63 46z" />
    <glyph glyph-name="Adieresis" unicode="&#xc4;" horiz-adv-x="672" 
d="M508 840q0 -29 -20 -49t-49 -20q-28 0 -48 20t-20 49q0 28 20 48.5t48 20.5q29 0 49 -20.5t20 -48.5zM301 840q0 -29 -20 -49t-49 -20q-28 0 -48 20t-20 49q0 28 20 48.5t48 20.5q29 0 49 -20.5t20 -48.5zM672 0h-155l-67 175h-228l-68 -175h-154l273 698h124zM403 300
l-68 185l-66 -185h134z" />
    <glyph glyph-name="Aring" unicode="&#xc5;" horiz-adv-x="672" 
d="M460 866q0 -52 -36.5 -88.5t-88.5 -36.5t-88.5 36.5t-36.5 88.5t36.5 88.5t88.5 36.5t88.5 -36.5t36.5 -88.5zM672 0h-155l-67 175h-228l-68 -175h-154l273 698h124zM376 866q0 17 -12 29t-29 12t-29 -12t-12 -29t12 -29t29 -12t29 12t12 29zM403 300l-68 185l-66 -185
h134z" />
    <glyph glyph-name="Ccedilla" unicode="&#xc7;" horiz-adv-x="692" 
d="M632 555l-101 -87q-39 51 -65 70q-37 28 -87 28q-157 0 -157 -217t157 -217q50 0 87 28q26 20 65 70l101 -87q-97 -125 -193 -146l23 -66l-70 -134h-128l101 140l-22 56q-135 15 -204 121q-60 93 -60 235q0 147 60 235q84 123 240 123q81 0 145 -43q49 -34 108 -109z" />
    <glyph glyph-name="Eacute" unicode="&#xc9;" horiz-adv-x="599" 
d="M445 924l-121 -153h-91l89 153h123zM549 0h-479v698h479v-141h-336v-125h293v-141h-293v-150h336v-141z" />
    <glyph glyph-name="Ntilde" unicode="&#xd1;" horiz-adv-x="724" 
d="M545 818q-30 -40 -51 -56q-31 -24 -70 -24q-30 0 -66 25t-64 25q-27 0 -56 -39l-67 58q50 75 124 75q31 0 66 -24t61 -24q33 0 54 40zM619 0h-125l-245 398v-398h-143v698h125l245 -398v398h143v-698z" />
    <glyph glyph-name="Odieresis" unicode="&#xd6;" horiz-adv-x="664" 
d="M507 830q0 -28 -20.5 -48.5t-47.5 -20.5q-28 0 -48.5 20.5t-20.5 48.5t20.5 48.5t48.5 20.5q27 0 47.5 -20.5t20.5 -48.5zM300 830q0 -28 -20.5 -48.5t-47.5 -20.5q-28 0 -48.5 20.5t-20.5 48.5t20.5 48.5t48.5 20.5q27 0 47.5 -20.5t20.5 -48.5zM624 349
q0 -154 -67 -249q-77 -108 -225 -108t-225 108q-67 95 -67 249t67 249q77 108 225 108t225 -108q67 -95 67 -249zM480 349q0 216 -148 216t-148 -216t148 -216t148 216z" />
    <glyph glyph-name="Udieresis" unicode="&#xdc;" horiz-adv-x="655" 
d="M500 834q0 -28 -20.5 -48.5t-48.5 -20.5t-48 20.5t-20 48.5t20 48.5t48 20.5t48.5 -20.5t20.5 -48.5zM293 834q0 -28 -20.5 -48.5t-48.5 -20.5t-48.5 20.5t-20.5 48.5t20.5 48.5t48.5 20.5t48.5 -20.5t20.5 -48.5zM595 305q0 -143 -61 -223q-68 -90 -206 -90
q-139 0 -207 90q-61 80 -61 223v393h143v-393q0 -81 20 -120q29 -54 104 -54q77 0 105 53q20 38 20 121v393h143v-393z" />
    <glyph glyph-name="aacute" unicode="&#xe1;" 
d="M373 702l-122 -153h-90l89 153h123zM456 22l-119 -34l-8 25q-49 -26 -111 -26q-77 0 -128 42q-55 45 -55 120q0 148 180 157q31 1 76 1q16 0 16 12v14q0 46 -56 46q-62 0 -84 -47l-115 40q40 128 199 128q71 0 125 -42q58 -45 58 -114v-251zM307 141v72q-46 -3 -91 -7
q-59 -7 -59 -48q0 -23 22 -36q19 -12 42 -12q46 0 86 31z" />
    <glyph glyph-name="agrave" unicode="&#xe0;" 
d="M324 549h-90l-122 153h123zM456 22l-119 -34l-8 25q-49 -26 -111 -26q-77 0 -128 42q-55 45 -55 120q0 148 180 157q31 1 76 1q16 0 16 12v14q0 46 -56 46q-62 0 -84 -47l-115 40q40 128 199 128q71 0 125 -42q58 -45 58 -114v-251zM307 141v72q-46 -3 -91 -7
q-59 -7 -59 -48q0 -23 22 -36q19 -12 42 -12q46 0 86 31z" />
    <glyph glyph-name="acircumflex" unicode="&#xe2;" 
d="M421 537h-126l-57 84l-57 -84h-126l126 153h114zM456 22l-119 -34l-8 25q-49 -26 -111 -26q-77 0 -128 42q-55 45 -55 120q0 148 180 157q31 1 76 1q16 0 16 12v14q0 46 -56 46q-62 0 -84 -47l-115 40q40 128 199 128q71 0 125 -42q58 -45 58 -114v-251zM307 141v72
q-46 -3 -91 -7q-59 -7 -59 -48q0 -23 22 -36q19 -12 42 -12q46 0 86 31z" />
    <glyph glyph-name="adieresis" unicode="&#xe4;" 
d="M421 606q0 -28 -20 -48t-49 -20q-28 0 -48 20t-20 48q0 29 20 49t48 20q29 0 49 -20t20 -49zM219 606q0 -28 -20 -48t-49 -20q-28 0 -48.5 20t-20.5 48q0 29 20.5 49t48.5 20q29 0 49 -20t20 -49zM456 22l-119 -34l-8 25q-49 -26 -111 -26q-77 0 -128 42q-55 45 -55 120
q0 148 180 157q31 1 76 1q16 0 16 12v14q0 46 -56 46q-62 0 -84 -47l-115 40q40 128 199 128q71 0 125 -42q58 -45 58 -114v-251zM307 141v72q-46 -3 -91 -7q-59 -7 -59 -48q0 -23 22 -36q19 -12 42 -12q46 0 86 31z" />
    <glyph glyph-name="atilde" unicode="&#xe3;" 
d="M440 605q-58 -75 -121 -75q-30 0 -66.5 23t-63.5 23t-56 -39l-67 57q47 72 123 72q32 0 67 -22.5t61 -22.5q32 0 54 40zM456 22l-119 -34l-8 25q-49 -26 -111 -26q-77 0 -128 42q-55 45 -55 120q0 148 180 157q31 1 76 1q16 0 16 12v14q0 46 -56 46q-62 0 -84 -47
l-115 40q40 128 199 128q71 0 125 -42q58 -45 58 -114v-251zM307 141v72q-46 -3 -91 -7q-59 -7 -59 -48q0 -23 22 -36q19 -12 42 -12q46 0 86 31z" />
    <glyph glyph-name="aring" unicode="&#xe5;" 
d="M372 656q0 -51 -37 -88t-89 -37q-51 0 -88 37t-37 88q0 52 37 89t88 37q52 0 89 -37t37 -89zM456 22l-119 -34l-8 25q-49 -26 -111 -26q-77 0 -128 42q-55 45 -55 120q0 148 180 157q31 1 76 1q16 0 16 12v14q0 46 -56 46q-62 0 -84 -47l-115 40q40 128 199 128
q71 0 125 -42q58 -45 58 -114v-251zM288 656q0 17 -12.5 29.5t-29.5 12.5t-29 -12.5t-12 -29.5t12 -29t29 -12t29.5 12t12.5 29zM307 141v72q-46 -3 -91 -7q-59 -7 -59 -48q0 -23 22 -36q19 -12 42 -12q46 0 86 31z" />
    <glyph glyph-name="ccedilla" unicode="&#xe7;" 
d="M466 91q-81 -83 -147 -95l22 -65l-70 -134h-128l101 140l-23 58q-89 16 -140 89q-46 67 -46 162q0 111 61 181q65 75 174 75q61 0 109 -28q36 -20 87 -73l-98 -90q-55 61 -98 61q-97 0 -97 -126t97 -126q43 0 98 61z" />
    <glyph glyph-name="eacute" unicode="&#xe9;" horiz-adv-x="496" 
d="M378 692l-121 -153h-91l89 153h123zM461 223v-9h-286q9 -95 96 -95q44 0 93 53l92 -91q-47 -47 -83 -66q-45 -24 -103 -24q-109 0 -174 74q-61 71 -61 181q0 111 58 181q63 75 172 75q56 0 105.5 -36t72.5 -89q18 -41 18 -154zM335 299q-10 77 -76 77q-69 0 -83 -77h159z
" />
    <glyph glyph-name="egrave" unicode="&#xe8;" horiz-adv-x="496" 
d="M333 539h-90l-122 153h123zM461 223v-9h-286q9 -95 96 -95q44 0 93 53l92 -91q-47 -47 -83 -66q-45 -24 -103 -24q-109 0 -174 74q-61 71 -61 181q0 111 58 181q63 75 172 75q56 0 105.5 -36t72.5 -89q18 -41 18 -154zM335 299q-10 77 -76 77q-69 0 -83 -77h159z" />
    <glyph glyph-name="ecircumflex" unicode="&#xea;" horiz-adv-x="496" 
d="M443 537h-126l-57 84l-57 -84h-126l126 153h114zM461 223v-9h-286q9 -95 96 -95q44 0 93 53l92 -91q-47 -47 -83 -66q-45 -24 -103 -24q-109 0 -174 74q-61 71 -61 181q0 111 58 181q63 75 172 75q56 0 105.5 -36t72.5 -89q18 -41 18 -154zM335 299q-10 77 -76 77
q-69 0 -83 -77h159z" />
    <glyph glyph-name="edieresis" unicode="&#xeb;" horiz-adv-x="496" 
d="M430 604q0 -28 -20 -48t-49 -20q-28 0 -48 20t-20 48q0 29 20 49t48 20q29 0 49 -20t20 -49zM223 604q0 -28 -20.5 -48t-48.5 -20t-48 20t-20 48q0 29 20 49t48 20t48.5 -20t20.5 -49zM461 223v-9h-286q9 -95 96 -95q44 0 93 53l92 -91q-47 -47 -83 -66q-45 -24 -103 -24
q-109 0 -174 74q-61 71 -61 181q0 111 58 181q63 75 172 75q56 0 105.5 -36t72.5 -89q18 -41 18 -154zM335 299q-10 77 -76 77q-69 0 -83 -77h159z" />
    <glyph glyph-name="iacute" unicode="&#xed;" horiz-adv-x="251" 
d="M247 702l-122 -153h-90l89 153h123zM191 0h-134v494h134v-494z" />
    <glyph glyph-name="igrave" unicode="&#xec;" horiz-adv-x="245" 
d="M214 549h-91l-122 153h124zM190 0h-133v494h133v-494z" />
    <glyph glyph-name="icircumflex" unicode="&#xee;" horiz-adv-x="259" 
d="M290 537h-107l-57 84l-56 -84h-107l107 153h113zM194 0h-133v494h133v-494z" />
    <glyph glyph-name="idieresis" unicode="&#xef;" horiz-adv-x="262" 
d="M294 616q0 -28 -20 -48t-49 -20q-28 0 -48 20t-20 48q0 29 20 49t48 20q29 0 49 -20t20 -49zM107 616q0 -28 -20 -48t-49 -20q-28 0 -48 20t-20 48q0 29 20 49t48 20q29 0 49 -20t20 -49zM196 0h-133v494h133v-494z" />
    <glyph glyph-name="ntilde" unicode="&#xf1;" horiz-adv-x="533" 
d="M462 605q-58 -75 -121 -75q-30 0 -66.5 23t-63.5 23t-56 -39l-67 57q47 72 123 72q32 0 67 -22.5t61 -22.5q32 0 54 40zM478 0h-136v278q0 45 -14 66q-17 26 -60 26q-29 0 -48 -19t-19 -48v-303h-136v490h116v-16q38 24 90 24q103 0 156 -60q51 -56 51 -160v-278z" />
    <glyph glyph-name="oacute" unicode="&#xf3;" horiz-adv-x="518" 
d="M385 702l-122 -153h-91l89 153h124zM483 243q0 -117 -52 -182q-58 -71 -172 -71t-171 71q-53 65 -53 182t53 182q57 71 171 71t171 -71q53 -65 53 -182zM345 243q0 121 -86 121t-86 -121t86 -121t86 121z" />
    <glyph glyph-name="ograve" unicode="&#xf2;" horiz-adv-x="518" 
d="M338 549h-91l-122 153h124zM483 243q0 -117 -52 -182q-58 -71 -172 -71t-171 71q-53 65 -53 182t53 182q57 71 171 71t171 -71q53 -65 53 -182zM345 243q0 121 -86 121t-86 -121t86 -121t86 121z" />
    <glyph glyph-name="ocircumflex" unicode="&#xf4;" horiz-adv-x="518" 
d="M443 537h-127l-56 84l-57 -84h-127l127 153h113zM483 243q0 -117 -52 -182q-58 -71 -172 -71t-172 71q-52 65 -52 182t52 182q58 71 172 71t172 -71q52 -65 52 -182zM345 243q0 121 -86 121t-86 -121t86 -121t86 121z" />
    <glyph glyph-name="odieresis" unicode="&#xf6;" horiz-adv-x="518" 
d="M432 603q0 -28 -20 -48t-48 -20q-29 0 -49 20t-20 48q0 29 20 49t49 20q28 0 48 -20t20 -49zM225 603q0 -28 -20 -48t-48 -20q-29 0 -49 20t-20 48q0 29 20 49t49 20q28 0 48 -20t20 -49zM483 243q0 -117 -52 -182q-58 -71 -172 -71t-172 71q-52 65 -52 182t52 182
q58 71 172 71t172 -71q52 -65 52 -182zM345 243q0 121 -86 121t-86 -121t86 -121t86 121z" />
    <glyph glyph-name="otilde" unicode="&#xf5;" horiz-adv-x="518" 
d="M450 605q-58 -75 -121 -75q-30 0 -66.5 23t-63.5 23t-56 -39l-67 57q47 72 123 72q32 0 67 -22.5t61 -22.5q32 0 54 40zM483 243q0 -117 -52 -182q-58 -71 -172 -71t-172 71q-52 65 -52 182t52 182q58 71 172 71t172 -71q52 -65 52 -182zM345 243q0 121 -86 121t-86 -121
t86 -121t86 121z" />
    <glyph glyph-name="uacute" unicode="&#xfa;" horiz-adv-x="533" 
d="M382 702l-122 -153h-90l89 153h123zM468 0h-116v16q-37 -23 -90 -23q-102 0 -156 62q-51 58 -51 161v278h136v-278q0 -46 14 -67q17 -26 60 -26q30 0 48.5 19t18.5 49v303h136v-494z" />
    <glyph glyph-name="ugrave" unicode="&#xf9;" horiz-adv-x="533" 
d="M333 549h-91l-121 153h123zM468 0h-116v16q-37 -23 -90 -23q-102 0 -156 62q-51 58 -51 161v278h136v-278q0 -46 14 -67q17 -26 60 -26q30 0 48.5 19t18.5 49v303h136v-494z" />
    <glyph glyph-name="ucircumflex" unicode="&#xfb;" horiz-adv-x="533" 
d="M443 537h-126l-57 84l-57 -84h-126l126 153h114zM468 0h-116v16q-37 -23 -90 -23q-102 0 -156 62q-51 58 -51 161v278h136v-278q0 -46 14 -67q17 -26 60 -26q30 0 48.5 19t18.5 49v303h136v-494z" />
    <glyph glyph-name="udieresis" unicode="&#xfc;" horiz-adv-x="533" 
d="M433 616q0 -28 -20.5 -48t-48.5 -20t-48.5 20t-20.5 48t20.5 48.5t48.5 20.5t48.5 -20.5t20.5 -48.5zM226 616q0 -28 -20.5 -48t-48.5 -20t-48.5 20t-20.5 48t20.5 48.5t48.5 20.5t48.5 -20.5t20.5 -48.5zM468 0h-116v16q-37 -23 -90 -23q-101 0 -155 62q-52 58 -52 161
v278h136v-278q0 -46 14 -67q17 -26 60 -26q29 0 48 19.5t19 48.5v303h136v-494z" />
    <glyph glyph-name="dagger" unicode="&#x2020;" horiz-adv-x="593" 
d="M495 387h-147v-387h-103v387h-146v107h146v204h103v-204h147v-107z" />
    <glyph glyph-name="degree" unicode="&#xb0;" horiz-adv-x="375" 
d="M300 661q0 -47 -33 -80t-80 -33t-80 33t-33 80t33 80t80 33t80 -33t33 -80zM227 661q0 16 -11.5 27.5t-28.5 11.5q-16 0 -27.5 -11.5t-11.5 -27.5t11.5 -28t27.5 -12q17 0 28.5 12t11.5 28z" />
    <glyph glyph-name="cent" unicode="&#xa2;" horiz-adv-x="556" 
d="M506 91q-51 -52 -87 -73q-48 -27 -109 -27h-12l-13 -66l-77 15l13 66q-69 26 -108 92q-38 63 -38 148q0 111 61 182q65 75 174 74l7 -1l13 64l77 -15l-12 -64q47 -19 111 -85l-98 -90q-24 27 -40 39l-44 -229q36 7 84 60zM292 371q-79 -11 -79 -125q0 -75 34 -105z" />
    <glyph glyph-name="sterling" unicode="&#xa3;" horiz-adv-x="571" 
d="M527 0h-468v97q75 81 75 144q0 16 -3 40h-93l28 128h38q-15 45 -15 83q0 94 59.5 155t156.5 61q73 0 118 -30q22 -16 83 -84l-101 -84q-33 40 -41 48q-26 22 -59 22q-39 0 -59.5 -26.5t-20.5 -68.5q0 -25 10 -76h134l-28 -128h-81q5 -30 5 -56q0 -57 -27 -96h289v-129z
" />
    <glyph glyph-name="section" unicode="&#xa7;" horiz-adv-x="616" 
d="M560 235q0 -64 -55 -121q37 -45 37 -113q0 -88 -68 -143q-63 -50 -154 -50q-170 0 -238 156l111 57q21 -46 50 -67t77 -21q34 0 60 16q30 20 30 52q0 41 -90 67q-133 37 -167 58q-91 53 -91 160q0 63 55 120q-37 45 -37 113q0 88 68 143q63 50 154 50q170 0 238 -155
l-111 -58q-21 46 -50 67t-77 21q-34 0 -60 -16q-30 -20 -30 -52q0 -41 90 -67q133 -37 167 -58q91 -52 91 -159zM427 235q0 45 -84 74l-124 34q-24 -25 -24 -57q0 -46 84 -75q62 -17 125 -34q23 25 23 58z" />
    <glyph glyph-name="bullet" unicode="&#x2022;" horiz-adv-x="548" 
d="M446 333q0 -71 -50.5 -121t-121.5 -50t-121 50t-50 121t50 121t121 50t121.5 -50t50.5 -121z" />
    <glyph glyph-name="paragraph" unicode="&#xb6;" horiz-adv-x="616" 
d="M518 -149h-119v733h-49v-733h-120v424q-75 13 -125.5 72t-50.5 137q0 88 62.5 151t150.5 63h251v-847z" />
    <glyph glyph-name="germandbls" unicode="&#xdf;" horiz-adv-x="538" 
d="M497 253q0 -138 -55.5 -195.5t-192.5 -57.5v130q120 -1 120 122q0 130 -120 129v98q50 -1 50 56q0 17 -12 30t-29 13q-62 0 -62 -85v-493h-135v498q0 99 50 154.5t147 55.5q72 0 119.5 -47t47.5 -119q0 -46 -36 -78q108 -50 108 -211z" />
    <glyph glyph-name="registered" unicode="&#xae;" horiz-adv-x="808" 
d="M758 349q0 -147 -103.5 -250.5t-250.5 -103.5t-250.5 103.5t-103.5 250.5t103.5 250.5t250.5 103.5t250.5 -103.5t103.5 -250.5zM658 349q0 105 -74.5 179.5t-179.5 74.5t-179.5 -74.5t-74.5 -179.5t74.5 -179.5t179.5 -74.5t179.5 74.5t74.5 179.5zM568 161h-94l-71 126
q-14 25 -39 25h-19v-151h-77v376h138q58 0 93 -27q38 -30 38 -87q0 -77 -68 -102zM460 422q0 41 -53 41h-63v-83h63q53 0 53 42z" />
    <glyph glyph-name="copyright" unicode="&#xa9;" horiz-adv-x="808" 
d="M758 349q0 -147 -103.5 -250.5t-250.5 -103.5t-250.5 103.5t-103.5 250.5t103.5 250.5t250.5 103.5t250.5 -103.5t103.5 -250.5zM658 349q0 105 -74.5 179.5t-179.5 74.5t-179.5 -74.5t-74.5 -179.5t74.5 -179.5t179.5 -74.5t179.5 74.5t74.5 179.5zM542 224
q-34 -41 -59 -55q-30 -17 -78 -17q-81 0 -126 60q-41 54 -41 137q0 84 40 137q45 60 126 60q80 0 135 -67l-55 -54q-39 43 -80 43q-45 0 -68 -39q-18 -31 -18 -80t18 -80q23 -39 68 -39q44 0 83 48z" />
    <glyph glyph-name="trademark" unicode="&#x2122;" horiz-adv-x="472" 
d="M422 488h-44v99l-40 -99h-27l-41 99v-99h-43v212h41l56 -141l57 141h41v-212zM201 656h-54v-169h-43v169h-54v42h151v-42z" />
    <glyph glyph-name="acute" unicode="&#xb4;" horiz-adv-x="342" 
d="M282 700l-129 -163h-93l86 163h136z" />
    <glyph glyph-name="dieresis" unicode="&#xa8;" horiz-adv-x="474" 
d="M414 609q0 -31 -21.5 -52.5t-51.5 -21.5q-31 0 -52.5 21.5t-21.5 52.5q0 30 21.5 52t52.5 22q30 0 51.5 -22t21.5 -52zM207 609q0 -31 -21.5 -52.5t-51.5 -21.5q-31 0 -52.5 21.5t-21.5 52.5q0 30 21.5 52t52.5 22q30 0 51.5 -22t21.5 -52z" />
    <glyph glyph-name="AE" unicode="&#xc6;" horiz-adv-x="953" 
d="M903 0h-468v175h-183l-90 -175h-162l377 698h526v-141h-326v-131h284v-135h-284v-150h326v-141zM435 300v227l-118 -227h118z" />
    <glyph glyph-name="Oslash" unicode="&#xd8;" horiz-adv-x="750" 
d="M666 349q0 -154 -67 -249q-77 -108 -225 -108q-62 0 -113 20l-11 -22h-117l41 81q-92 96 -92 278q0 154 67 249q77 108 225 108q62 0 113 -20l11 22h117l-41 -80q92 -97 92 -279zM522 349q0 84 -21 135l-175 -344q22 -7 48 -7q148 0 148 216zM422 559q-22 6 -48 6
q-148 0 -148 -216q0 -84 21 -134z" />
    <glyph glyph-name="plusminus" unicode="&#xb1;" horiz-adv-x="555" 
d="M494 302h-161v-159h-110v159h-161v109h161v160h110v-160h161v-109zM494 0h-432v108h432v-108z" />
    <glyph glyph-name="yen" unicode="&#xa5;" horiz-adv-x="579" 
d="M582 698l-148 -298h69l-23 -101h-96l-11 -23h130l-23 -102h-131v-174h-117v174h-156l23 102h110l-12 23h-121l23 101h48l-149 298h131l162 -334l161 334h130z" />
    <glyph glyph-name="mu" unicode="&#xb5;" horiz-adv-x="607" 
d="M504 -1h-117v16q-35 -23 -85 -23q-55 0 -92 24v-207h-116v685h116v-277q0 -58 17 -82q20 -31 75 -31q36 0 60.5 21.5t24.5 57.5v311h117v-495z" />
    <glyph glyph-name="mu" unicode="&#x3bc;" horiz-adv-x="607" 
d="M504 -1h-117v16q-35 -23 -85 -23q-55 0 -92 24v-207h-116v685h116v-277q0 -58 17 -82q20 -31 75 -31q36 0 60.5 21.5t24.5 57.5v311h117v-495z" />
    <glyph glyph-name="ordfeminine" unicode="&#xaa;" horiz-adv-x="437" 
d="M387 325l-95 -28l-7 20q-39 -20 -88 -20q-62 0 -103 33q-44 36 -44 96q0 118 144 125q25 2 73 0v22q0 37 -44 37q-50 0 -68 -38l-93 28q40 107 161 107q57 0 101.5 -35t44.5 -90v-201zM311 185h-180v82h180v-82zM267 420v56q-35 -2 -71 -5q-49 -6 -49 -38q0 -18 18 -29
q15 -9 34 -9q37 0 68 25z" />
    <glyph glyph-name="ordmasculine" unicode="&#xba;" horiz-adv-x="458" 
d="M408 501q0 -94 -41 -147q-46 -58 -138 -58q-91 0 -137 58q-42 53 -42 147q0 93 42 147q46 58 137 58t137 -58q42 -53 42 -147zM322 185h-180v82h180v-82zM298 500q0 101 -69 101t-69 -101q0 -99 69 -99t69 99z" />
    <glyph glyph-name="ae" unicode="&#xe6;" horiz-adv-x="757" 
d="M722 249v-35h-287q10 -95 96 -95q46 0 93 53l93 -91q-46 -46 -84 -66q-46 -24 -103 -24q-101 0 -147 55q-33 -33 -70 -46t-95 -13q-77 0 -128 42q-55 45 -55 120q0 105 92 139q57 21 180 18v27q0 46 -56 46q-63 0 -84 -47l-118 35q50 133 202 133q76 0 131 -46
q58 48 143 48q57 0 106.5 -36t72.5 -89q18 -43 18 -128zM596 299q-10 77 -76 77q-70 0 -83 -77h159zM307 141v70q-45 -3 -90 -5q-60 -9 -60 -48q0 -23 22 -36q18 -12 42 -12q46 0 86 31z" />
    <glyph glyph-name="oslash" unicode="&#xf8;" horiz-adv-x="578" 
d="M483 246q0 -117 -52 -183q-58 -73 -172 -73q-36 0 -67 7l-8 -17h-103l28 59q-74 66 -74 207q0 117 52 184q58 73 172 73q36 0 67 -8l9 19h107l-31 -63q72 -67 72 -205zM345 246q0 34 -5 57l-88 -181h7q86 -3 86 124zM267 371h-8q-86 3 -86 -125q0 -36 6 -60z" />
    <glyph glyph-name="questiondown" unicode="&#xbf;" horiz-adv-x="547" 
d="M355 413q0 -34 -23.5 -57.5t-57.5 -23.5t-57.5 23.5t-23.5 57.5t23.5 57.5t57.5 23.5t57.5 -23.5t23.5 -57.5zM487 -10q0 -108 -68 -164q-58 -48 -146 -48q-94 0 -152 49q-61 53 -61 146q0 92 95 147q33 19 45.5 33.5t14.5 38.5l7 97h104q8 -76 8 -99q0 -66 -31 -105
q-17 -21 -63 -49q-32 -19 -37 -24q-18 -16 -18 -39q0 -34 23.5 -54t64.5 -20q92 0 92 91h122z" />
    <glyph glyph-name="exclamdown" unicode="&#xa1;" horiz-adv-x="369" 
d="M249 410q0 -35 -24.5 -60t-59.5 -25t-60 25t-25 60t25 59.5t60 24.5t59.5 -24.5t24.5 -59.5zM231 -214h-134v287l6 202h123l5 -202v-287z" />
    <glyph glyph-name="logicalnot" unicode="&#xac;" horiz-adv-x="555" 
d="M504 75h-103v131h-349v103h452v-234z" />
    <glyph glyph-name="florin" unicode="&#x192;" horiz-adv-x="425" 
d="M392 695v-117q-77 0 -106 -34q-20 -23 -32 -93h64v-117h-84l-93 -537l-114 20l89 517h-49v117h69q10 60 19 89q14 48 41 81q59 74 196 74z" />
    <glyph glyph-name="guillemotleft" unicode="&#xab;" horiz-adv-x="555" 
d="M495 -9l-235 223v68l235 222v-142l-125 -114l125 -114v-143zM294 -9l-234 223v68l234 222v-142l-124 -114l124 -114v-143z" />
    <glyph glyph-name="guillemotright" unicode="&#xbb;" horiz-adv-x="555" 
d="M495 214l-235 -223v143l125 114l-125 114v142l235 -222v-68zM294 214l-234 -223v143l125 114l-125 114v142l234 -222v-68z" />
    <glyph glyph-name="ellipsis" unicode="&#x2026;" horiz-adv-x="773" 
d="M709 76q0 -36 -25.5 -61t-60.5 -25q-36 0 -61.5 25t-25.5 61t25.5 61t61.5 25q35 0 60.5 -25t25.5 -61zM473 76q0 -36 -25 -61t-61 -25t-61.5 25t-25.5 61t25.5 61t61.5 25t61 -25t25 -61zM238 76q0 -36 -25.5 -61t-61.5 -25q-35 0 -60.5 25t-25.5 61t25.5 61t60.5 25
q36 0 61.5 -25t25.5 -61z" />
    <glyph glyph-name="nonbreakingspace" unicode="&#xa0;" horiz-adv-x="150" 
 />
    <glyph glyph-name="Agrave" unicode="&#xc0;" horiz-adv-x="672" 
d="M396 771h-90l-122 153h123zM672 0h-155l-67 175h-228l-68 -175h-154l273 698h124zM403 300l-68 185l-66 -185h134z" />
    <glyph glyph-name="Atilde" unicode="&#xc3;" horiz-adv-x="672" 
d="M529 818q-30 -40 -51 -56q-31 -24 -70 -24q-30 0 -66 25t-64 25q-27 0 -56 -39l-67 58q50 75 124 75q31 0 66 -24t61 -24q33 0 54 40zM672 0h-155l-67 175h-228l-68 -175h-154l273 698h124zM403 300l-68 185l-66 -185h134z" />
    <glyph glyph-name="Otilde" unicode="&#xd5;" horiz-adv-x="664" 
d="M530 818q-30 -40 -51 -56q-31 -24 -70 -24q-30 0 -66 25t-64 25q-27 0 -56 -39l-67 58q50 75 124 75q31 0 66 -24t61 -24q33 0 54 40zM624 349q0 -149 -57 -234q-81 -123 -235 -123t-235 123q-57 85 -57 234t57 234q82 123 235 123q154 0 235 -123q57 -85 57 -234z
M480 349q0 107 -33 157q-39 59 -115 59q-80 0 -118 -63q-30 -51 -30 -153t30 -153q38 -63 118 -63t118 63q30 51 30 153z" />
    <glyph glyph-name="OE" unicode="&#x152;" horiz-adv-x="1011" 
d="M961 0h-479v30q-63 -38 -150 -38q-148 0 -225 108q-67 95 -67 249t67 249q77 108 225 108q87 0 150 -38v30h479v-141h-336v-131h293v-135h-293v-150h336v-141zM480 349q0 216 -148 216t-148 -216t148 -216t148 216z" />
    <glyph glyph-name="oe" unicode="&#x153;" horiz-adv-x="806" 
d="M771 249v-35h-287q10 -95 96 -95q46 0 93 53l93 -91q-90 -90 -187 -90q-96 0 -159 60q-57 -61 -161 -61q-114 0 -172 73q-52 66 -52 183t52 184q58 73 172 73q103 0 160 -60q61 59 155 59q57 0 107 -36t72 -89q18 -43 18 -128zM645 299q-10 77 -76 77q-70 0 -83 -77h159z
M345 246q0 125 -86 125t-86 -125q0 -124 86 -124t86 124z" />
    <glyph glyph-name="endash" unicode="&#x2013;" horiz-adv-x="583" 
d="M523 216h-463v105h463v-105z" />
    <glyph glyph-name="emdash" unicode="&#x2014;" horiz-adv-x="763" 
d="M703 216h-643v105h643v-105z" />
    <glyph glyph-name="quotedblleft" unicode="&#x201c;" horiz-adv-x="456" 
d="M386 752l-5 -176q-1 -27 -19 -45t-44 -18q-27 0 -46 18.5t-17 44.5l5 54l77 122h49zM201 752l-5 -176q-1 -27 -19 -45t-44 -18t-45.5 18.5t-17.5 44.5l5 54l77 122h49z" />
    <glyph glyph-name="quotedblright" unicode="&#x201d;" horiz-adv-x="456" 
d="M386 689l-5 -55l-77 -121h-49l5 176q1 26 19 44.5t44 18.5t45.5 -19t17.5 -44zM201 689l-5 -55l-77 -121h-49l5 176q1 26 19 44.5t44 18.5q27 0 46 -19t17 -44z" />
    <glyph glyph-name="quoteleft" unicode="&#x2018;" horiz-adv-x="271" 
d="M201 752l-5 -176q-1 -27 -19 -45t-44 -18t-45.5 18.5t-17.5 44.5l5 54l77 122h49z" />
    <glyph glyph-name="quoteright" unicode="&#x2019;" horiz-adv-x="271" 
d="M201 689l-5 -55l-77 -121h-49l5 176q1 26 19 44.5t44 18.5q27 0 46 -19t17 -44z" />
    <glyph glyph-name="divide" unicode="&#xf7;" horiz-adv-x="548" 
d="M340 425q0 -28 -20 -47.5t-48 -19.5t-48 19.5t-20 47.5t20 48t48 20t48 -20t20 -48zM492 224h-435v100h435v-100zM340 122q0 -28 -20 -47.5t-48 -19.5t-48 19.5t-20 47.5t20 48t48 20t48 -20t20 -48z" />
    <glyph glyph-name="ydieresis" unicode="&#xff;" horiz-adv-x="524" 
d="M435 596q0 -28 -20 -48t-49 -20q-28 0 -48 20t-20 48q0 29 20 49t48 20q29 0 49 -20t20 -49zM228 596q0 -28 -20 -48t-49 -20q-28 0 -48.5 20t-20.5 48q0 29 20.5 49t48.5 20q29 0 49 -20t20 -49zM509 494l-224 -603q-19 -51 -51 -78q-44 -36 -117 -36q-1 0 -52 1v115
q54 0 67 3q22 7 33 35l25 69l-175 494h146l98 -325l104 325h146z" />
    <glyph glyph-name="Ydieresis" unicode="&#x178;" horiz-adv-x="626" 
d="M487 840q0 -29 -20 -49t-49 -20q-28 0 -48 20t-20 49q0 28 20 48.5t48 20.5q29 0 49 -20.5t20 -48.5zM280 840q0 -29 -20 -49t-49 -20q-28 0 -48 20t-20 49q0 28 20 48.5t48 20.5q29 0 49 -20.5t20 -48.5zM616 698l-231 -468v-230h-143v232l-232 466h160l144 -296
l143 296h159z" />
    <glyph glyph-name="currency" unicode="&#xa4;" horiz-adv-x="731" 
d="M671 121q-61 -73 -107 -99q-55 -31 -142 -31q-111 0 -187 64q-73 61 -102 170h-83l21 97h47v27.5v26.5h-68l21 97h62q28 110 102 172t186 62q80 0 138 -29q55 -28 107 -92l-100 -99q-70 79 -145 79q-95 0 -135 -93h182l-21 -97h-182q-2 -28 -2 -27t2 -27h203l-21 -97
h-161q40 -93 135 -93q80 0 150 87z" />
    <glyph glyph-name="guilsinglleft" unicode="&#x2039;" horiz-adv-x="354" 
d="M294 -9l-234 223v68l234 222v-142l-124 -114l124 -114v-143z" />
    <glyph glyph-name="guilsinglright" unicode="&#x203a;" horiz-adv-x="354" 
d="M294 214l-234 -223v143l125 114l-125 114v142l234 -222v-68z" />
    <glyph glyph-name="daggerdbl" unicode="&#x2021;" horiz-adv-x="603" 
d="M495 0h-147v-204h-103v204h-146v108h146v279h-146v107h146v204h103v-204h147v-107h-147v-279h147v-108z" />
    <glyph glyph-name="periodcentered" unicode="&#xb7;" horiz-adv-x="321" 
d="M248 265q0 -36 -25.5 -61.5t-62.5 -25.5q-36 0 -61.5 25.5t-25.5 61.5q0 37 25.5 62.5t61.5 25.5q37 0 62.5 -25.5t25.5 -62.5z" />
    <glyph glyph-name="periodcentered" unicode="&#x2219;" horiz-adv-x="321" 
d="M248 265q0 -36 -25.5 -61.5t-62.5 -25.5q-36 0 -61.5 25.5t-25.5 61.5q0 37 25.5 62.5t61.5 25.5q37 0 62.5 -25.5t25.5 -62.5z" />
    <glyph glyph-name="quotesinglbase" unicode="&#x201a;" horiz-adv-x="271" 
d="M201 54l-5 -54l-77 -122h-49l5 176q1 27 19 45t44 18q27 0 46 -18.5t17 -44.5z" />
    <glyph glyph-name="quotedblbase" unicode="&#x201e;" horiz-adv-x="456" 
d="M386 54l-5 -54l-77 -122h-49l5 176q1 27 19 45t44 18t45.5 -18.5t17.5 -44.5zM201 54l-5 -54l-77 -122h-49l5 176q1 27 19 45t44 18q27 0 46 -18.5t17 -44.5z" />
    <glyph glyph-name="perthousand" unicode="&#x2030;" horiz-adv-x="837" 
d="M1003 190q0 -84 -36 -137q-42 -63 -123 -63q-67 0 -108 44q-40 -44 -108 -44q-81 0 -122 63q-36 53 -36 137q0 85 36 138q41 63 122 63q68 0 108 -44q41 44 108 44q81 0 123 -63q36 -53 36 -138zM634 698l-319 -698h-113l320 698h112zM367 507q0 -84 -36 -138
q-42 -62 -122 -62q-81 0 -123 62q-36 54 -36 138t36 138q42 62 123 62q80 0 122 -62q36 -54 36 -138zM902 190q0 101 -58 101q-57 0 -57 -101q0 -100 57 -100q58 0 58 100zM686 190q0 101 -58 101q-57 0 -57 -101q0 -100 57 -100q58 0 58 100zM266 507q0 101 -57 101
q-58 0 -58 -101t58 -101q57 0 57 101z" />
    <glyph glyph-name="Acircumflex" unicode="&#xc2;" horiz-adv-x="672" 
d="M517 771h-127l-57 84l-56 -84h-127l127 153h113zM672 0h-155l-67 175h-228l-68 -175h-154l273 698h124zM403 300l-68 185l-66 -185h134z" />
    <glyph glyph-name="Ecircumflex" unicode="&#xca;" horiz-adv-x="599" 
d="M490 771h-126l-57 84l-57 -84h-126l126 153h114zM549 0h-479v698h479v-141h-336v-125h293v-141h-293v-150h336v-141z" />
    <glyph glyph-name="Aacute" unicode="&#xc1;" horiz-adv-x="672" 
d="M491 924l-122 -153h-91l89 153h124zM672 0h-155l-67 175h-228l-68 -175h-154l273 698h124zM403 300l-68 185l-66 -185h134z" />
    <glyph glyph-name="Edieresis" unicode="&#xcb;" horiz-adv-x="599" 
d="M479 840q0 -29 -20 -49t-48 -20q-29 0 -49 20t-20 49q0 28 20 48.5t49 20.5q28 0 48 -20.5t20 -48.5zM272 840q0 -29 -20 -49t-48 -20q-29 0 -49 20t-20 49q0 28 20 48.5t49 20.5q28 0 48 -20.5t20 -48.5zM549 0h-479v698h479v-141h-336v-125h293v-141h-293v-150h336
v-141z" />
    <glyph glyph-name="Egrave" unicode="&#xc8;" horiz-adv-x="599" 
d="M386 771h-91l-121 153h123zM549 0h-479v698h479v-141h-336v-125h293v-141h-293v-150h336v-141z" />
    <glyph glyph-name="Iacute" unicode="&#xcd;" horiz-adv-x="288" 
d="M279 924l-121 -153h-91l89 153h123zM222 0h-145v698h145v-698z" />
    <glyph glyph-name="Icircumflex" unicode="&#xce;" horiz-adv-x="294" 
d="M332 771h-127l-57 84l-56 -84h-127l127 153h113zM221 0h-146v698h146v-698z" />
    <glyph glyph-name="Idieresis" unicode="&#xcf;" horiz-adv-x="301" 
d="M324 840q0 -29 -20 -49t-49 -20q-28 0 -48 20t-20 49q0 28 20 48.5t48 20.5q29 0 49 -20.5t20 -48.5zM117 840q0 -29 -20 -49t-49 -20q-28 0 -48 20t-20 49q0 28 20 48.5t48 20.5q29 0 49 -20.5t20 -48.5zM221 0h-145v698h145v-698z" />
    <glyph glyph-name="Igrave" unicode="&#xcc;" horiz-adv-x="288" 
d="M224 771h-91l-121 153h123zM218 0h-145v698h145v-698z" />
    <glyph glyph-name="Oacute" unicode="&#xd3;" horiz-adv-x="664" 
d="M463 924l-122 -153h-90l88 153h124zM624 349q0 -149 -57 -234q-81 -123 -235 -123t-235 123q-57 85 -57 234t57 234q82 123 235 123q154 0 235 -123q57 -85 57 -234zM480 349q0 107 -33 157q-39 59 -115 59q-80 0 -118 -63q-30 -51 -30 -153t30 -153q38 -63 118 -63
t118 63q30 51 30 153z" />
    <glyph glyph-name="Ocircumflex" unicode="&#xd4;" horiz-adv-x="664" 
d="M515 771h-127l-57 84l-57 -84h-126l126 153h114zM624 349q0 -149 -57 -234q-81 -123 -235 -123t-235 123q-57 85 -57 234t57 234q82 123 235 123q154 0 235 -123q57 -85 57 -234zM480 349q0 107 -33 157q-39 59 -115 59q-80 0 -118 -63q-30 -51 -30 -153t30 -153
q38 -63 118 -63t118 63q30 51 30 153z" />
    <glyph glyph-name="Ograve" unicode="&#xd2;" horiz-adv-x="664" 
d="M416 771h-91l-121 153h123zM624 349q0 -149 -57 -234q-81 -123 -235 -123t-235 123q-57 85 -57 234t57 234q82 123 235 123q154 0 235 -123q57 -85 57 -234zM480 349q0 107 -33 157q-39 59 -115 59q-80 0 -118 -63q-30 -51 -30 -153t30 -153q38 -63 118 -63t118 63
q30 51 30 153z" />
    <glyph glyph-name="Uacute" unicode="&#xda;" horiz-adv-x="655" 
d="M462 924l-122 -153h-90l89 153h123zM595 307q0 -129 -44 -201q-69 -114 -223 -114q-153 0 -222 111q-46 76 -46 204v391h143v-393q0 -86 21 -123q28 -51 103 -51q76 0 104 51q21 37 21 123v393h143v-391z" />
    <glyph glyph-name="Ucircumflex" unicode="&#xdb;" horiz-adv-x="655" 
d="M511 771h-126l-57 84l-57 -84h-126l126 153h114zM595 307q0 -129 -44 -201q-69 -114 -223 -114q-153 0 -222 111q-46 76 -46 204v391h143v-393q0 -86 21 -123q28 -51 103 -51q76 0 104 51q21 37 21 123v393h143v-391z" />
    <glyph glyph-name="Ugrave" unicode="&#xd9;" horiz-adv-x="655" 
d="M421 771h-90l-122 153h123zM595 307q0 -129 -44 -201q-69 -114 -223 -114q-153 0 -222 111q-46 76 -46 204v391h143v-393q0 -86 21 -123q28 -51 103 -51q76 0 104 51q21 37 21 123v393h143v-391z" />
    <glyph glyph-name="circumflex" unicode="&#x2c6;" horiz-adv-x="531" 
d="M449 529h-127l-57 84l-56 -84h-127l127 153h113z" />
    <glyph glyph-name="tilde" unicode="&#x2dc;" horiz-adv-x="533" 
d="M452 605q-58 -75 -121 -75q-30 0 -66.5 23t-63.5 23t-56 -39l-67 57q47 72 123 72q32 0 67 -22.5t61 -22.5q32 0 54 40z" />
    <glyph glyph-name="macron" unicode="&#xaf;" horiz-adv-x="548" 
d="M442 571h-335v89h335v-89z" />
    <glyph glyph-name="macron" unicode="&#x2c9;" horiz-adv-x="548" 
d="M442 571h-335v89h335v-89z" />
    <glyph glyph-name="cedilla" unicode="&#xb8;" horiz-adv-x="545" 
d="M351 -69l-68 -131h-118l98 136l-28 73l82 28z" />
    <glyph glyph-name="Scaron" unicode="&#x160;" horiz-adv-x="617" 
d="M481 932l-127 -153h-113l-127 153h127l57 -84l56 84h127zM582 214q0 -103 -81 -166q-75 -58 -181 -58q-227 0 -282 212l135 27q29 -103 147 -103q45 0 79 21q40 25 40 67q0 49 -98 75q-155 42 -183 57q-98 51 -98 159q0 95 75 149q68 48 166 48q97 0 158.5 -36.5
t102.5 -119.5l-123 -57q-24 44 -55 62t-83 18q-37 0 -63 -13q-35 -17 -35 -51q0 -40 98 -66q143 -37 183 -60q98 -55 98 -165z" />
    <glyph glyph-name="scaron" unicode="&#x161;" horiz-adv-x="469" 
d="M417 690l-126 -153h-114l-126 153h126l57 -84l57 84h126zM439 151q0 -75 -63 -121q-56 -40 -134 -40q-174 0 -205 136l118 32q22 -47 85 -47q64 0 64 34q0 27 -68 47q-98 29 -127 45q-68 40 -68 115q0 74 55 115q50 37 127 37q70 0 112 -21.5t79 -77.5l-104 -58
q-28 39 -74 39q-58 0 -58 -34q0 -23 67 -41q93 -23 126 -43q68 -40 68 -117z" />
    <glyph glyph-name="brokenbar" unicode="&#xa6;" horiz-adv-x="375" 
d="M240 375h-99v397h99v-397zM240 -72h-99v396h99v-396z" />
    <glyph glyph-name="Eth" unicode="&#xd0;" horiz-adv-x="723" 
d="M636 349q0 -90 -7 -145q-16 -122 -108 -170q-65 -34 -186 -34h-229v296h-37v103h37v299h229q121 0 186 -34q92 -47 108 -170q7 -55 7 -145zM493 349q0 72 -5 114q-8 69 -58 84q-34 10 -95 10h-86v-158h122v-103h-122v-155h86q85 0 119 20q27 17 34 75q5 41 5 113z" />
    <glyph glyph-name="eth" unicode="&#xf0;" horiz-adv-x="583" 
d="M509 251q0 -106 -35 -165q-57 -94 -182 -94q-126 0 -183 94q-35 59 -35 165q0 97 30 154q48 89 158 101q2 0 11 -1l-12 15h-80v113h72l-52 116h124l52 -116h92v-113h-41l29 -62l21 -39q31 -57 31 -168zM392 250q0 74 -19 105q-22 38 -82 38q-59 0 -82 -40
q-18 -30 -18 -103q0 -72 18 -102q23 -40 82 -40q60 0 83 40q18 31 18 102z" />
    <glyph glyph-name="Yacute" unicode="&#xdd;" horiz-adv-x="626" 
d="M441 932l-121 -153h-91l89 153h123zM616 698l-231 -468v-230h-143v232l-232 466h160l144 -296l143 296h159z" />
    <glyph glyph-name="yacute" unicode="&#xfd;" horiz-adv-x="502" 
d="M388 702l-121 -153h-91l89 153h123zM498 494l-223 -603q-19 -51 -52 -78q-43 -36 -117 -36l-52 1l1 115q53 0 66 3q22 7 33 35l26 69l-176 494h146l98 -325l105 325h145z" />
    <glyph glyph-name="Thorn" unicode="&#xde;" horiz-adv-x="688" 
d="M627 359q0 -122 -92 -178q-57 -35 -157 -35h-129v-146h-143v698h143v-126h129q99 0 160 -37q89 -56 89 -176zM484 359q0 43 -23.5 57.5t-82.5 14.5h-129v-144h129q59 0 82.5 14.5t23.5 57.5z" />
    <glyph glyph-name="thorn" unicode="&#xfe;" horiz-adv-x="572" 
d="M520 253q0 -106 -34 -166q-56 -100 -181 -100q-36 0 -68 13v-206h-139v904h139v-192q32 13 68 13q123 0 178 -97q37 -63 37 -169zM380 253q0 59 -10 84q-16 41 -65 41q-61 0 -68 -62v-127q3 -20 9 -32q16 -30 59 -30t59 28.5t16 97.5z" />
    <glyph glyph-name="minus" unicode="&#xad;" horiz-adv-x="538" 
d="M484 226h-430v95h430v-95z" />
    <glyph glyph-name="minus" unicode="&#x2212;" horiz-adv-x="538" 
d="M484 226h-430v95h430v-95z" />
    <glyph glyph-name="multiply" unicode="&#xd7;" horiz-adv-x="499" 
d="M442 155l-74 -74l-119 118l-118 -118l-74 74l118 119l-118 118l74 74l118 -118l119 118l74 -74l-118 -118z" />
    <glyph glyph-name="onesuperior" unicode="&#xb9;" horiz-adv-x="320" 
d="M240 264h-104v295l-45 -27l-52 90l138 84h63v-442z" />
    <glyph glyph-name="twosuperior" unicode="&#xb2;" horiz-adv-x="397" 
d="M329 272h-287v72q17 45 32 67t64 74q83 88 83 104q0 21 -30 21q-24 0 -58 -62l-95 49q33 60 65 87q37 31 88 31q53 0 92 -31q45 -36 45 -95q0 -39 -27 -78q-18 -25 -73 -79q-30 -30 -48 -55h149v-105z" />
    <glyph glyph-name="threesuperior" unicode="&#xb3;" horiz-adv-x="394" 
d="M341 406q0 -58 -41 -99t-99 -41q-102 0 -140 115l99 34q2 -6 5 -14q10 -31 36 -31q14 0 24.5 10.5t10.5 25.5t-10.5 28.5t-24.5 13.5h-37v86h33q14 0 23.5 13.5t9.5 25.5q0 28 -33 28q-23 0 -35 -33l-2 -7l-100 34l7 20q15 40 51 64.5t79 24.5q57 0 97.5 -38t40.5 -93
q0 -43 -27 -78q33 -38 33 -89z" />
    <glyph glyph-name="onehalf" unicode="&#xbd;" horiz-adv-x="842" 
d="M775 2h-287v72q17 44 32 66t64 75q83 87 83 104q0 21 -30 21q-24 0 -58 -62l-94 49q32 60 64 86q37 31 88 31q53 0 92 -30q45 -36 45 -95q0 -39 -27 -78q-18 -25 -73 -80q-30 -29 -48 -55h149v-104zM609 697l-319 -695h-111l319 695h111zM247 261h-104v295l-45 -27
l-52 90l138 83h63v-441z" />
    <glyph glyph-name="onequarter" unicode="&#xbc;" horiz-adv-x="804" 
d="M741 97h-26v-95h-107v95h-177v78l152 268h125l-134 -243h67l7 71l67 -13v-57h26v-104zM608 697l-319 -695h-111l319 695h111zM246 261h-104v295l-44 -27l-52 90l137 83h63v-441z" />
    <glyph glyph-name="threequarters" unicode="&#xbe;" horiz-adv-x="885" 
d="M793 97h-26v-95h-107v95h-177v78l152 268h126l-135 -243h67l7 71l67 -13v-57h26v-104zM660 697l-318 -695h-111l318 695h111zM341 406q0 -58 -41 -99t-99 -41q-102 0 -140 115l99 34q2 -6 5 -14q10 -31 36 -31q14 0 24.5 10.5t10.5 25.5t-10.5 28.5t-24.5 13.5h-37v86h33
q14 0 23.5 13.5t9.5 25.5q0 28 -33 28q-23 0 -35 -33l-2 -7l-100 34l7 20q15 40 51 64.5t79 24.5q57 0 97.5 -38t40.5 -93q0 -43 -27 -78q33 -38 33 -89z" />
    <glyph glyph-name="Lslash" unicode="&#x141;" horiz-adv-x="560" 
d="M533 0h-445v233l-36 -16v109l36 15v357h145v-293l118 51v-109l-118 -51v-155h300v-141z" />
    <glyph glyph-name="lslash" unicode="&#x142;" horiz-adv-x="313" 
d="M261 327l-49 -24v-159q0 -30 36 -30v-114h-20h-1q-145 4 -145 142v98l-39 -20v110l39 19v349h130v-285l49 23v-109z" />
    <glyph glyph-name="Zcaron" unicode="&#x17d;" horiz-adv-x="603" 
d="M479 932l-127 -153h-113l-127 153h127l56 -84l57 84h127zM553 0h-513v104l317 454h-285v141h481v-108l-314 -450h314v-141z" />
    <glyph glyph-name="zcaron" unicode="&#x17e;" horiz-adv-x="502" 
d="M432 690l-126 -153h-114l-126 153h126l57 -84l57 84h126zM447 0h-402v101l209 263h-189v130h382v-99l-212 -265h212v-130z" />
    <glyph glyph-name="notequal" unicode="&#x2260;" horiz-adv-x="552" 
d="M492 114h-223l-35 -98l-88 32l24 66h-110v119h153l27 75h-180v118h223l35 95l88 -32l-23 -63h109v-118h-152l-27 -75h179v-119z" />
    <glyph glyph-name="infinity" unicode="&#x221e;" horiz-adv-x="800" 
d="M750 249q0 -60 -51 -100q-47 -36 -109 -36q-83 0 -190 79q-108 -79 -191 -79q-70 0 -114.5 43.5t-44.5 112.5q0 61 50 100q47 36 109 36q83 0 191 -79q107 79 190 79q70 0 115 -43t45 -113zM638 256q0 45 -48 45q-37 0 -100 -42q63 -42 100 -42q48 0 48 39zM310 259
q-63 42 -100 42q-49 0 -49 -39q0 -45 49 -45q37 0 100 42z" />
    <glyph glyph-name="lessequal" unicode="&#x2264;" horiz-adv-x="524" 
d="M466 120l-407 180v90l407 181v-119l-241 -107l241 -107v-118zM466 0h-407v108h407v-108z" />
    <glyph glyph-name="greaterequal" unicode="&#x2265;" horiz-adv-x="524" 
d="M465 300l-406 -180v118l240 107l-240 107v119l406 -181v-90zM466 0h-407v108h407v-108z" />
    <glyph glyph-name="partialdiff" unicode="&#x2202;" horiz-adv-x="601" 
d="M508 218q0 -96 -62.5 -162t-158.5 -66q-91 0 -153 69t-62 161q0 94 59.5 158.5t153.5 64.5q51 0 98 -28q-6 62 -30 109q-33 63 -85 63q-45 0 -87 -43l-75 87q70 77 164 77q151 0 206 -183q32 -107 32 -307zM391 220q0 47 -29 78t-75 31q-43 0 -71 -33t-28 -76
q0 -47 28 -81q30 -37 75 -37q48 0 75 36q25 31 25 82z" />
    <glyph glyph-name="summation" unicode="&#x2211;" horiz-adv-x="565" 
d="M505 -213h-441v85l241 370l-241 371v85h441v-109h-293l226 -347l-226 -346h293v-109z" />
    <glyph glyph-name="product" unicode="&#x220f;" horiz-adv-x="693" 
d="M586 -193h-114v779h-251v-779h-114v891h479v-891z" />
    <glyph glyph-name="pi" unicode="&#x3c0;" horiz-adv-x="580" 
d="M530 0h-51q-124 0 -124 130v256h-171v-386h-114v494h399v-363q0 -22 20 -22h41v-109z" />
    <glyph glyph-name="integral" unicode="&#x222b;" horiz-adv-x="356" 
d="M321 586h-68q-19 0 -19 -24v-618q0 -137 -131 -137h-68v113h66q21 0 21 24v618q0 59 35.5 97.5t95.5 38.5h68v-112z" />
    <glyph glyph-name="Omega" unicode="&#x3a9;" horiz-adv-x="732" 
d="M662 360q0 -65 -23 -134q-26 -78 -68 -117h65l20 -109h-249v95q75 26 111 108q28 67 28 157q0 91 -44 157q-50 77 -136 77t-137 -77q-43 -66 -43 -157q0 -90 28 -157q36 -82 110 -108v-95h-248l20 109h64q-42 39 -67 117q-23 69 -23 134q0 146 74 242q80 104 222 104
t223 -104q73 -96 73 -242z" />
    <glyph glyph-name="Omega" unicode="&#x2126;" horiz-adv-x="732" 
d="M662 360q0 -65 -23 -134q-26 -78 -68 -117h65l20 -109h-249v95q75 26 111 108q28 67 28 157q0 91 -44 157q-50 77 -136 77t-137 -77q-43 -66 -43 -157q0 -90 28 -157q36 -82 110 -108v-95h-248l20 109h64q-42 39 -67 117q-23 69 -23 134q0 146 74 242q80 104 222 104
t223 -104q73 -96 73 -242z" />
    <glyph glyph-name="radical" unicode="&#x221a;" horiz-adv-x="678" 
d="M648 595h-100l-219 -595h-93l-206 494h116l134 -324l187 528h181v-103z" />
    <glyph glyph-name="approxequal" unicode="&#x2248;" horiz-adv-x="519" 
d="M479 364q-32 -41 -60 -59q-34 -21 -82 -21q-34 0 -77 28t-75 28t-67 -47l-78 68q56 85 145 85q37 0 78 -26.5t72 -26.5q43 0 63 36zM479 184q-32 -41 -60 -59q-34 -21 -82 -21q-34 0 -77 28t-75 28t-67 -47l-78 68q56 85 145 85q37 0 78 -26.5t72 -26.5q43 0 63 36z" />
    <glyph glyph-name="approxequal" unicode="&#x22f2;" horiz-adv-x="519" 
d="M479 364q-32 -41 -60 -59q-34 -21 -82 -21q-34 0 -77 28t-75 28t-67 -47l-78 68q56 85 145 85q37 0 78 -26.5t72 -26.5q43 0 63 36zM479 184q-32 -41 -60 -59q-34 -21 -82 -21q-34 0 -77 28t-75 28t-67 -47l-78 68q56 85 145 85q37 0 78 -26.5t72 -26.5q43 0 63 36z" />
    <glyph glyph-name="Delta" unicode="&#x394;" horiz-adv-x="623" 
d="M608 1h-592l296 721zM450 107l-138 347l-139 -347h277z" />
    <glyph glyph-name="Delta" unicode="&#x2206;" horiz-adv-x="623" 
d="M608 1h-592l296 721zM450 107l-138 347l-139 -347h277z" />
    <glyph glyph-name="lozenge" unicode="&#x25ca;" horiz-adv-x="612" 
d="M534 345l-228 -372l-228 372l228 372zM408 345l-102 167l-103 -167l103 -168z" />
    <glyph glyph-name="fraction" unicode="&#x2044;" horiz-adv-x="201" 
d="M322 701l-325 -704h-118l325 704h118z" />
    <glyph glyph-name="fi" unicode="&#xf001;" horiz-adv-x="577" 
d="M522 649q0 -32 -23 -54.5t-55 -22.5t-54.5 22.5t-22.5 54.5t22.5 54.5t54.5 22.5t55 -22.5t23 -54.5zM511 0h-132v381h-163v-381h-131v381h-40v113h40v63q0 78 42 111q39 30 121 30h47v-110h-11q-38 0 -53 -15t-15 -52v-26l295 -1v-494z" />
    <glyph glyph-name="fl" unicode="&#xf002;" horiz-adv-x="567" 
d="M532 0q-110 0 -144 50q-22 33 -22 92v446h-100q-38 0 -53 -15t-15 -52v-27h69v-113h-69v-381h-131v381h-40v113h40v63q0 78 42 111q39 30 121 30h267v-554q0 -30 34 -30z" />
    <glyph glyph-name="dotlessi" unicode="&#x131;" horiz-adv-x="295" 
d="M217 0h-132v494h132v-494z" />
    <glyph glyph-name="breve" unicode="&#x2d8;" horiz-adv-x="551" 
d="M473 711q-64 -149 -198 -149q-133 0 -198 149h91q41 -67 107 -67q67 0 107 67h91z" />
    <glyph glyph-name="dotaccent" unicode="&#x2d9;" horiz-adv-x="561" 
d="M345 585q0 -26 -19 -45t-46 -19q-26 0 -45 19t-19 45q0 27 19 46t45 19q27 0 46 -19t19 -46z" />
    <glyph glyph-name="ring" unicode="&#x2da;" horiz-adv-x="547" 
d="M399 649q0 -52 -37 -88.5t-88 -36.5q-52 0 -89 36.5t-37 88.5t37 88.5t89 36.5q51 0 88 -36.5t37 -88.5zM315 649q0 17 -12 29t-29 12q-18 0 -30 -12t-12 -29t12 -29t30 -12q17 0 29 12t12 29z" />
    <glyph glyph-name="hungarumlaut" unicode="&#x2dd;" horiz-adv-x="499" 
d="M453 720l-125 -153h-67l71 153h121zM302 720l-126 -153h-67l71 153h122z" />
    <glyph glyph-name="ogonek" unicode="&#x2db;" horiz-adv-x="573" 
d="M419 -200h-123l-124 204h102z" />
    <glyph glyph-name="caron" unicode="&#x2c7;" horiz-adv-x="531" 
d="M449 682l-127 -153h-113l-127 153h127l56 -84l57 84h127z" />
    </font>
</defs>
</svg>
