<?xml version="1.0" standalone="no"?>
<!DOCTYPE svg PUBLIC "-//W3C//DTD SVG 1.1//EN" "http://www.w3.org/Graphics/SVG/1.1/DTD/svg11.dtd" >
<svg xmlns="http://www.w3.org/2000/svg" xmlns:xlink="http://www.w3.org/1999/xlink" version="1.1">
<metadata>
Created by FontForge 20170910 at Tue Mar 16 16:42:24 2004
 By Jimmy Wärting
2004 T.26 Digital Type Foundry www.t26.com PSID#5134582 designer: Neil Summerour / Positype
</metadata>
<defs>
<font id="AauxProBoldItalic" horiz-adv-x="655" >
  <font-face 
    font-family="Aaux ProBold Italic"
    font-weight="400"
    font-style="italic"
    font-stretch="normal"
    units-per-em="1000"
    panose-1="0 0 4 0 0 0 0 0 0 0"
    ascent="800"
    descent="-200"
    x-height="484"
    cap-height="698"
    bbox="-130 -233 1076 998"
    underline-thickness="20"
    underline-position="-145"
    slope="-11"
    unicode-range="U+0020-F002"
  />
<missing-glyph horiz-adv-x="500" 
d="M63 0v775h375v-775h-375zM125 63h250v650h-250v-650z" />
    <glyph glyph-name=".notdef" horiz-adv-x="500" 
d="M63 0v775h375v-775h-375zM125 63h250v650h-250v-650z" />
    <glyph glyph-name=".null" horiz-adv-x="0" 
 />
    <glyph glyph-name="nonmarkingreturn" horiz-adv-x="260" 
 />
    <glyph glyph-name="space" unicode=" " horiz-adv-x="260" 
 />
    <glyph glyph-name="exclam" unicode="!" horiz-adv-x="306" 
d="M316 698l-69 -343l-45 -198h-94l37 209l67 332h104zM123 -8q-23 0 -38 15.5t-15 38.5q0 27 21 48t48 21q24 0 38.5 -15.5t14.5 -38.5q0 -27 -20.5 -48t-48.5 -21z" />
    <glyph glyph-name="quotedbl" unicode="&#x22;" horiz-adv-x="357" 
d="M386 645l-27 -98h-102l30 120q4 17 20.5 28.5t35.5 11.5q44 0 44 -45q0 -8 -1 -17zM249 645l-27 -98h-102l30 120q4 17 20.5 28.5t35.5 11.5q44 0 44 -45q0 -8 -1 -17z" />
    <glyph glyph-name="numbersign" unicode="#" horiz-adv-x="721" 
d="M721 503l-46 -102h-120l-45 -103h120l-45 -103h-120l-87 -195h-111l87 195h-103l-87 -195h-110l86 195h-120l45 103h120l46 103h-120l45 102h120l87 195h110l-86 -195h103l86 195h111l-86 -195h120zM445 401h-103l-46 -103h103z" />
    <glyph glyph-name="dollar" unicode="$" horiz-adv-x="524" 
d="M504 533l-91 -44q-14 40 -53 52l-30 -140q139 -37 139 -140q0 -93 -65 -148q-55 -47 -148 -61l-11 -52h-95l12 53q-125 20 -143 132l95 33q10 -54 68 -69l38 179q-133 34 -133 127q0 166 199 186l13 57h95l-13 -59q88 -16 123 -106zM266 544q-31 -5 -53 -22
q-26 -19 -26 -48q0 -33 53 -50zM370 231q2 8 2 15q0 40 -62 59l-33 -156q79 19 93 82z" />
    <glyph glyph-name="percent" unicode="%" horiz-adv-x="858" 
d="M828 268q0 -107 -51 -186q-60 -92 -165 -92q-63 0 -99.5 39t-36.5 101q0 108 51 186q60 93 165 93q63 0 99.5 -39.5t36.5 -101.5zM749 699l-469 -699h-120l468 699h121zM432 567q0 -107 -51 -186q-60 -93 -165 -93q-62 0 -99 39.5t-37 100.5q0 109 51 187q60 93 165 93
q63 0 99.5 -39.5t36.5 -101.5zM727 261q0 51 -44 51q-50 0 -81 -63q-25 -52 -25 -110q0 -52 44 -52q51 0 82 65q24 51 24 109zM331 560q0 51 -44 51q-50 0 -81 -64q-25 -52 -25 -110q0 -51 44 -51q51 0 82 64q24 52 24 110z" />
    <glyph glyph-name="ampersand" unicode="&#x26;" horiz-adv-x="701" 
d="M645 344q-26 -120 -107 -217q16 -14 52 -47l-66 -80q-18 15 -57 53q-93 -63 -213 -63q-86 0 -141 41q-59 44 -59 120q0 163 174 249q-24 57 -24 107q0 83 54.5 140.5t141.5 57.5q58 0 92 -31.5t34 -83.5q0 -122 -169 -219q56 -100 120 -178q50 61 69 151h99zM420 570
q0 35 -41 35q-37 0 -56 -31q-17 -26 -17 -66q0 -36 11 -60q103 60 103 122zM403 123q-74 88 -134 197q-111 -63 -111 -147q0 -41 37 -64q33 -21 79 -21q70 0 129 35z" />
    <glyph glyph-name="quotesingle" unicode="'" horiz-adv-x="214" 
d="M243 643l-23 -96h-100l26 118q4 17 19.5 29.5t35.5 12.5q43 0 43 -48q0 -7 -1 -16z" />
    <glyph glyph-name="parenleft" unicode="(" horiz-adv-x="367" 
d="M401 698q-205 -144 -249 -349q-11 -50 -11 -96q0 -143 105 -253h-123q-84 101 -84 250q0 50 11 99q20 95 78.5 188.5t142.5 160.5h130z" />
    <glyph glyph-name="parenright" unicode=")" horiz-adv-x="367" 
d="M318 349q-21 -96 -78 -187q-59 -94 -144 -162h-130q259 189 259 442q0 152 -104 256h124q83 -101 83 -251q0 -49 -10 -98z" />
    <glyph glyph-name="asterisk" unicode="*" horiz-adv-x="450" 
d="M470 535l-117 -29l52 -83l-95 -54l-44 86l-84 -84l-77 60l86 79l-101 29l53 90l101 -36l22 105h107l-27 -101l112 34z" />
    <glyph glyph-name="plus" unicode="+" horiz-adv-x="536" 
d="M506 323l-23 -99h-163l-35 -151h-106l34 151h-163l23 99h163l35 151h106l-34 -151h163z" />
    <glyph glyph-name="comma" unicode="," horiz-adv-x="276" 
d="M204 51l-12 -51l-110 -135h-42l48 195q5 21 24 35t42 14q22 0 37 -13.5t15 -32.5q0 -6 -2 -12z" />
    <glyph glyph-name="hyphen" unicode="-" horiz-adv-x="390" 
d="M360 309l-21 -71h-289l21 71h289z" />
    <glyph glyph-name="hyphen" unicode="&#x2010;" horiz-adv-x="390" 
d="M360 309l-21 -71h-289l21 71h289z" />
    <glyph glyph-name="period" unicode="." horiz-adv-x="239" 
d="M100 -8q-22 0 -36 14t-14 35q0 26 21 46.5t48 20.5q22 0 36 -14t14 -35q0 -27 -21 -47t-48 -20z" />
    <glyph glyph-name="slash" unicode="/" horiz-adv-x="450" 
d="M570 774l-501 -850h-109l501 850h109z" />
    <glyph glyph-name="zero" unicode="0" horiz-adv-x="583" 
d="M578 480q-1 -179 -77 -317q-92 -170 -257 -170q-100 0 -149 68q-41 56 -41 154q0 179 76 318q92 170 258 170q191 0 190 -223zM475 467q0 139 -102 139q-103 0 -166 -141q-51 -114 -50 -236q0 -139 102 -139t165 141q51 114 51 236z" />
    <glyph glyph-name="one" unicode="1" horiz-adv-x="417" 
d="M390 698l-148 -698h-105l118 559l-110 -64l-34 81l217 122h62z" />
    <glyph glyph-name="two" unicode="2" horiz-adv-x="576" 
d="M565 546q0 -78 -40 -134q-31 -42 -96 -84q-60 -36 -119 -72q-111 -72 -160 -157h342l-21 -99h-465q42 196 256 337q63 38 127 76q74 52 74 112q0 40 -29 63t-72 23q-93 0 -157 -99l-81 41q49 76 104 112q62 41 146 41q83 0 137 -43t54 -117z" />
    <glyph glyph-name="three" unicode="3" horiz-adv-x="541" 
d="M543 548q0 -56 -29 -108q-31 -55 -79 -76q61 -40 61 -115q0 -117 -77.5 -186.5t-199.5 -69.5q-159 0 -197 171l100 30q15 -101 113 -101q62 0 108 40.5t46 100.5q0 89 -143 88l18 82q71 0 116 25q57 31 57 97q0 35 -25.5 58t-64.5 23q-90 0 -144 -95l-88 38
q84 156 245 156q76 0 129.5 -44t53.5 -114z" />
    <glyph glyph-name="four" unicode="4" horiz-adv-x="592" 
d="M548 698l-374 -433h204l46 219l97 -15l-44 -204h66l-21 -96h-65l-36 -169h-100l36 169h-331l16 77l393 452h113z" />
    <glyph glyph-name="five" unicode="5" horiz-adv-x="558" 
d="M566 698l-21 -98h-293l-31 -144q59 28 105 28q93 0 143 -48t50 -131q0 -137 -84.5 -224.5t-215.5 -87.5q-154 0 -187 162l98 34q15 -98 111 -98q78 0 128 59q46 55 46 134q0 103 -108 103q-64 0 -127 -50h-83l77 361h392z" />
    <glyph glyph-name="six" unicode="6" horiz-adv-x="606" 
d="M537 279q0 -125 -81.5 -205t-201.5 -80q-81 0 -136 52t-55 132q0 147 116 302q110 148 283 248l48 -62q-179 -116 -266 -246q55 33 119 33q78 0 126 -49t48 -125zM433 251q1 46 -26 75t-75 29q-69 0 -117.5 -45t-48.5 -112q0 -46 31.5 -76.5t77.5 -30.5q65 0 111.5 48
t46.5 112z" />
    <glyph glyph-name="seven" unicode="7" horiz-adv-x="515" 
d="M578 698l-17 -82q-275 -238 -345 -616h-106q72 351 311 600h-213l-10 -47h-98l31 145h447z" />
    <glyph glyph-name="eight" unicode="8" horiz-adv-x="551" 
d="M552 543q0 -52 -31.5 -100.5t-78.5 -75.5q28 -15 46.5 -46t18.5 -63q0 -119 -86 -195q-81 -70 -197 -70q-86 0 -138 44q-55 45 -55 122q0 65 37.5 123t99.5 85q-53 40 -53 111q0 97 83 164q77 62 177 62q69 0 121 -44q56 -46 56 -117zM447 525q0 37 -27 59.5t-66 22.5
q-52 0 -94.5 -35.5t-42.5 -86.5q0 -78 95 -78q56 0 95.5 32t39.5 86zM403 235q0 43 -29.5 67.5t-78.5 24.5q-64 0 -111.5 -41t-47.5 -104q0 -42 31 -66.5t77 -24.5q63 0 110.5 41t48.5 103z" />
    <glyph glyph-name="nine" unicode="9" horiz-adv-x="549" 
d="M558 520q0 -147 -116 -302q-110 -148 -282 -248l-49 62q179 116 266 247q-54 -34 -119 -34q-74 0 -124 53t-50 129q0 124 77.5 200.5t205.5 76.5q89 0 140 -50.5t51 -133.5zM455 501q1 45 -30.5 75.5t-78.5 30.5q-64 0 -111 -48t-47 -112q0 -46 26.5 -75t75.5 -29
q68 0 116.5 45t48.5 113z" />
    <glyph glyph-name="colon" unicode=":" horiz-adv-x="253" 
d="M155 290q-22 0 -36.5 14t-14.5 35q0 27 21 47.5t48 20.5q22 0 36 -14.5t14 -35.5q0 -26 -21 -46.5t-47 -20.5zM90 -8q-22 0 -36 14t-14 35q0 26 21 46.5t48 20.5q22 0 36 -14t14 -35q0 -27 -21 -47t-48 -20z" />
    <glyph glyph-name="semicolon" unicode=";" horiz-adv-x="272" 
d="M174 290q-22 0 -36.5 14t-14.5 35q0 27 21 47.5t48 20.5q22 0 36 -14.5t14 -35.5q0 -26 -21 -46.5t-47 -20.5zM189 51l-12 -51l-110 -135h-42l48 195q5 21 24 35t42 14q22 0 37 -13.5t15 -32.5q0 -6 -2 -12z" />
    <glyph glyph-name="less" unicode="&#x3c;" horiz-adv-x="530" 
d="M577 698l-351 -349l203 -349h-133l-203 349l351 349h133z" />
    <glyph glyph-name="equal" unicode="=" horiz-adv-x="583" 
d="M553 384l-19 -84h-433l19 84h433zM512 201l-19 -85h-433l19 85h433z" />
    <glyph glyph-name="greater" unicode="&#x3e;" horiz-adv-x="492" 
d="M465 349l-351 -349h-133l351 349l-203 349h134z" />
    <glyph glyph-name="question" unicode="?" horiz-adv-x="491" 
d="M516 558q0 -122 -126 -187q-43 -23 -60 -39q-21 -21 -31 -58l-26 -100h-79q3 37 12 101q14 66 52 107q25 28 73 54q42 22 59 40q24 26 24 61q0 34 -24 52.5t-65 18.5q-47 0 -83 -27q-40 -31 -53 -89h-96q22 103 95 161q68 53 158 53q73 0 121.5 -40t48.5 -108zM195 -9
q-23 0 -38 14.5t-15 36.5q0 31 25 55t56 24q23 0 37.5 -14.5t14.5 -37.5q0 -30 -24.5 -54t-55.5 -24z" />
    <glyph glyph-name="at" unicode="@" horiz-adv-x="708" 
d="M708 492q1 -105 -59 -224l-77 -273l-108 7l33 110q-38 -60 -82.5 -92.5t-81.5 -32.5q-62 0 -98 39.5t-36 103.5q-1 121 99 244q105 129 225 129q45 0 77 -24q0 51 -22 82q-25 36 -73 36q-80 0 -167 -75q-78 -68 -132.5 -169.5t-54.5 -182.5q0 -57 30 -96l-75 -84
q-63 65 -63 182q0 109 71 234t177 207q115 87 225 87q90 0 143 -61q49 -58 49 -147zM547 344q0 55 -35 55q-69 0 -139 -95q-65 -90 -65 -162q0 -52 35 -51q68 0 138 93q66 88 66 160z" />
    <glyph glyph-name="A" unicode="A" horiz-adv-x="718" 
d="M668 0h-108l-36 196h-270l-120 -196h-114l425 698h95zM505 297l-44 240l-146 -240h190z" />
    <glyph glyph-name="B" unicode="B" horiz-adv-x="647" 
d="M639 551q0 -128 -97 -190q58 -32 58 -107q0 -126 -84 -193q-77 -61 -203 -61h-271l148 698h250q90 0 142 -34q57 -38 57 -113zM530 529q0 42 -38 57q-24 9 -74 9h-144l-41 -194h143q154 0 154 128zM492 234q0 45 -40 60q-26 10 -79 10h-161l-42 -201h154q168 0 168 131z
" />
    <glyph glyph-name="C" unicode="C" horiz-adv-x="609" 
d="M642 574l-87 -63q-30 48 -55 67q-33 25 -85 25q-117 0 -189 -122q-62 -106 -62 -234q0 -152 135 -152q50 0 96 30q24 16 82 71l71 -72q-65 -69 -121 -99q-63 -34 -142 -34q-117 0 -176 70q-52 61 -52 169q0 189 86 321q101 156 286 156q77 0 129 -37q40 -28 84 -96z" />
    <glyph glyph-name="D" unicode="D" horiz-adv-x="663" 
d="M666 522q0 -54 -25 -173q-21 -100 -40 -152q-42 -116 -131 -161q-71 -36 -198 -36h-224l148 698h221q122 0 178 -32q71 -40 71 -144zM560 499q0 52 -34 73q-37 23 -131 23h-115l-104 -491h111q97 0 145 24q44 22 66 79q14 34 37 142q25 117 25 150z" />
    <glyph glyph-name="E" unicode="E" horiz-adv-x="607" 
d="M654 698l-22 -103h-358l-40 -188h313l-20 -96h-314l-44 -208h359l-22 -103h-464l148 698h464z" />
    <glyph glyph-name="F" unicode="F" horiz-adv-x="589" 
d="M647 698l-22 -103h-349l-40 -188h313l-21 -96h-313l-66 -311h-105l148 698h455z" />
    <glyph glyph-name="G" unicode="G" horiz-adv-x="658" 
d="M649 574l-89 -63q-29 47 -57 67q-35 25 -87 25q-117 0 -187 -122q-60 -105 -60 -234q0 -152 135 -152q75 0 130 60q49 53 66 132h-175l22 104h275l-82 -391h-98l16 74q-66 -83 -168 -83q-117 0 -176 70q-52 61 -52 169q0 188 88 321q103 156 288 156q77 0 128 -37
q39 -28 83 -96z" />
    <glyph glyph-name="H" unicode="H" horiz-adv-x="693" 
d="M721 698l-148 -698h-106l66 311h-312l-66 -311h-106l148 698h106l-61 -287h312l61 287h106z" />
    <glyph glyph-name="I" unicode="I" horiz-adv-x="296" 
d="M311 698l-148 -698h-109l148 698h109z" />
    <glyph glyph-name="J" unicode="J" horiz-adv-x="559" 
d="M575 698l-102 -477q-24 -115 -86 -170q-66 -58 -184 -58q-92 0 -139 48q-42 42 -59 133l100 24q14 -57 34 -78q23 -25 75 -25q68 0 103.5 29t50.5 97l101 477h106z" />
    <glyph glyph-name="K" unicode="K" 
d="M665 698l-329 -347l115 -177q24 -36 48 -51q31 -20 79 -20v-103q-79 0 -133 33q-45 27 -83 84l-141 232l-74 -349h-106l148 698h106l-72 -341l319 341h123z" />
    <glyph glyph-name="L" unicode="L" horiz-adv-x="526" 
d="M486 103l-22 -103h-423l148 698h105l-126 -595h318z" />
    <glyph glyph-name="M" unicode="M" horiz-adv-x="787" 
d="M798 698l-148 -698h-107l84 394l-232 -394h-89l-64 394l-83 -394h-107l148 698h95l87 -533l314 533h102z" />
    <glyph glyph-name="N" unicode="N" horiz-adv-x="679" 
d="M691 698l-149 -698h-93l-199 483l-102 -483h-106l148 698h85l204 -497l106 497h106z" />
    <glyph glyph-name="O" unicode="O" 
d="M657 468q0 -191 -84 -321q-101 -156 -292 -156q-118 0 -176 70q-51 61 -51 169q0 197 87 326q102 151 291 151q117 0 175 -70q50 -61 50 -169zM550 451q0 152 -140 152q-122 0 -191 -123q-57 -101 -57 -234q0 -151 138 -151q121 0 191 122q59 102 59 234z" />
    <glyph glyph-name="P" unicode="P" horiz-adv-x="642" 
d="M664 549q1 -125 -75 -194t-213 -69h-165l-61 -286h-106l148 698h267q205 0 205 -149zM556 524q0 45 -41 61q-25 10 -78 10h-161l-44 -211h160q73 0 116 33q48 37 48 107z" />
    <glyph glyph-name="Q" unicode="Q" horiz-adv-x="665" 
d="M657 468q0 -128 -41 -236q-48 -122 -139 -184l3 -4q21 -30 54 -39q19 -5 66 -5v-95q-145 0 -201 80l-14 20q-49 -14 -105 -14q-118 0 -175 70q-51 61 -51 169q0 197 87 326q102 151 291 151q117 0 175 -70q50 -61 50 -169zM550 451q0 152 -140 152q-122 0 -191 -123
q-57 -101 -57 -234q0 -151 140 -151q9 0 19 1l-70 99h124l44 -63q64 47 100 143q31 84 31 176z" />
    <glyph glyph-name="R" unicode="R" horiz-adv-x="642" 
d="M643 545q0 -88 -56.5 -157t-143.5 -81l59 -143q13 -34 26 -45q19 -16 63 -16l1 -103q-80 0 -125 30t-71 96l-43 121q-17 48 -59 48h-82l-63 -295h-106l148 698h250q91 0 144 -36q58 -40 58 -117zM530 523q0 72 -111 72h-144l-43 -203h144q69 0 109 30q45 34 45 101z" />
    <glyph glyph-name="S" unicode="S" horiz-adv-x="574" 
d="M611 535l-99 -41q-32 57 -53 75q-35 30 -99 30q-56 0 -96 -20q-52 -26 -52 -76q0 -43 90 -70q148 -43 166 -51q89 -44 89 -131q0 -119 -85 -190.5t-222 -71.5q-235 0 -235 226l108 18q0 -79 36 -110q33 -30 113 -30q65 0 116 32q60 38 60 99q0 54 -89 82q-84 25 -167 50
q-89 39 -89 119q0 115 83 175q74 53 196 53q92 0 148 -48q40 -36 81 -120z" />
    <glyph glyph-name="T" unicode="T" horiz-adv-x="549" 
d="M615 698l-22 -103h-209l-126 -595h-106l126 595h-209l22 103h524z" />
    <glyph glyph-name="U" unicode="U" horiz-adv-x="639" 
d="M682 698l-85 -402q-32 -148 -97 -218q-79 -87 -230 -87q-210 0 -210 198q0 48 13 107l85 402h106l-85 -402q-12 -53 -12 -88q0 -113 125 -113q92 0 140 58q38 46 59 144l85 401h106z" />
    <glyph glyph-name="V" unicode="V" horiz-adv-x="607" 
d="M672 698l-379 -698h-93l-82 698h112l55 -520l276 520h111z" />
    <glyph glyph-name="W" unicode="W" horiz-adv-x="827" 
d="M891 698l-319 -698h-96l-19 465l-218 -465h-93l-25 698h110l14 -462l217 462h88l21 -462l210 462h110z" />
    <glyph glyph-name="X" unicode="X" horiz-adv-x="662" 
d="M739 698l-294 -339l159 -359h-126l-115 268l-229 -268h-126l311 359l-150 339h126l106 -250l212 250h126z" />
    <glyph glyph-name="Y" unicode="Y" horiz-adv-x="580" 
d="M668 698l-331 -465l-50 -233h-106l50 235l-134 463h118l95 -335l240 335h118z" />
    <glyph glyph-name="Z" unicode="Z" horiz-adv-x="598" 
d="M648 697l-19 -87l-449 -500q26 -1 87 -9t89 -8q60 0 123 23l39 -97q-82 -30 -162 -30q-29 0 -94 8.5t-94 8.5q-60 0 -123 -23l-34 86l471 525h-314l23 103h457z" />
    <glyph glyph-name="bracketleft" unicode="[" horiz-adv-x="344" 
d="M404 774l-21 -96h-90l-138 -658h91l-20 -96h-196l178 850h196z" />
    <glyph glyph-name="backslash" unicode="\" horiz-adv-x="362" 
d="M322 -76h-103l-119 850h103z" />
    <glyph glyph-name="bracketright" unicode="]" horiz-adv-x="344" 
d="M364 774l-178 -850h-196l20 96h91l137 658h-90l20 96h196z" />
    <glyph glyph-name="asciicircum" unicode="^" horiz-adv-x="586" 
d="M556 412l-97 -45l-88 211l-187 -209l-84 50l250 279h86z" />
    <glyph glyph-name="underscore" unicode="_" horiz-adv-x="535" 
d="M485 -76l-24 -79h-541l24 79h541z" />
    <glyph glyph-name="grave" unicode="`" horiz-adv-x="293" 
d="M293 545h-76l-97 146h108z" />
    <glyph glyph-name="a" unicode="a" horiz-adv-x="493" 
d="M483 445l-85 -382l4 -50l-102 -29l-5 73l22 82q-83 -147 -151 -147q-126 0 -126 166q0 121 85 223q89 109 206 109q64 0 152 -45zM367 396q-15 3 -33 3q-78 0 -138 -88q-53 -79 -53 -161q0 -63 33 -63q55 0 118 119q52 98 73 190z" />
    <glyph glyph-name="b" unicode="b" horiz-adv-x="499" 
d="M479 321q0 -119 -84 -220q-88 -107 -204 -109q-63 0 -151 46l142 660h104l-75 -350q26 61 68.5 103.5t81.5 42.5q62 0 93 -58q25 -46 25 -115zM378 331q0 68 -31 68q-61 0 -120 -112q-45 -86 -70 -193q15 -4 33 -4q72 0 132 85q56 78 56 156z" />
    <glyph glyph-name="c" unicode="c" horiz-adv-x="456" 
d="M466 382l-83 -48q-34 56 -78 56q-70 0 -114 -75q-38 -65 -38 -142q0 -83 61 -83q27 0 46 10q26 12 68 52l70 -68q-57 -53 -96 -72.5t-88 -19.5q-85 0 -127 52q-37 45 -37 124q0 123 65 216q72 105 190 105q106 0 161 -107z" />
    <glyph glyph-name="d" unicode="d" horiz-adv-x="496" 
d="M526 698l-136 -628l5 -57l-103 -29l-6 75l21 79q-28 -58 -69 -99q-45 -47 -84 -47q-65 0 -97 55q-27 45 -27 117q0 117 83 220q88 109 200 109q31 0 61 -9l47 214h105zM355 396q-16 4 -33 4q-76 0 -136 -85q-55 -77 -55 -158q0 -63 26 -63q67 0 128 113q48 88 70 189z
" />
    <glyph glyph-name="e" unicode="e" horiz-adv-x="454" 
d="M454 372q0 -81 -118 -126q-81 -30 -185 -36q-5 -26 -5 -42q0 -78 66 -78q28 0 48 10q27 14 66 54l69 -70q-54 -54 -93.5 -73t-89.5 -19q-81 0 -125 50q-42 47 -42 129q0 121 65 214q73 104 190 104q60 0 103 -28q51 -33 51 -89zM351 372q0 19 -51 19q-81 0 -124 -97
q53 8 105 25q70 25 70 53z" />
    <glyph glyph-name="f" unicode="f" horiz-adv-x="317" 
d="M397 698l-22 -103q-62 0 -94 -28q-28 -25 -41 -82h98l-20 -92h-98l-88 -407q-23 -111 -84.5 -160t-177.5 -49l22 103q68 0 99 30q26 26 39 88l85 395h-45l20 92h45q26 115 84.5 164t177.5 49z" />
    <glyph glyph-name="g" unicode="g" horiz-adv-x="524" 
d="M499 443l-99 -462q-43 -201 -219 -201q-65 0 -146 41l46 88q55 -27 100 -27q61 0 90 46q16 26 34 101q4 5 26 109q-28 -56 -65 -97q-45 -51 -81 -51q-68 0 -101 52q-26 42 -26 111q0 51 13 93q31 97 94 162q78 80 182 81q64 1 152 -46zM384 395q-15 4 -33 4
q-75 0 -135 -84q-56 -78 -56 -159q0 -69 29 -69q66 0 128 124q41 83 67 184z" />
    <glyph glyph-name="h" unicode="h" horiz-adv-x="534" 
d="M499 362q0 -45 -8 -82l-62 -280h-105l66 301q8 37 8 53q-1 35 -29 35q-74 0 -135 -110q-47 -83 -70 -191l-19 -88h-105l151 698h105l-75 -351q29 70 73 109q41 37 82 37q123 0 123 -131z" />
    <glyph glyph-name="i" unicode="i" horiz-adv-x="258" 
d="M278 643q0 -27 -20 -47.5t-47 -20.5q-23 0 -38 16t-15 39q0 27 20 47.5t47 20.5q24 0 38.5 -16t14.5 -39zM237 485l-98 -485h-99l97 485h100z" />
    <glyph glyph-name="j" unicode="j" horiz-adv-x="292" 
d="M312 641q0 -27 -20 -47.5t-47 -20.5q-24 0 -39 16t-15 39q0 27 20.5 47.5t46.5 20.5q24 0 39 -16t15 -39zM272 484l-104 -494q-23 -111 -83.5 -160.5t-174.5 -49.5l22 103q66 0 97 31q25 25 38 88l102 482h103z" />
    <glyph glyph-name="k" unicode="k" horiz-adv-x="482" 
d="M482 485l-176 -217l56 -109q16 -31 38.5 -44.5t65.5 -13.5v-101q-141 0 -192 107l-75 159l-57 -266h-102l148 698h103l-91 -424l168 211h114z" />
    <glyph glyph-name="l" unicode="l" horiz-adv-x="239" 
d="M259 698l-113 -573q-5 -24 36 -24l-20 -101q-116 0 -116 95q0 19 5 42l110 561h98z" />
    <glyph glyph-name="m" unicode="m" horiz-adv-x="806" 
d="M767 286l-65 -286h-108l71 307q7 29 7 45q0 39 -31 39q-72 0 -126 -100q-36 -66 -59 -164q-9 -40 -29 -127h-108l71 307q7 30 7 47q0 37 -27 37q-68 0 -123 -91q-40 -67 -64 -162l-36 -138h-107l111 485h107l-31 -138q24 52 64 93q50 50 97 50q52 0 82 -35
q32 -38 27 -108q22 53 60 94q45 49 91 49q128 -1 128 -132q0 -33 -9 -72z" />
    <glyph glyph-name="n" unicode="n" horiz-adv-x="514" 
d="M476 285l-64 -285h-106l69 306q5 23 5 41q0 44 -32 44q-110 0 -167 -217l-46 -174h-105l109 485h105l-34 -137q71 141 162 141q112 0 112 -132q0 -34 -8 -72z" />
    <glyph glyph-name="o" unicode="o" horiz-adv-x="485" 
d="M465 332q0 -143 -61 -234q-71 -107 -210 -107q-164 0 -163 166q1 141 61 231q72 106 209 106q163 0 164 -162zM361 315q0 43 -18 61.5t-63 18.5q-76 0 -115 -75q-30 -60 -31 -148q0 -41 14 -59q19 -24 67 -24q78 0 116 77q31 60 30 149z" />
    <glyph glyph-name="p" unicode="p" horiz-adv-x="508" 
d="M485 318q0 -123 -81 -222q-85 -104 -202 -104q-31 0 -61 8l-44 -202h-105l149 687h105l-30 -137q26 60 69.5 101t82.5 41q117 0 117 -172zM383 317q0 71 -27 71q-68 0 -129 -116q-47 -89 -67 -188q15 -4 33 -4q75 0 135 83q55 76 55 154z" />
    <glyph glyph-name="q" unicode="q" horiz-adv-x="505" 
d="M480 445l-139 -645h-104l73 337q-29 -60 -68 -101q-43 -45 -81 -45q-121 0 -121 171q0 120 84 222q88 107 205 107q64 0 151 -46zM364 396q-15 3 -32 3q-76 0 -136 -90q-54 -82 -54 -161q0 -63 29 -63q62 0 127 129q48 95 66 182z" />
    <glyph glyph-name="r" unicode="r" horiz-adv-x="414" 
d="M434 467l-23 -105q-34 31 -60 31q-70 0 -130 -116q-43 -83 -68 -192l-18 -85h-105l108 484h104l-32 -136q61 141 145 141q34 0 79 -22z" />
    <glyph glyph-name="s" unicode="s" horiz-adv-x="423" 
d="M418 371l-93 -33q-21 59 -76 59q-25 0 -44.5 -15t-19.5 -32q0 -27 51 -49q77 -33 94 -45q50 -37 50 -102q0 -73 -57 -118t-135 -45q-140 0 -168 153l98 25q10 -81 82 -80q30 0 53.5 18.5t23.5 46.5q0 27 -50 48q-79 32 -93 42q-50 33 -50 92q0 72 54 114q50 40 127 40
q107 0 153 -119z" />
    <glyph glyph-name="t" unicode="t" horiz-adv-x="311" 
d="M325 485l-16 -83h-69l-57 -278q-5 -23 19 -23h34l-20 -101h-39q-95 0 -95 97q0 19 4 39l54 266h-60l16 83h61l29 141h100l-30 -141h69z" />
    <glyph glyph-name="u" unicode="u" horiz-adv-x="504" 
d="M504 485l-109 -485h-105l33 139q-22 -48 -61 -91q-48 -53 -90 -53q-132 0 -125 131q1 29 11 73l64 286h105l-68 -307q-6 -27 -6 -46q0 -38 31 -38q122 0 215 391h105z" />
    <glyph glyph-name="v" unicode="v" horiz-adv-x="505" 
d="M535 494l-294 -494h-88l-83 494h106l53 -325l192 325h114z" />
    <glyph glyph-name="w" unicode="w" horiz-adv-x="798" 
d="M818 494l-269 -494h-91l-51 312l-185 -312h-90l-57 494h106l34 -312l182 312h89l49 -313l169 313h114z" />
    <glyph glyph-name="x" unicode="x" horiz-adv-x="515" 
d="M545 494l-219 -241l123 -253h-125l-80 165l-149 -165h-125l231 253l-117 241h125l72 -156l139 156h125z" />
    <glyph glyph-name="y" unicode="y" horiz-adv-x="515" 
d="M545 484l-363 -600q-63 -105 -168 -104h-54l23 102q53 -1 65 3q26 8 47 43l43 70q19 33 11 86l-67 400h108l47 -325l192 325h116z" />
    <glyph glyph-name="z" unicode="z" horiz-adv-x="498" 
d="M508 484l-20 -86l-308 -295q11 -1 55 -9q34 -6 55 -6q51 0 100 21l45 -86q-76 -32 -145 -32q-24 0 -72 8t-72 8q-51 0 -98 -20l-43 79l329 320h-211l22 98h363z" />
    <glyph glyph-name="braceleft" unicode="{" horiz-adv-x="410" 
d="M444 795l-20 -93q-62 0 -94 -31q-28 -28 -42 -92q-3 -17 -1 -53.5t-2 -52.5q-17 -79 -77 -124q29 -31 29 -84q0 -19 -4 -37.5t-22 -56t-22 -54.5q-5 -25 -5 -43q0 -77 91 -76l-20 -94q-179 0 -179 144q0 27 7 58q4 19 22.5 60.5t22.5 59.5t4 31q0 29 -19.5 40t-61.5 11
l18 82q55 0 82 23t31 77q-1 32 4 96q44 209 258 209z" />
    <glyph glyph-name="bar" unicode="|" horiz-adv-x="291" 
d="M286 774l-181 -850h-100l180 850h101z" />
    <glyph glyph-name="braceright" unicode="}" horiz-adv-x="410" 
d="M358 390l-17 -82q-58 0 -84.5 -24t-29.5 -80q1 -33 -4 -98q-43 -202 -258 -202l20 94q111 -1 136 119q4 17 1.5 54.5t1.5 54.5q17 79 78 123q-29 32 -29 85q0 19 4 39q3 16 20.5 52.5t21.5 53.5q6 30 6 51q0 72 -90 72l20 93q177 0 177 -143q0 -30 -7 -66q-4 -17 -22 -57
t-21.5 -57t-3.5 -29q0 -53 80 -53z" />
    <glyph glyph-name="asciitilde" unicode="~" horiz-adv-x="533" 
d="M484 295q-80 -81 -155 -81q-39 0 -83 32t-67 32q-25 0 -72 -52l-58 66q82 83 153 83q40 0 84 -32t66 -32q24 0 76 52z" />
    <glyph glyph-name="Adieresis" unicode="&#xc4;" horiz-adv-x="723" 
d="M621 775q-22 0 -36 14t-14 35q0 27 20.5 47.5t47.5 20.5q22 0 36 -14.5t14 -35.5q0 -26 -20.5 -46.5t-47.5 -20.5zM414 775q-22 0 -36 14t-14 35q0 27 20.5 47.5t47.5 20.5q22 0 36 -14.5t14 -35.5q0 -26 -21 -46.5t-47 -20.5zM668 0h-108l-36 196h-270l-120 -196h-114
l425 698h95zM505 297l-44 240l-146 -240h190z" />
    <glyph glyph-name="Aring" unicode="&#xc5;" horiz-adv-x="718" 
d="M508 745q-47 0 -76.5 29.5t-29.5 73.5q0 58 47 104t106 46q47 0 76.5 -29.5t29.5 -74.5q0 -58 -47 -103.5t-106 -45.5zM668 0h-108l-36 196h-270l-120 -196h-114l425 698h95zM584 885q0 37 -39 37q-25 0 -45.5 -20t-20.5 -45q0 -37 39 -37q25 0 45.5 20t20.5 45zM505 297
l-44 240l-146 -240h190z" />
    <glyph glyph-name="Ccedilla" unicode="&#xc7;" horiz-adv-x="611" 
d="M644 574l-89 -63q-29 47 -57 67q-35 25 -87 25q-117 0 -187 -122q-60 -105 -60 -234q0 -152 139 -152q50 0 94 30q19 13 80 71l71 -72q-102 -107 -203 -127l11 -54l-103 -139h-140l135 157l-7 33q-184 22 -184 236q0 188 88 321q103 156 288 156q77 0 128 -37
q39 -28 83 -96z" />
    <glyph glyph-name="Eacute" unicode="&#xc9;" horiz-adv-x="607" 
d="M595 921l-156 -146h-85l123 146h118zM654 698l-22 -103h-358l-40 -188h313l-20 -96h-314l-44 -208h359l-22 -103h-464l148 698h464z" />
    <glyph glyph-name="Ntilde" unicode="&#xd1;" horiz-adv-x="679" 
d="M631 815l-22 -19q-48 -40 -98 -40q-28 0 -59 12q-51 19 -55 20q-8 3 -16 3q-14 0 -27 -10.5t-25 -20.5l-60 49q69 58 123 58q35 0 81 -21q30 -13 46 -13q14 0 51 31zM691 698l-149 -698h-97l-195 483l-102 -483h-106l148 698h97l195 -483l103 483h106z" />
    <glyph glyph-name="Odieresis" unicode="&#xd6;" 
d="M538 775q-22 0 -36 14t-14 35q0 27 21 47.5t47 20.5q22 0 36 -14.5t14 -35.5q0 -26 -20.5 -46.5t-47.5 -20.5zM331 775q-22 0 -36 14t-14 35q0 27 21 47.5t47 20.5q22 0 36 -14.5t14 -35.5q0 -26 -20.5 -46.5t-47.5 -20.5zM657 468q0 -190 -84 -321q-102 -156 -293 -156
q-118 0 -175 70q-51 61 -51 169q0 197 87 326q102 151 291 151q117 0 175 -70q50 -61 50 -169zM550 451q0 152 -140 152q-122 0 -191 -123q-57 -101 -57 -234q0 -151 140 -151q121 0 190 122q58 102 58 234z" />
    <glyph glyph-name="Udieresis" unicode="&#xdc;" horiz-adv-x="639" 
d="M541 775q-22 0 -36 14t-14 35q0 27 21 47.5t47 20.5q22 0 36 -14.5t14 -35.5q0 -26 -20.5 -46.5t-47.5 -20.5zM334 775q-22 0 -36 14t-14 35q0 27 21 47.5t47 20.5q22 0 36 -14.5t14 -35.5q0 -26 -20.5 -46.5t-47.5 -20.5zM682 698l-85 -402q-32 -148 -96 -218
q-80 -87 -231 -87q-210 0 -210 198q0 48 13 107l85 402h106l-85 -402q-12 -53 -12 -88q0 -113 125 -113q92 0 140 58q38 46 59 144l85 401h106z" />
    <glyph glyph-name="aacute" unicode="&#xe1;" horiz-adv-x="498" 
d="M488 691l-157 -146h-85l123 146h119zM483 445l-85 -382l4 -50l-102 -29l-5 73l22 82q-83 -147 -151 -147q-126 0 -126 166q0 121 85 223q89 109 206 109q64 0 152 -45zM367 396q-15 3 -33 3q-78 0 -138 -88q-53 -79 -53 -161q0 -63 33 -63q55 0 118 119q52 98 73 190z
" />
    <glyph glyph-name="agrave" unicode="&#xe0;" horiz-adv-x="493" 
d="M380 545h-75l-97 146h107zM483 445l-85 -382l4 -50l-102 -29l-5 73l22 82q-83 -147 -151 -147q-126 0 -126 166q0 121 85 223q89 109 206 109q64 0 152 -45zM367 396q-15 3 -33 3q-78 0 -138 -88q-53 -79 -53 -161q0 -63 33 -63q55 0 118 119q52 98 73 190z" />
    <glyph glyph-name="acircumflex" unicode="&#xe2;" horiz-adv-x="502" 
d="M492 528h-103l-36 84l-79 -84h-119l158 156h99zM483 445l-85 -382l4 -50l-102 -29l-5 73l22 82q-83 -147 -151 -147q-126 0 -126 166q0 121 85 223q89 109 206 109q64 0 152 -45zM367 396q-15 3 -33 3q-78 0 -138 -88q-53 -79 -53 -161q0 -63 33 -63q55 0 118 119
q52 98 73 190z" />
    <glyph glyph-name="adieresis" unicode="&#xe4;" horiz-adv-x="487" 
d="M432 537q-22 0 -36 14.5t-14 34.5q0 27 21 47.5t48 20.5q22 0 36 -14.5t14 -35.5q0 -26 -21 -46.5t-48 -20.5zM225 537q-22 0 -36 14.5t-14 34.5q0 27 21 47.5t48 20.5q22 0 36 -14.5t14 -35.5q0 -26 -21 -46.5t-48 -20.5zM483 445l-85 -382l4 -50l-102 -29l-5 73l22 82
q-83 -147 -151 -147q-126 0 -126 166q0 121 85 223q89 109 206 109q64 0 152 -45zM367 396q-15 3 -33 3q-78 0 -138 -88q-53 -79 -53 -161q0 -63 33 -63q55 0 118 119q52 98 73 190z" />
    <glyph glyph-name="atilde" unicode="&#xe3;" horiz-adv-x="487" 
d="M517 594l-21 -18q-48 -40 -99 -40q-27 0 -58 11q-51 20 -55 21q-9 2 -16 2q-14 0 -27 -10t-25 -21l-60 50q69 57 123 57q35 0 81 -20q30 -14 46 -14q14 0 51 31zM483 445l-85 -382l4 -50l-102 -29l-5 73l22 82q-83 -147 -151 -147q-126 0 -126 166q0 121 85 223
q89 109 206 109q64 0 152 -45zM367 396q-15 3 -33 3q-78 0 -138 -88q-53 -79 -53 -161q0 -63 33 -63q55 0 118 119q52 98 73 190z" />
    <glyph glyph-name="aring" unicode="&#xe5;" horiz-adv-x="485" 
d="M338 527q-46 0 -75.5 29.5t-29.5 74.5q0 58 47 103.5t106 45.5q46 0 75.5 -29.5t29.5 -73.5q0 -58 -47 -104t-106 -46zM483 445l-85 -382l4 -50l-102 -29l-5 73l22 82q-83 -147 -151 -147q-126 0 -126 166q0 121 85 223q89 109 206 109q64 0 152 -45zM415 668
q0 37 -39 37q-25 0 -45.5 -20t-20.5 -45q0 -37 38 -37q25 0 46 20t21 45zM367 396q-15 3 -33 3q-78 0 -138 -88q-53 -79 -53 -161q0 -63 33 -63q55 0 118 119q52 98 73 190z" />
    <glyph glyph-name="ccedilla" unicode="&#xe7;" horiz-adv-x="456" 
d="M466 382l-83 -48q-34 56 -78 56q-70 0 -114 -75q-38 -65 -38 -142q0 -83 61 -83q27 0 46 10q26 12 68 52l70 -68q-72 -68 -123 -84l14 -60l-101 -136h-138l132 154l-9 37q-123 22 -123 173q0 123 65 216q72 105 190 105q106 0 161 -107z" />
    <glyph glyph-name="eacute" unicode="&#xe9;" horiz-adv-x="456" 
d="M456 691l-156 -146h-85l123 146h118zM454 372q0 -81 -118 -126q-81 -31 -185 -36q-5 -26 -5 -42q0 -78 66 -78q28 0 48 10q27 14 66 54l69 -70q-54 -54 -93.5 -73t-89.5 -19q-81 0 -125 50q-42 47 -42 129q0 121 65 214q73 104 190 104q60 0 103 -28q51 -33 51 -89z
M351 372q0 19 -51 19q-81 0 -124 -97q53 8 105 25q70 25 70 53z" />
    <glyph glyph-name="egrave" unicode="&#xe8;" horiz-adv-x="454" 
d="M366 545h-75l-97 146h107zM454 372q0 -81 -118 -126q-81 -31 -185 -36q-5 -26 -5 -42q0 -78 66 -78q28 0 48 10q27 14 66 54l69 -70q-54 -54 -93.5 -73t-89.5 -19q-81 0 -125 50q-42 47 -42 129q0 121 65 214q73 104 190 104q60 0 103 -28q51 -33 51 -89zM351 372
q0 19 -51 19q-81 0 -124 -97q53 8 105 25q70 25 70 53z" />
    <glyph glyph-name="ecircumflex" unicode="&#xea;" horiz-adv-x="463" 
d="M463 528h-103l-36 84l-79 -84h-119l158 156h98zM454 372q0 -81 -118 -126q-81 -31 -185 -36q-5 -26 -5 -42q0 -78 66 -78q28 0 48 10q27 14 66 54l69 -70q-54 -54 -93.5 -73t-89.5 -19q-81 0 -125 50q-42 47 -42 129q0 121 65 214q73 104 190 104q60 0 103 -28
q51 -33 51 -89zM351 372q0 19 -51 19q-81 0 -124 -97q53 8 105 25q70 25 70 53z" />
    <glyph glyph-name="edieresis" unicode="&#xeb;" horiz-adv-x="493" 
d="M424 537q-22 0 -36 14.5t-14 34.5q0 27 21 47.5t48 20.5q22 0 36 -14.5t14 -35.5q0 -26 -21 -46.5t-48 -20.5zM217 537q-22 0 -36 14.5t-14 34.5q0 27 21 47.5t47 20.5q22 0 36.5 -14.5t14.5 -35.5q0 -26 -21 -46.5t-48 -20.5zM454 372q0 -81 -118 -126q-81 -31 -185 -36
q-5 -26 -5 -42q0 -78 66 -78q28 0 48 10q27 14 66 54l69 -70q-54 -54 -93.5 -73t-89.5 -19q-81 0 -125 50q-42 47 -42 129q0 121 65 214q73 104 190 104q60 0 103 -28q51 -33 51 -89zM351 372q0 19 -51 19q-81 0 -124 -97q53 8 105 25q70 25 70 53z" />
    <glyph glyph-name="iacute" unicode="&#xed;" horiz-adv-x="260" 
d="M350 691l-157 -146h-85l123 146h119zM237 485l-98 -485h-99l97 485h100z" />
    <glyph glyph-name="igrave" unicode="&#xec;" horiz-adv-x="257" 
d="M253 545h-76l-97 146h108zM237 485l-98 -485h-99l97 485h100z" />
    <glyph glyph-name="icircumflex" unicode="&#xee;" horiz-adv-x="261" 
d="M357 528h-103l-36 84l-79 -84h-119l158 156h99zM239 485l-97 -485h-100l98 485h99z" />
    <glyph glyph-name="idieresis" unicode="&#xef;" horiz-adv-x="257" 
d="M298 537q-22 0 -36 14.5t-14 34.5q0 27 21 47.5t48 20.5q22 0 36 -14.5t14 -35.5q0 -26 -21 -46.5t-48 -20.5zM91 537q-22 0 -36 14.5t-14 34.5q0 27 21 47.5t48 20.5q22 0 36 -14.5t14 -35.5q0 -26 -21 -46.5t-48 -20.5zM237 485l-98 -485h-99l97 485h100z" />
    <glyph glyph-name="ntilde" unicode="&#xf1;" horiz-adv-x="542" 
d="M512 594l-21 -18q-48 -40 -98 -40q-28 0 -59 11q-51 20 -55 21q-8 2 -16 2q-14 0 -27 -10t-25 -21l-60 50q69 57 123 57q35 0 81 -20q30 -14 46 -14q14 0 51 31zM476 285l-64 -285h-106l69 306q5 23 5 41q0 44 -32 44q-110 0 -167 -217l-46 -174h-105l109 485h105
l-34 -137q71 141 162 141q112 0 112 -132q0 -34 -8 -72z" />
    <glyph glyph-name="oacute" unicode="&#xf3;" horiz-adv-x="485" 
d="M448 691l-156 -146h-85l123 146h118zM465 332q0 -143 -61 -234q-71 -107 -210 -107q-164 0 -163 166q1 141 61 231q72 106 209 106q163 0 164 -162zM361 315q0 43 -18 61.5t-63 18.5q-76 0 -115 -75q-30 -60 -31 -148q0 -41 14 -59q19 -24 67 -24q78 0 116 77
q31 60 30 149z" />
    <glyph glyph-name="ograve" unicode="&#xf2;" horiz-adv-x="485" 
d="M375 545h-76l-97 146h108zM465 332q0 -143 -61 -234q-71 -107 -210 -107q-164 0 -163 166q1 141 61 231q72 106 209 106q163 0 164 -162zM361 315q0 43 -18 61.5t-63 18.5q-76 0 -115 -75q-30 -60 -31 -148q0 -41 14 -59q19 -24 67 -24q78 0 116 77q31 60 30 149z" />
    <glyph glyph-name="ocircumflex" unicode="&#xf4;" horiz-adv-x="491" 
d="M471 528h-103l-37 84l-78 -84h-119l158 156h98zM465 332q0 -143 -61 -234q-71 -107 -210 -107q-164 0 -163 166q1 141 61 231q72 106 209 106q163 0 164 -162zM361 315q0 43 -18 61.5t-63 18.5q-76 0 -115 -75q-30 -60 -31 -148q0 -41 14 -59q19 -24 67 -24q78 0 116 77
q31 60 30 149z" />
    <glyph glyph-name="odieresis" unicode="&#xf6;" horiz-adv-x="488" 
d="M423 537q-22 0 -36 14.5t-14 34.5q0 27 21 47.5t47 20.5q22 0 36.5 -14.5t14.5 -35.5q0 -26 -21 -46.5t-48 -20.5zM216 537q-22 0 -36 14.5t-14 34.5q0 27 21 47.5t47 20.5q22 0 36 -14.5t14 -35.5q0 -26 -20.5 -46.5t-47.5 -20.5zM465 332q0 -143 -61 -234
q-71 -107 -210 -107q-164 0 -163 166q1 141 61 231q72 106 209 106q163 0 164 -162zM361 315q0 43 -18 61.5t-63 18.5q-76 0 -115 -75q-30 -60 -31 -148q0 -41 14 -59q19 -24 67 -24q78 0 116 77q31 60 30 149z" />
    <glyph glyph-name="otilde" unicode="&#xf5;" horiz-adv-x="486" 
d="M490 594l-22 -18q-47 -40 -98 -40q-28 0 -59 11q-51 20 -54 21q-9 2 -16 2q-14 0 -27 -10t-25 -21l-60 50q68 57 123 57q35 0 81 -20q29 -14 46 -14q14 0 51 31zM465 332q0 -143 -61 -234q-71 -107 -210 -107q-164 0 -163 166q1 141 61 231q72 106 209 106
q163 0 164 -162zM361 315q0 43 -18 61.5t-63 18.5q-76 0 -115 -75q-30 -60 -31 -148q0 -41 14 -59q19 -24 67 -24q78 0 116 77q31 60 30 149z" />
    <glyph glyph-name="uacute" unicode="&#xfa;" horiz-adv-x="500" 
d="M444 691l-156 -146h-85l123 146h118zM500 485l-108 -485h-106l33 139q-24 -56 -67 -98q-46 -46 -84 -46q-121 0 -121 137q0 30 8 67l64 286h105l-68 -307q-6 -27 -6 -46q0 -38 30 -38q122 0 216 391h104z" />
    <glyph glyph-name="ugrave" unicode="&#xf9;" horiz-adv-x="500" 
d="M371 545h-76l-97 146h108zM500 485l-108 -485h-106l33 139q-24 -56 -67 -98q-46 -46 -84 -46q-121 0 -121 137q0 30 8 67l64 286h105l-68 -307q-6 -27 -6 -46q0 -38 30 -38q122 0 216 391h104z" />
    <glyph glyph-name="ucircumflex" unicode="&#xfb;" horiz-adv-x="500" 
d="M474 528h-103l-37 84l-78 -84h-119l158 156h98zM500 485l-108 -485h-106l33 139q-24 -56 -67 -98q-46 -46 -84 -46q-121 0 -121 137q0 30 8 67l64 286h105l-68 -307q-6 -27 -6 -46q0 -38 30 -38q122 0 216 391h104z" />
    <glyph glyph-name="udieresis" unicode="&#xfc;" horiz-adv-x="500" 
d="M419 537q-22 0 -36 14.5t-14 34.5q0 27 21 47.5t47 20.5q22 0 36 -14.5t14 -35.5q0 -26 -20.5 -46.5t-47.5 -20.5zM212 537q-22 0 -36 14.5t-14 34.5q0 27 20.5 47.5t47.5 20.5q22 0 36 -14.5t14 -35.5q0 -26 -21 -46.5t-47 -20.5zM500 485l-108 -485h-106l33 139
q-24 -56 -67 -98q-46 -46 -84 -46q-121 0 -121 137q0 30 8 67l64 286h105l-68 -307q-6 -27 -6 -46q0 -38 30 -38q122 0 216 391h104z" />
    <glyph glyph-name="dagger" unicode="&#x2020;" horiz-adv-x="501" 
d="M521 493l-20 -94h-162l-87 -399h-97l87 399h-162l20 94h162l45 205h97l-45 -205h162z" />
    <glyph glyph-name="degree" unicode="&#xb0;" horiz-adv-x="325" 
d="M218 555q-39 0 -63.5 25t-24.5 62q0 49 39 86.5t88 37.5q38 0 63 -24.5t25 -61.5q0 -49 -39 -87t-88 -38zM274 664q8 34 -26 34q-16 0 -30 -12t-18 -28q-7 -34 26 -34q16 0 30.5 12t17.5 28z" />
    <glyph glyph-name="cent" unicode="&#xa2;" horiz-adv-x="525" 
d="M515 395l-88 -53q-26 41 -56 49l-130 -300q71 0 135 60l72 -74q-94 -88 -205 -88q-23 0 -45 4l-34 -78l-91 20l40 92q-63 46 -63 139q1 135 66 227q74 105 202 105l33 77l92 -20l-31 -70q59 -20 103 -90zM269 385q-57 -21 -89 -89q-26 -58 -26 -127q0 -24 5 -37z" />
    <glyph glyph-name="sterling" unicode="&#xa3;" horiz-adv-x="584" 
d="M584 587l-90 -57q-29 43 -47 56q-23 16 -67 16q-52 0 -89 -35q-45 -44 -51 -132q-1 -16 -2 -34h137l-45 -103h-94q-4 -103 -46 -189q32 0 93 -9t91 -9q61 0 124 24l39 -98q-83 -31 -163 -31q-30 0 -88.5 9t-88.5 9q-60 0 -124 -23l-33 84q84 108 89 233h-85l45 103h41
q1 22 2 41q10 133 89 204q67 61 159 61q78 0 127 -35q36 -24 77 -85z" />
    <glyph glyph-name="section" unicode="&#xa7;" horiz-adv-x="562" 
d="M552 515l-99 -32q-20 107 -80 107q-41 0 -73 -27.5t-42 -73.5q-1 -6 -1 -12q0 -33 60 -54q91 -31 112 -45q60 -40 60 -121q0 -106 -80 -177q12 -25 12 -55q0 -90 -66 -157.5t-156 -67.5q-66 0 -112 45q-49 46 -67 133l99 33q26 -107 80 -107q41 0 73 27.5t42 73.5
q1 6 1 12q0 33 -60 53q-91 31 -112 45q-60 41 -60 122q0 106 80 177q-11 25 -11 55q0 90 65.5 157t155.5 67q136 0 179 -178zM385 257q0 36 -55 57q-45 15 -90 29q-52 -38 -53 -105q-1 -37 55 -58q45 -15 90 -29q53 39 53 106z" />
    <glyph glyph-name="bullet" unicode="&#x2022;" horiz-adv-x="464" 
d="M399 338q0 -69 -48.5 -118t-118.5 -49q-69 0 -118 49t-49 118t49 118t118 49q70 0 118.5 -49t48.5 -118z" />
    <glyph glyph-name="paragraph" unicode="&#xb6;" horiz-adv-x="600" 
d="M600 698l-182 -849h-107l156 732h-55l-157 -732h-107l93 434q-64 11 -102.5 57.5t-38.5 110.5q0 98 78 172.5t176 74.5h246z" />
    <glyph glyph-name="germandbls" unicode="&#xdf;" horiz-adv-x="529" 
d="M509 321q-1 -62 -22 -132q-23 -74 -59 -117q-70 -85 -225 -89l20 104q83 2 122 42q33 33 50 115q10 45 10 72q0 76 -88 76l-28 -1l19 94q37 0 60 28q18 23 18 48q0 34 -36 34q-53 0 -81 -35q-21 -26 -34 -83l-150 -702h-105l153 714q45 209 227 209q57 0 94 -37t37 -91
q0 -61 -43 -112q61 -44 61 -137z" />
    <glyph glyph-name="registered" unicode="&#xae;" horiz-adv-x="790" 
d="M745 348q0 -145 -102.5 -247.5t-247.5 -102.5t-247.5 102.5t-102.5 247.5t102.5 247.5t247.5 102.5t247.5 -102.5t102.5 -247.5zM666 348q0 112 -79.5 191.5t-191.5 79.5t-191 -79.5t-79 -191.5t79 -191.5t191 -79.5t191.5 79.5t79.5 191.5zM575 151h-98l-82 135
q-11 19 -24 19h-25v-154h-84v395h145q55 0 87 -20q51 -32 51 -101q0 -82 -70 -110zM461 425q0 22 -11.5 29.5t-42.5 7.5h-61v-73h61q29 0 41.5 7t12.5 29z" />
    <glyph glyph-name="copyright" unicode="&#xa9;" horiz-adv-x="790" 
d="M745 348q0 -145 -102.5 -247.5t-247.5 -102.5t-247.5 102.5t-102.5 247.5t102.5 247.5t247.5 102.5t247.5 -102.5t102.5 -247.5zM666 348q0 112 -79.5 191.5t-191.5 79.5t-191 -79.5t-79 -191.5t79 -191.5t191 -79.5t191.5 79.5t79.5 191.5zM540 473l-65 -54
q-26 32 -43 42q-11 7 -30 7q-39 0 -60 -32q-18 -28 -18 -88t18 -88q21 -31 60 -31q19 0 30 7q17 9 43 41l65 -54q-37 -44 -67.5 -61.5t-70.5 -17.5q-85 0 -131 71q-31 49 -31 133q0 85 31 133q46 71 131 71q40 0 70.5 -17.5t67.5 -61.5z" />
    <glyph glyph-name="trademark" unicode="&#x2122;" horiz-adv-x="654" 
d="M481 699l-45 -214h-48l22 101l-65 -101h-34l-22 100l-21 -100h-48l45 214h45l32 -146l94 146h45zM251 698l-9 -44h-62l-36 -169h-47l36 169h-62l9 44h171z" />
    <glyph glyph-name="acute" unicode="&#xb4;" horiz-adv-x="351" 
d="M371 691l-156 -146h-85l123 146h118z" />
    <glyph glyph-name="dieresis" unicode="&#xa8;" horiz-adv-x="486" 
d="M407 537q-22 0 -36 14.5t-14 34.5q0 27 21 47.5t48 20.5q22 0 36 -14.5t14 -35.5q0 -26 -21 -46.5t-48 -20.5zM200 537q-22 0 -36 14.5t-14 34.5q0 27 21 47.5t48 20.5q22 0 36 -14.5t14 -35.5q0 -26 -21 -46.5t-48 -20.5z" />
    <glyph glyph-name="AE" unicode="&#xc6;" horiz-adv-x="1036" 
d="M1076 698l-23 -103h-349l-40 -181h302l-23 -103h-303l-46 -208h349l-24 -103h-458l44 196h-216l-142 -196h-127l506 698h550zM595 595h-17l-216 -298h166z" />
    <glyph glyph-name="Oslash" unicode="&#xd8;" horiz-adv-x="704" 
d="M714 707l-79 -101q36 -58 36 -139q-1 -179 -91 -317q-104 -159 -274 -159q-72 0 -125 33l-25 -32h-126l80 103q-33 56 -33 132q-1 180 90 320q104 160 274 160q70 0 123 -31l24 31h126zM499 592q-25 11 -58 11q-122 0 -195 -131q-62 -110 -62 -243q0 -19 3 -36zM564 467
q0 23 -4 42l-314 -402q25 -12 60 -12q122 0 195 130q62 109 63 242z" />
    <glyph glyph-name="plusminus" unicode="&#xb1;" horiz-adv-x="536" 
d="M505 391l-20 -95h-165l-35 -164h-96l35 164h-165l20 95h165l35 163h96l-35 -163h165zM442 94l-20 -94h-426l20 94h426z" />
    <glyph glyph-name="yen" unicode="&#xa5;" horiz-adv-x="699" 
d="M738 698l-226 -318h86l-43 -101h-115l-30 -42h156l-42 -103h-138l-29 -134h-106l29 134l-160 -1l44 103h137l-12 43h-138l43 101h65l-92 318h119l96 -334l238 334h118z" />
    <glyph glyph-name="mu" unicode="&#xb5;" horiz-adv-x="581" 
d="M562 485l-106 -485h-105l3 14q-46 -19 -96 -19q-61 0 -105 25l-48 -216h-105l149 681h105l-58 -270q-8 -36 -8 -56q0 -63 80 -63q44 0 79 22t42 57l68 310h105z" />
    <glyph glyph-name="mu" unicode="&#x3bc;" horiz-adv-x="581" 
d="M562 485l-106 -485h-105l3 14q-46 -19 -96 -19q-61 0 -105 25l-48 -216h-105l149 681h105l-58 -270q-8 -36 -8 -56q0 -63 80 -63q44 0 79 22t42 57l68 310h105z" />
    <glyph glyph-name="ordfeminine" unicode="&#xaa;" horiz-adv-x="426" 
d="M434 579l-48 -219l4 -41l-87 -25l-2 21q-46 -21 -97 -21q-53 0 -88.5 30.5t-35.5 77.5q0 62 56 107q52 43 116 43h63q14 0 27 8l6 27q7 35 -44 35q-45 0 -78 -33l-82 27q64 91 171 91q52 0 86.5 -29t34.5 -75q0 -11 -2 -24zM292 276l-16 -75h-155l16 75h155zM322 469
q-9 -1 -17 -1h-63q-25 0 -48 -16q-26 -17 -26 -40q0 -34 46 -34q50 0 96 36z" />
    <glyph glyph-name="ordmasculine" unicode="&#xba;" horiz-adv-x="461" 
d="M449 569q0 -111 -55 -188q-62 -87 -169 -87q-143 0 -144 138q0 110 56 188q62 87 169 87q143 0 143 -138zM295 276l-16 -75h-155l16 75h155zM363 563q-1 59 -67 59q-65 0 -100 -62q-29 -52 -28 -122q1 -59 67 -59q64 0 100 62q29 52 28 122z" />
    <glyph glyph-name="ae" unicode="&#xe6;" horiz-adv-x="740" 
d="M740 370q0 -82 -124 -126q-83 -30 -189 -36q-3 -19 -3 -36q0 -78 67 -78q27 0 49.5 11.5t66.5 51.5l74 -69q-58 -53 -98.5 -72.5t-91.5 -19.5q-68 0 -113 38q-51 44 -52 122q-19 -53 -63 -102q-52 -58 -99 -58q-65 0 -98 53q-26 44 -26 115q0 121 88.5 221.5t208.5 101.5
q60 1 128 -31q53 31 117 31q60 0 105 -28q53 -32 53 -89zM635 368q0 20 -53 20q-85 0 -130 -95q42 5 101 23q82 26 82 52zM379 389q-16 3 -41 3q-78 0 -138 -80q-55 -75 -55 -155q-1 -62 30 -62q70 0 134 116q42 77 70 178z" />
    <glyph glyph-name="oslash" unicode="&#xf8;" horiz-adv-x="512" 
d="M517 492l-56 -70q27 -38 27 -96q0 -135 -70 -228q-77 -102 -207 -102q-43 0 -78 13l-10 -13h-119l54 69q-25 38 -25 94q0 135 70 228q77 103 207 103q41 0 76 -13l12 15h119zM317 390q-8 1 -17 1q-82 0 -126 -76q-38 -64 -37 -151zM383 323l-181 -228q9 -1 19 -1
q82 0 127 77q38 65 35 152z" />
    <glyph glyph-name="questiondown" unicode="&#xbf;" horiz-adv-x="498" 
d="M298 352q-23 0 -37.5 14.5t-14.5 36.5q0 31 24.5 55t55.5 24q23 0 38 -15t15 -37q0 -30 -25 -54t-56 -24zM428 -19q-21 -102 -98 -161q-70 -53 -155 -53q-73 0 -120 39q-50 42 -50 110q0 20 5 41q19 92 121 145q43 22 60 38q21 21 31 59l26 100h79q-3 -38 -12 -101
q-14 -66 -52 -108q-25 -27 -73 -53q-41 -22 -51 -30q-23 -20 -30 -50q-2 -11 -2 -21q0 -72 89 -72q47 0 83 28q40 31 53 89h96z" />
    <glyph glyph-name="exclamdown" unicode="&#xa1;" horiz-adv-x="309" 
d="M193 351q-24 0 -38.5 15t-14.5 37q0 30 24.5 54t55.5 24q23 0 38 -14.5t15 -36.5q0 -31 -25 -55t-55 -24zM228 297l-35 -189l-71 -333h-104l71 333l45 189h94z" />
    <glyph glyph-name="logicalnot" unicode="&#xac;" horiz-adv-x="526" 
d="M516 281l-49 -178h-100l27 97h-334l22 81h434z" />
    <glyph glyph-name="florin" unicode="&#x192;" horiz-adv-x="366" 
d="M376 698l-1 -103q-80 0 -110 -39q-19 -26 -33 -109h68v-103h-85l-95 -549l-100 18l92 531h-53v103h70q11 67 19 93q14 51 42 85q58 73 186 73z" />
    <glyph glyph-name="guillemotleft" unicode="&#xab;" horiz-adv-x="562" 
d="M557 455l-18 -81l-160 -120l105 -121l-19 -81l-30 -24l-175 202l15 64l255 194zM357 455l-18 -81l-160 -120l105 -121l-19 -81l-30 -24l-175 202l15 64l255 194z" />
    <glyph glyph-name="guillemotright" unicode="&#xbb;" horiz-adv-x="562" 
d="M507 286l-15 -65l-256 -193l-26 32l18 81l160 121l-105 121l19 81l30 24zM307 286l-15 -65l-256 -193l-26 32l18 81l160 121l-105 121l19 81l30 24z" />
    <glyph glyph-name="ellipsis" unicode="&#x2026;" horiz-adv-x="681" 
d="M513 -8q-22 0 -36 14t-14 35q0 26 20.5 46.5t47.5 20.5q22 0 36 -14t14 -35q0 -27 -21 -47t-47 -20zM286 -8q-22 0 -36 14t-14 35q0 26 21 46.5t48 20.5q22 0 36 -14t14 -35q0 -27 -21 -47t-48 -20zM60 -8q-22 0 -36 14t-14 35q0 26 21 46.5t48 20.5q22 0 36 -14t14 -35
q0 -27 -21 -47t-48 -20z" />
    <glyph glyph-name="nonbreakingspace" unicode="&#xa0;" horiz-adv-x="130" 
 />
    <glyph glyph-name="Agrave" unicode="&#xc0;" horiz-adv-x="718" 
d="M550 775h-76l-97 146h108zM668 0h-108l-36 196h-270l-120 -196h-114l425 698h95zM505 297l-44 240l-146 -240h190z" />
    <glyph glyph-name="Atilde" unicode="&#xc3;" horiz-adv-x="736" 
d="M686 815l-22 -18q-47 -40 -98 -40q-28 0 -59 12q-51 19 -54 20q-9 2 -16 2q-14 0 -27 -10t-25 -20l-60 49q68 58 123 58q35 0 81 -21q29 -14 46 -14q14 0 51 32zM668 0h-108l-36 196h-270l-120 -196h-114l425 698h95zM505 297l-44 240l-146 -240h190z" />
    <glyph glyph-name="Otilde" unicode="&#xd5;" 
d="M622 815l-22 -18q-47 -40 -98 -40q-27 0 -59 12q-51 19 -54 20q-9 2 -16 2q-14 0 -27 -10t-25 -20l-60 49q68 58 123 58q35 0 81 -21q29 -14 46 -14q14 0 51 32zM657 468q0 -190 -84 -321q-102 -156 -293 -156q-118 0 -175 70q-51 61 -51 169q0 197 87 326
q102 151 291 151q117 0 175 -70q50 -61 50 -169zM550 451q0 152 -140 152q-122 0 -191 -123q-57 -101 -57 -234q0 -151 140 -151q121 0 190 122q58 102 58 234z" />
    <glyph glyph-name="OE" unicode="&#x152;" horiz-adv-x="1034" 
d="M1074 699l-21 -95h-358l-42 -194h311l-21 -95h-311l-49 -221h358l-21 -95h-457l11 54q-84 -62 -185 -62q-106 0 -169 67q-60 64 -60 168q0 54 17 133q34 150 105 232q100 116 244 116q114 0 176 -76l15 68h457zM542 543q-29 68 -116 68q-98 0 -168 -81q-56 -64 -84 -191
q-15 -70 -15 -112q0 -140 130 -140q97 0 167 81q56 64 84 191q16 70 16 112q0 40 -14 72z" />
    <glyph glyph-name="oe" unicode="&#x153;" horiz-adv-x="769" 
d="M769 370q0 -82 -124 -126q-83 -30 -190 -36q-3 -19 -3 -36q0 -78 68 -78q27 0 47 11q25 12 69 52l74 -69q-58 -54 -98.5 -73.5t-91.5 -19.5q-98 0 -144 69q-70 -69 -171 -69q-164 0 -165 160q-1 132 65 227q74 106 201 106q98 0 142 -65q68 64 163 64q60 0 105 -28
q53 -32 53 -89zM667 368q0 22 -56 22q-83 0 -129 -94q41 2 107 22q78 25 78 50zM367 320q1 69 -71 69q-75 0 -117 -78q-35 -65 -35 -148q-1 -70 71 -70q76 0 118 79q33 63 34 148z" />
    <glyph glyph-name="endash" unicode="&#x2013;" horiz-adv-x="527" 
d="M507 309l-21 -71h-426l21 71h426z" />
    <glyph glyph-name="emdash" unicode="&#x2014;" horiz-adv-x="825" 
d="M805 309l-21 -71h-724l21 71h724z" />
    <glyph glyph-name="quotedblleft" unicode="&#x201c;" horiz-adv-x="440" 
d="M480 752l-46 -183q-6 -25 -27 -41.5t-45 -16.5q-21 0 -36 12t-15 31q0 7 3 15l18 52l113 131h35zM307 752l-46 -183q-6 -25 -27 -41.5t-45 -16.5q-21 0 -35.5 12t-14.5 31q0 7 2 15l18 52l113 131h35z" />
    <glyph glyph-name="quotedblright" unicode="&#x201d;" horiz-adv-x="440" 
d="M467 694l-18 -52l-112 -131h-36l46 183q7 25 27.5 41.5t45.5 16.5q20 0 35 -12t15 -31q0 -7 -3 -15zM294 694l-18 -52l-112 -131h-35l46 183q6 25 26.5 41.5t45.5 16.5q21 0 35.5 -12t14.5 -31q0 -7 -3 -15z" />
    <glyph glyph-name="quoteleft" unicode="&#x2018;" horiz-adv-x="267" 
d="M307 752l-46 -183q-6 -25 -27 -41.5t-45 -16.5q-21 0 -35.5 12t-14.5 31q0 7 2 15l18 52l113 131h35z" />
    <glyph glyph-name="quoteright" unicode="&#x2019;" horiz-adv-x="267" 
d="M294 694l-18 -52l-112 -131h-35l46 183q6 25 26.5 41.5t45.5 16.5q21 0 35.5 -12t14.5 -31q0 -7 -3 -15z" />
    <glyph glyph-name="divide" unicode="&#xf7;" horiz-adv-x="535" 
d="M309 366q-24 0 -39.5 15.5t-15.5 38.5q0 29 22.5 51t50.5 22q25 0 40.5 -16t15.5 -39q0 -28 -22.5 -50t-51.5 -22zM515 319l-20 -91h-435l19 91h436zM243 55q-24 0 -39.5 16t-15.5 39q0 28 22.5 50t50.5 22q25 0 40.5 -16t15.5 -39q0 -28 -22.5 -50t-51.5 -22z" />
    <glyph glyph-name="ydieresis" unicode="&#xff;" horiz-adv-x="515" 
d="M421 537q-22 0 -36.5 14.5t-14.5 34.5q0 27 21 47.5t48 20.5q22 0 36 -14.5t14 -35.5q0 -26 -21 -46.5t-47 -20.5zM213 537q-22 0 -36 14.5t-14 34.5q0 27 21 47.5t48 20.5q22 0 36 -14.5t14 -35.5q0 -26 -21 -46.5t-48 -20.5zM545 484l-363 -600q-63 -105 -168 -104h-54
l23 102q53 -1 65 3q26 8 47 43l43 70q19 33 11 86l-67 400h108l47 -325l192 325h116z" />
    <glyph glyph-name="Ydieresis" unicode="&#x178;" horiz-adv-x="580" 
d="M501 775q-22 0 -36 14t-14 35q0 27 21 47.5t48 20.5q21 0 35.5 -14.5t14.5 -35.5q0 -26 -21 -46.5t-48 -20.5zM294 775q-22 0 -36 14t-14 35q0 27 21 47.5t47 20.5q22 0 36.5 -14.5t14.5 -35.5q0 -26 -21 -46.5t-48 -20.5zM668 698l-331 -465l-50 -233h-106l50 235
l-134 463h118l95 -335l240 335h118z" />
    <glyph glyph-name="currency" unicode="&#xa4;" horiz-adv-x="687" 
d="M685 630l-76 -78q-29 34 -62 45q-27 10 -77 10q-76 0 -133.5 -43t-87.5 -119h258l-43 -94h-242l-7 -35h265l-43 -94h-227q7 -62 46.5 -96.5t104.5 -34.5q48 0 85 15q33 14 78 49l46 -86q-106 -78 -230 -78q-108 0 -173 62.5t-67 168.5h-83l43 94h48l7 35h-70l42 94h54
q94 262 351 262q120 0 193 -77z" />
    <glyph glyph-name="guilsinglleft" unicode="&#x2039;" horiz-adv-x="355" 
d="M335 455l-17 -80l-153 -121l100 -121l-17 -81l-30 -25l-168 203l14 64l245 194z" />
    <glyph glyph-name="guilsinglright" unicode="&#x203a;" horiz-adv-x="345" 
d="M295 286l-14 -64l-245 -195l-26 33l18 81l152 121l-100 121l17 81l30 24z" />
    <glyph glyph-name="daggerdbl" unicode="&#x2021;" horiz-adv-x="548" 
d="M568 489l-21 -94h-163l-63 -292h164l-21 -94h-163l-45 -209h-98l45 209h-163l20 94h164l63 292h-164l21 94h163l45 209h98l-45 -209h163z" />
    <glyph glyph-name="periodcentered" unicode="&#xb7;" horiz-adv-x="259" 
d="M130 206q-22 0 -36 14.5t-14 35.5q0 26 21 46.5t48 20.5q22 0 36 -14t14 -35q0 -27 -21 -47.5t-48 -20.5z" />
    <glyph glyph-name="periodcentered" unicode="&#x2219;" horiz-adv-x="259" 
d="M130 206q-22 0 -36 14.5t-14 35.5q0 26 21 46.5t48 20.5q22 0 36 -14t14 -35q0 -27 -21 -47.5t-48 -20.5z" />
    <glyph glyph-name="quotesinglbase" unicode="&#x201a;" horiz-adv-x="267" 
d="M158 52l-18 -52l-113 -131h-35l46 183q6 25 27 41.5t45 16.5q21 0 36 -12t15 -31q0 -7 -3 -15z" />
    <glyph glyph-name="quotedblbase" unicode="&#x201e;" horiz-adv-x="440" 
d="M331 52l-18 -52l-113 -131h-35l46 183q6 25 27 41.5t45 16.5q21 0 35.5 -12t14.5 -31q0 -7 -2 -15zM158 52l-18 -52l-113 -131h-35l46 183q6 25 27 41.5t45 16.5q21 0 36 -12t15 -31q0 -7 -3 -15z" />
    <glyph glyph-name="perthousand" unicode="&#x2030;" horiz-adv-x="1082" 
d="M1050 268q0 -107 -51 -186q-61 -92 -165 -92q-70 0 -108 49q-53 -49 -128 -49q-63 0 -100 39t-37 101q0 108 51 186q60 93 165 93q71 0 108 -49q54 49 129 49q63 0 99.5 -39.5t36.5 -101.5zM746 699l-474 -700h-122l475 700h121zM432 567q0 -107 -51 -186
q-60 -93 -165 -93q-62 0 -99 39.5t-37 100.5q0 109 51 187q60 93 165 93q63 0 99.5 -39.5t36.5 -101.5zM949 261q0 51 -44 51q-50 0 -81 -64q-26 -52 -26 -109q0 -52 45 -52q51 0 82 65q24 51 24 109zM713 261q0 51 -44 51q-51 0 -81 -63q-26 -52 -26 -110q0 -52 44 -52
q51 0 82 64q25 51 25 110zM331 560q0 51 -44 51q-50 0 -81 -64q-25 -52 -25 -110q0 -51 44 -51q51 0 82 64q24 52 24 110z" />
    <glyph glyph-name="Acircumflex" unicode="&#xc2;" horiz-adv-x="718" 
d="M665 775h-102l-37 84l-78 -84h-120l158 156h99zM668 0h-108l-36 196h-270l-120 -196h-114l425 698h95zM505 297l-44 240l-146 -240h190z" />
    <glyph glyph-name="Ecircumflex" unicode="&#xca;" horiz-adv-x="607" 
d="M588 775h-102l-37 84l-78 -84h-120l158 156h99zM654 698l-22 -103h-358l-40 -188h313l-20 -96h-314l-44 -208h359l-22 -103h-464l148 698h464z" />
    <glyph glyph-name="Aacute" unicode="&#xc1;" horiz-adv-x="714" 
d="M704 921l-156 -146h-85l123 146h118zM668 0h-108l-36 196h-270l-120 -196h-114l425 698h95zM505 297l-44 240l-146 -240h190z" />
    <glyph glyph-name="Edieresis" unicode="&#xcb;" horiz-adv-x="607" 
d="M537 775q-22 0 -36 14t-14 35q0 27 21 47.5t47 20.5q22 0 36 -14.5t14 -35.5q0 -26 -20.5 -46.5t-47.5 -20.5zM330 775q-22 0 -36 14t-14 35q0 27 20.5 47.5t47.5 20.5q22 0 36 -14.5t14 -35.5q0 -26 -21 -46.5t-47 -20.5zM654 698l-22 -103h-358l-40 -188h313l-20 -96
h-314l-44 -208h359l-22 -103h-464l148 698h464z" />
    <glyph glyph-name="Egrave" unicode="&#xc8;" horiz-adv-x="607" 
d="M481 775h-75l-98 146h108zM654 698l-22 -103h-358l-40 -188h313l-20 -96h-314l-44 -208h359l-22 -103h-464l148 698h464z" />
    <glyph glyph-name="Iacute" unicode="&#xcd;" horiz-adv-x="299" 
d="M435 921l-156 -146h-85l123 146h118zM311 698l-148 -698h-109l148 698h109z" />
    <glyph glyph-name="Icircumflex" unicode="&#xce;" horiz-adv-x="300" 
d="M425 775h-103l-37 84l-78 -84h-119l158 156h98zM311 698l-148 -698h-109l148 698h109z" />
    <glyph glyph-name="Idieresis" unicode="&#xcf;" horiz-adv-x="297" 
d="M362 775q-22 0 -36 14t-14 35q0 27 21 47.5t48 20.5q22 0 36 -14.5t14 -35.5q0 -26 -21 -46.5t-48 -20.5zM155 775q-22 0 -36 14t-14 35q0 27 21 47.5t48 20.5q21 0 35.5 -14.5t14.5 -35.5q0 -26 -21 -46.5t-48 -20.5zM311 698l-148 -698h-109l148 698h109z" />
    <glyph glyph-name="Igrave" unicode="&#xcc;" horiz-adv-x="303" 
d="M315 775h-75l-97 146h107zM311 698l-148 -698h-109l148 698h109z" />
    <glyph glyph-name="Oacute" unicode="&#xd3;" 
d="M601 921l-156 -146h-85l123 146h118zM657 468q0 -190 -84 -321q-102 -156 -293 -156q-118 0 -175 70q-51 61 -51 169q0 197 87 326q102 151 291 151q117 0 175 -70q50 -61 50 -169zM550 451q0 152 -140 152q-122 0 -191 -123q-57 -101 -57 -234q0 -151 140 -151
q121 0 190 122q58 102 58 234z" />
    <glyph glyph-name="Ocircumflex" unicode="&#xd4;" 
d="M599 775h-102l-37 84l-78 -84h-120l159 156h98zM657 468q0 -190 -84 -321q-102 -156 -293 -156q-118 0 -175 70q-51 61 -51 169q0 197 87 326q102 151 291 151q117 0 175 -70q50 -61 50 -169zM550 451q0 152 -140 152q-122 0 -191 -123q-57 -101 -57 -234
q0 -151 140 -151q121 0 190 122q58 102 58 234z" />
    <glyph glyph-name="Ograve" unicode="&#xd2;" 
d="M512 775h-75l-98 146h108zM657 468q0 -190 -84 -321q-102 -156 -293 -156q-118 0 -175 70q-51 61 -51 169q0 197 87 326q102 151 291 151q117 0 175 -70q50 -61 50 -169zM550 451q0 152 -140 152q-122 0 -191 -123q-57 -101 -57 -234q0 -151 140 -151q121 0 190 122
q58 102 58 234z" />
    <glyph glyph-name="Uacute" unicode="&#xda;" horiz-adv-x="639" 
d="M604 921l-156 -146h-85l123 146h118zM682 698l-85 -402q-32 -148 -96 -218q-80 -87 -231 -87q-210 0 -210 198q0 48 13 107l85 402h106l-85 -402q-12 -53 -12 -88q0 -113 125 -113q92 0 140 58q38 46 59 144l85 401h106z" />
    <glyph glyph-name="Ucircumflex" unicode="&#xdb;" horiz-adv-x="639" 
d="M602 775h-102l-37 84l-78 -84h-120l159 156h98zM682 698l-85 -402q-32 -148 -96 -218q-80 -87 -231 -87q-210 0 -210 198q0 48 13 107l85 402h106l-85 -402q-12 -53 -12 -88q0 -113 125 -113q92 0 140 58q38 46 59 144l85 401h106z" />
    <glyph glyph-name="Ugrave" unicode="&#xd9;" horiz-adv-x="639" 
d="M515 775h-75l-98 146h108zM682 698l-85 -402q-32 -148 -96 -218q-80 -87 -231 -87q-210 0 -210 198q0 48 13 107l85 402h106l-85 -402q-12 -53 -12 -88q0 -113 125 -113q92 0 140 58q38 46 59 144l85 401h106z" />
    <glyph glyph-name="circumflex" unicode="&#x2c6;" horiz-adv-x="395" 
d="M431 528h-102l-37 84l-78 -84h-120l158 156h99z" />
    <glyph glyph-name="tilde" unicode="&#x2dc;" horiz-adv-x="406" 
d="M461 594l-21 -18q-48 -40 -99 -40q-27 0 -58 11q-51 20 -55 21q-9 2 -16 2q-14 0 -27 -10t-25 -21l-60 50q69 57 123 57q35 0 81 -20q30 -14 46 -14q14 0 51 31z" />
    <glyph glyph-name="macron" unicode="&#xaf;" horiz-adv-x="490" 
d="M511 650l-21 -68h-326l20 68h327z" />
    <glyph glyph-name="macron" unicode="&#x2c9;" horiz-adv-x="490" 
d="M511 650l-21 -68h-326l20 68h327z" />
    <glyph glyph-name="cedilla" unicode="&#xb8;" horiz-adv-x="473" 
d="M279 -81l-115 -120h-122l152 140v69l84 28z" />
    <glyph glyph-name="Scaron" unicode="&#x160;" horiz-adv-x="575" 
d="M590 931l-158 -156h-102l-80 156h105l37 -84l78 84h120zM612 538l-99 -41q-31 55 -53 73q-36 29 -100 29q-56 0 -96 -20q-52 -26 -52 -76q0 -43 90 -70q148 -43 166 -51q89 -44 89 -131q0 -119 -85 -190.5t-222 -71.5q-235 0 -235 229l108 18q0 -79 35 -111t114 -32
q65 0 116 32q60 38 60 99q0 54 -89 82q-84 25 -167 50q-89 39 -89 119q0 115 83 175q74 53 196 53q92 0 148 -47q42 -35 82 -118z" />
    <glyph glyph-name="scaron" unicode="&#x161;" horiz-adv-x="480" 
d="M475 684l-158 -156h-101l-81 156h106l36 -84l79 84h119zM418 371l-93 -33q-21 59 -76 59q-25 0 -44.5 -15t-19.5 -32q0 -27 51 -49q77 -33 94 -45q50 -37 50 -102q0 -73 -57 -118t-135 -45q-140 0 -168 153l98 25q10 -81 82 -80q30 0 53.5 18.5t23.5 46.5q0 27 -50 48
q-79 32 -93 42q-50 33 -50 92q0 72 54 114q50 40 127 40q107 0 153 -119z" />
    <glyph glyph-name="brokenbar" unicode="&#xa6;" horiz-adv-x="306" 
d="M191 373h-81v402h81v-402zM191 -76h-81v402h81v-402z" />
    <glyph glyph-name="Eth" unicode="&#xd0;" horiz-adv-x="711" 
d="M662 522q0 -54 -25 -173q-21 -100 -40 -152q-42 -116 -133 -161q-71 -36 -199 -36h-221l63 295l-38 1l23 103h37l63 299h221q122 0 178 -32q71 -40 71 -144zM556 499q0 52 -34 73q-37 23 -131 23h-115l-41 -196h162l-23 -103l-161 -1l-41 -191h115q97 0 144 24
q43 22 64 79q12 31 36 142q25 117 25 150z" />
    <glyph glyph-name="eth" unicode="&#xf0;" horiz-adv-x="576" 
d="M538 631l-22 -99h-50q14 -53 27 -104t13 -92q0 -42 -11 -94q-53 -251 -265 -251q-80 0 -128 42.5t-50 119.5q-3 138 67 236q77 108 211 108q20 0 38 -3l-8 38h-125l21 99h82l-28 119h105l28 -119h95zM393 253q8 39 8 64q0 78 -81 78q-83 0 -126 -73q-36 -60 -38 -149
q-1 -81 84 -81q69 0 107 49q30 37 46 112z" />
    <glyph glyph-name="Yacute" unicode="&#xdd;" horiz-adv-x="580" 
d="M549 921l-156 -146h-85l123 146h118zM668 698l-331 -465l-50 -233h-106l50 235l-134 463h118l95 -335l240 335h118z" />
    <glyph glyph-name="yacute" unicode="&#xfd;" horiz-adv-x="515" 
d="M462 691l-156 -146h-85l123 146h118zM545 484l-363 -600q-63 -105 -168 -104h-54l23 102q53 -1 65 3q26 8 47 43l43 70q19 33 11 86l-67 400h108l47 -325l192 325h116z" />
    <glyph glyph-name="Thorn" unicode="&#xde;" horiz-adv-x="658" 
d="M646 403q0 -121 -88 -188q-78 -59 -200 -59h-168l-34 -156h-108l153 698h108l-29 -135h155q212 0 211 -160zM539 393q0 44 -38 59q-22 8 -76 8h-168l-44 -201h155q169 0 171 134z" />
    <glyph glyph-name="thorn" unicode="&#xfe;" horiz-adv-x="619" 
d="M565 324q-2 -133 -66 -226q-74 -109 -201 -109q-56 0 -98 25l-50 -234h-105l196 918h105l-47 -220q46 20 95 20q82 0 127 -47t44 -127zM460 316q2 79 -76 79q-43 0 -78.5 -26t-44.5 -68l-27 -127q-1 -9 -1 -17q0 -65 75 -65q77 0 118 77q32 60 34 147z" />
    <glyph glyph-name="minus" unicode="&#xad;" horiz-adv-x="540" 
d="M491 309l-21 -71h-426l21 71h426z" />
    <glyph glyph-name="minus" unicode="&#x2212;" horiz-adv-x="540" 
d="M491 309l-21 -71h-426l21 71h426z" />
    <glyph glyph-name="multiply" unicode="&#xd7;" horiz-adv-x="471" 
d="M439 385l-143 -114l93 -114l-73 -59l-93 115l-144 -115l-52 64l143 115l-93 114l73 58l94 -114l143 114z" />
    <glyph glyph-name="onesuperior" unicode="&#xb9;" horiz-adv-x="311" 
d="M267 704l-100 -453h-99l70 318l-59 -30l-34 85l158 80h64z" />
    <glyph glyph-name="twosuperior" unicode="&#xb2;" horiz-adv-x="380" 
d="M450 574q-9 -39 -43 -75q-30 -33 -107 -92q-34 -25 -65 -61h165l-21 -95h-292l16 73q56 92 140 156q104 79 110 106q6 24 -29 24q-34 0 -81 -61l-82 46q84 110 171 110q48 0 82 -25q39 -29 39 -78q0 -13 -3 -28z" />
    <glyph glyph-name="threesuperior" unicode="&#xb3;" horiz-adv-x="403" 
d="M286 484q22 -30 22 -69q0 -66 -54 -115.5t-121 -49.5q-49 0 -83.5 28.5t-39.5 74.5l-4 29l98 28q1 -17 7 -47q7 -19 30 -19q25 0 46 20t21 44q0 31 -33 31h-40l21 95h24q21 0 38.5 13.5t21.5 30.5q7 33 -30 33t-55 -32l-16 -26l-90 32l20 35q22 38 63 62t86 24
q53 0 87.5 -32t34.5 -80q0 -63 -54 -110z" />
    <glyph glyph-name="onehalf" unicode="&#xbd;" horiz-adv-x="775" 
d="M712 323q-9 -39 -42 -76q-30 -32 -108 -91q-33 -25 -65 -61h165l-21 -95h-292l16 73q56 92 140 156q105 79 111 106q5 24 -30 24q-33 0 -81 -62l-82 47q85 110 172 110q47 0 82 -25q38 -29 38 -78q0 -13 -3 -28zM621 699l-468 -699h-113l469 699h112zM270 704l-100 -453
h-99l70 318l-59 -30l-34 85l158 80h64z" />
    <glyph glyph-name="onequarter" unicode="&#xbc;" horiz-adv-x="763" 
d="M710 196l-20 -95h-28l-22 -101h-99l22 101h-219l17 78l202 274h123l-186 -257h84l21 85l94 -18l-16 -67h27zM621 699l-468 -699h-113l468 699h113zM267 704l-100 -453h-99l70 318l-59 -30l-34 85l158 80h64z" />
    <glyph glyph-name="threequarters" unicode="&#xbe;" horiz-adv-x="796" 
d="M878 196l-20 -95h-28l-22 -101h-100l23 101h-219l17 78l202 274h123l-187 -257h85l21 85l94 -18l-16 -67h27zM789 699l-468 -699h-112l468 699h112zM377 484q22 -30 22 -69q0 -66 -54 -115.5t-121 -49.5q-49 0 -83.5 28.5t-39.5 74.5l-4 29l98 28q1 -17 7 -47
q7 -19 30 -19q25 0 46 20t21 44q0 31 -33 31h-40l21 95h24q21 0 38.5 13.5t21.5 30.5q7 33 -30 33t-55 -32l-16 -26l-90 32l20 35q22 38 63 62t86 24q53 0 87.5 -32t34.5 -80q0 -63 -54 -110z" />
    <glyph glyph-name="Lslash" unicode="&#x141;" horiz-adv-x="548" 
d="M492 103l-22 -103h-423l48 228l-49 -20l26 124l49 20l74 346h105l-64 -300l167 67l-26 -124l-167 -67l-37 -171h319z" />
    <glyph glyph-name="lslash" unicode="&#x142;" horiz-adv-x="284" 
d="M304 439l-23 -115l-73 -31l-34 -168q-2 -9 -2 -12q0 -12 39 -12l-21 -101q-119 0 -119 95q0 19 5 42l22 108l-52 -22l23 114l52 23l69 338h100l-59 -291z" />
    <glyph glyph-name="Zcaron" unicode="&#x17d;" horiz-adv-x="598" 
d="M620 931l-159 -156h-101l-80 156h105l37 -84l78 84h120zM648 697l-19 -87l-449 -500q26 -1 87 -9t89 -8q60 0 123 23l39 -97q-82 -30 -162 -30q-29 0 -94 8.5t-94 8.5q-60 0 -123 -23l-34 86l471 525h-314l23 103h457z" />
    <glyph glyph-name="zcaron" unicode="&#x17e;" horiz-adv-x="511" 
d="M521 684l-158 -156h-101l-81 156h106l36 -84l79 84h119zM508 484l-20 -86l-308 -295q11 -1 55 -9q34 -6 55 -6q51 0 100 21l45 -86q-76 -32 -145 -32q-24 0 -72 8t-72 8q-51 0 -98 -20l-43 79l329 320h-211l22 98h363z" />
    <glyph glyph-name="notequal" unicode="&#x2260;" horiz-adv-x="569" 
d="M539 379l-19 -86h-157l-50 -85h189l-19 -87h-221l-61 -103l-70 27l45 76h-126l19 87h157l51 85h-190l19 86h221l61 103l71 -27l-45 -76h125z" />
    <glyph glyph-name="infinity" unicode="&#x221e;" horiz-adv-x="796" 
d="M776 285q0 -72 -57 -120q-55 -44 -128 -45q-84 0 -177 82q-131 -82 -214 -82q-53 1 -89 28q-41 31 -41 86q0 72 58 119q54 45 127 45q84 0 177 -81q132 81 214 81q53 0 89 -28q41 -31 41 -85zM678 274q0 35 -43 36q-45 0 -135 -54q59 -47 101 -47q31 0 54 17.5t23 47.5z
M346 262q-59 48 -100 48q-32 -1 -55 -18t-23 -48q0 -35 43 -35q45 0 135 53z" />
    <glyph glyph-name="lessequal" unicode="&#x2264;" horiz-adv-x="510" 
d="M514 555l-22 -104l-283 -115l234 -115l-22 -103l-362 178l17 81zM416 95l-20 -95h-400l20 95h400z" />
    <glyph glyph-name="greaterequal" unicode="&#x2265;" horiz-adv-x="510" 
d="M476 377l-17 -81l-438 -178l22 103l284 115l-235 115l22 104zM416 95l-20 -95h-400l20 95h400z" />
    <glyph glyph-name="partialdiff" unicode="&#x2202;" horiz-adv-x="514" 
d="M494 449q0 -179 -51 -293q-70 -159 -230 -159q-77 0 -125 51t-48 127q0 100 78 181.5t178 81.5q51 0 92 -25q2 55 -6 103q-15 82 -56 81q-55 0 -114 -71l-73 69q101 105 197 106q88 1 128 -87q30 -64 30 -165zM363 236q5 44 -17 72t-60 28q-55 0 -98 -48.5t-43 -104.5
q0 -38 22 -61t56 -23q50 0 92 42.5t48 94.5z" />
    <glyph glyph-name="summation" unicode="&#x2211;" horiz-adv-x="605" 
d="M595 698l-23 -104h-300l154 -360l-301 -350h294l-23 -104h-436l19 87l324 377l-161 378l16 76h437z" />
    <glyph glyph-name="product" unicode="&#x220f;" horiz-adv-x="665" 
d="M675 752l-205 -949h-106l183 846h-268l-183 -846h-106l205 949h480z" />
    <glyph glyph-name="pi" unicode="&#x3c0;" horiz-adv-x="540" 
d="M540 478l-81 -357q-4 -17 -3 -21q0 -2 7 -2h53l-22 -98h-41q-70 0 -93 52q-14 31 -3 80l56 248h-182l-86 -380h-105l108 478h392z" />
    <glyph glyph-name="integral" unicode="&#x222b;" horiz-adv-x="435" 
d="M455 698l-21 -103h-70q-21 0 -29 -36l-133 -627q-11 -51 -36 -80q-40 -48 -104 -48h-82l22 103h69q21 0 29 36l133 628q11 50 36 80q41 47 105 47h81z" />
    <glyph glyph-name="Omega" unicode="&#x3a9;" horiz-adv-x="680" 
d="M660 479q0 -54 -19 -137q-35 -160 -110 -243h41l-4 -99h-229l23 104q63 21 102 69q47 61 73 181q16 73 16 116q0 124 -97 124h-27q-73 0 -129 -71q-47 -60 -74 -181q-16 -72 -16 -115q0 -34 10 -62q15 -43 73 -65l-22 -100h-231l40 99h50q-26 50 -26 119q0 55 18 136
q32 145 95 225q92 118 222 118h27q93 0 146 -65q48 -59 48 -153z" />
    <glyph glyph-name="Omega" unicode="&#x2126;" horiz-adv-x="680" 
d="M660 479q0 -54 -19 -137q-35 -160 -110 -243h41l-4 -99h-229l23 104q63 21 102 69q47 61 73 181q16 73 16 116q0 124 -97 124h-27q-73 0 -129 -71q-47 -60 -74 -181q-16 -72 -16 -115q0 -34 10 -62q15 -43 73 -65l-22 -100h-231l40 99h50q-26 50 -26 119q0 55 18 136
q32 145 95 225q92 118 222 118h27q93 0 146 -65q48 -59 48 -153z" />
    <glyph glyph-name="radical" unicode="&#x221a;" horiz-adv-x="622" 
d="M662 693l-23 -102h-97l-296 -591h-92l-94 496h110l58 -306l252 503h182z" />
    <glyph glyph-name="approxequal" unicode="&#x2248;" horiz-adv-x="566" 
d="M556 347l-33 -21q-56 -36 -116 -36q-35 0 -95 17t-88 17q-23 0 -44 -13l-29 -19l-63 64q89 57 156 57q31 0 88.5 -17t87.5 -17q23 0 44 14l29 19zM528 189l-33 -21q-56 -37 -116 -37q-36 0 -95.5 17t-87.5 17q-23 0 -44 -13l-29 -19l-63 64q89 57 156 57q31 0 88.5 -17
t87.5 -17q23 0 44 14l29 19z" />
    <glyph glyph-name="approxequal" unicode="&#x22f2;" horiz-adv-x="566" 
d="M556 347l-33 -21q-56 -36 -116 -36q-35 0 -95 17t-88 17q-23 0 -44 -13l-29 -19l-63 64q89 57 156 57q31 0 88.5 -17t87.5 -17q23 0 44 14l29 19zM528 189l-33 -21q-56 -37 -116 -37q-36 0 -95.5 17t-87.5 17q-23 0 -44 -13l-29 -19l-63 64q89 57 156 57q31 0 88.5 -17
t87.5 -17q23 0 44 14l29 19z" />
    <glyph glyph-name="Delta" unicode="&#x394;" horiz-adv-x="678" 
d="M638 0h-598l463 748zM512 100l-66 366l-227 -366h293z" />
    <glyph glyph-name="Delta" unicode="&#x2206;" horiz-adv-x="678" 
d="M638 0h-598l463 748zM512 100l-66 366l-227 -366h293z" />
    <glyph glyph-name="lozenge" unicode="&#x25ca;" horiz-adv-x="545" 
d="M515 340l-304 -359l-151 368l304 359zM410 349l-78 189l-167 -198l78 -189z" />
    <glyph glyph-name="fraction" unicode="&#x2044;" horiz-adv-x="255" 
d="M455 698l-466 -698h-109l466 698h109z" />
    <glyph glyph-name="fi" unicode="&#xf001;" horiz-adv-x="497" 
d="M517 643q0 -28 -21.5 -49t-49.5 -21q-26 0 -42 16.5t-16 40.5q1 27 22.5 47.5t49.5 20.5q25 0 41 -16t16 -39zM473 485l-104 -485h-106l84 389h-105l-87 -403q-19 -87 -60 -135q-65 -74 -205 -74l22 103q69 0 100 30q26 26 40 88l84 391h-46l21 96h45q23 100 70 148
q51 53 149 64l-20 -105q-69 -15 -93 -107h211z" />
    <glyph glyph-name="fl" unicode="&#xf002;" horiz-adv-x="516" 
d="M526 698l-124 -575q-2 -8 -2 -12q0 -13 42 -13l-22 -103q-95 0 -119 55q-14 32 -2 85l99 460h-22q-51 0 -78 -31q-21 -25 -35 -79h79l-21 -96h-79l-87 -403q-19 -87 -60 -135q-65 -74 -205 -74l22 103q69 0 100 30q26 26 40 88l84 391h-46l21 96h46q49 213 229 213h140z
" />
    <glyph glyph-name="dotlessi" unicode="&#x131;" horiz-adv-x="274" 
d="M227 487l-103 -487h-77l103 487h77z" />
    <glyph glyph-name="breve" unicode="&#x2d8;" horiz-adv-x="467" 
d="M518 708q-95 -143 -225 -143q-64 0 -106.5 37t-55.5 106h86q23 -64 86 -64q68 0 121 64h94z" />
    <glyph glyph-name="dotaccent" unicode="&#x2d9;" horiz-adv-x="274" 
d="M215 527q-22 0 -36 14.5t-14 34.5q0 27 21 47.5t48 20.5q22 0 36 -14.5t14 -35.5q0 -26 -21 -46.5t-48 -20.5z" />
    <glyph glyph-name="ring" unicode="&#x2da;" horiz-adv-x="408" 
d="M265 522q-46 0 -75.5 29.5t-29.5 74.5q0 58 47 103.5t106 45.5q46 0 75.5 -29.5t29.5 -73.5q0 -58 -47 -104t-106 -46zM342 663q0 37 -39 37q-25 0 -45.5 -20t-20.5 -45q0 -37 38 -37q25 0 46 20t21 45z" />
    <glyph glyph-name="hungarumlaut" unicode="&#x2dd;" horiz-adv-x="430" 
d="M506 721l-159 -156h-93l132 156h120zM363 721l-159 -156h-93l132 156h120z" />
    <glyph glyph-name="ogonek" unicode="&#x2db;" horiz-adv-x="432" 
d="M225 -201h-103l-64 206h88z" />
    <glyph glyph-name="caron" unicode="&#x2c7;" horiz-adv-x="403" 
d="M463 684l-158 -156h-101l-81 156h106l37 -84l78 84h119z" />
    </font>
</defs>
</svg>
