<svg xmlns="http://www.w3.org/2000/svg" xmlns:xlink="http://www.w3.org/1999/xlink" width="281" height="38" viewBox="0 0 281 38"><defs><path id="5rvna" d="M89.84 88.67h.03V84.4h.56v5.55h-.51L87.1 85h-.02v4.95h-.55V84.4h.88z"/><path id="5rvnb" d="M104.82 86.78h1.93v.52h-1.93v2.13h2.87v.52h-3.49V84.4h3.33v.52h-2.71z"/><path id="5rvnc" d="M122.01 84.92h-1.66v-.52h3.94v.52h-1.66v5.03H122z"/><path id="5rvnd" d="M138.41 88.83l1.08-4.43h.54l1.11 4.43h.02l1.01-4.43h.59l-1.32 5.55h-.55l-1.13-4.49h-.02l-1.08 4.49h-.54l-1.34-5.55h.59l1.03 4.43z"/><path id="5rvne" d="M157.64 84.32c1.36 0 2.16 1 2.16 2.85 0 1.86-.8 2.86-2.16 2.86s-2.17-1-2.17-2.86c0-1.85.8-2.85 2.17-2.85m0 5.17c.98 0 1.55-.77 1.55-2.3 0-1.55-.58-2.31-1.55-2.31-.96 0-1.54.76-1.54 2.3 0 1.54.57 2.31 1.54 2.31"/><path id="5rvnf" d="M173.09 89.95V84.4h1.78c1.2 0 1.86.54 1.86 1.46.02.68-.45 1.29-1.11 1.45l1.18 2.64h-.67L175 87.43h-1.3v2.52zm.61-3.03h1.12c.85 0 1.3-.32 1.3-1.02s-.51-.98-1.3-.98h-1.12z"/><path id="5rvng" d="M191.07 84.4v2.88h.02l2.3-2.88h.73l-1.73 2.09 1.93 3.46h-.7L191.98 87l-.9 1.09v1.86h-.61V84.4z"/><path id="5rvnh" d="M90.74 68.35c2.5 0 3.72.9 3.72 2.7 0 1.05-.53 1.84-1.56 2.38 1.54.44 2.37 1.51 2.37 3 0 2.14-1.46 3.4-3.99 3.4h-4.75V68.34zm-.4 4.3c1.11 0 1.56-.31 1.56-1.1 0-.77-.43-1.02-1.66-1.02h-1.1v2.11zm.34 4.84c1.27 0 1.82-.38 1.82-1.33 0-.94-.57-1.37-1.9-1.37h-1.44v2.7z"/><path id="5rvni" d="M97.72 79.82V68.34h2.61v9.15h4.19v2.33z"/><path id="5rvnj" d="M113.53 68.34l4.27 11.46h-2.77l-1.23-3.5h-3.5l-1.24 3.5h-2.74l4.2-11.46zm-.7 4.97c0-.03-.1-.25-.2-.56l-.2-.66c-.2-.56-.28-.9-.39-1.4l-.1.4-.15.44c-.22.74-.24.82-.56 1.78l-.28.78h2.15z"/><path id="5rvnk" d="M127.35 71.05a4.6 4.6 0 0 0-2.2-.58 3.44 3.44 0 0 0-3.62 3.6c0 2.13 1.47 3.66 3.51 3.66.81 0 1.61-.2 2.32-.6v2.49a6.9 6.9 0 0 1-2.43.43 5.85 5.85 0 0 1-6.08-6.02 5.82 5.82 0 0 1 6-5.89c.84.02 1.69.14 2.5.36z"/><path id="5rvnl" d="M140.22 68.34l-4.37 5.14 4.42 6.34h-3.1l-3.86-5.7v5.7h-2.61V68.34h2.61v4.68l3.86-4.68z"/><path id="5rvnm" d="M145.37 74.67v5.15h-2.62V68.34h2.62v4.03h4.33v-4.03h2.62v11.48h-2.62v-5.15z"/><path id="5rvnn" d="M161.6 68.34l4.27 11.46h-2.79l-1.22-3.51h-3.51l-1.22 3.51h-2.74l4.2-11.48zm-.7 4.97l-.2-.57-.2-.65c-.2-.57-.28-.91-.39-1.4l-.1.39-.12.43c-.23.74-.24.82-.57 1.79l-.28.77h2.15z"/><path id="5rvno" d="M169.1 68.34l1.42 5.07.15.54c.2.72.36 1.46.47 2.2.1-.92.26-1.84.5-2.74l1.24-5.07h2.9l1.28 5.21c.22.95.34 1.57.44 2.28l.06.33c.14-.88.33-1.75.56-2.6l1.52-5.22h2.76l-3.47 11.48h-2.85l-1.26-5.2c-.24-.93-.4-1.88-.5-2.84l-.06.42c-.12.86-.29 1.84-.43 2.42l-1.26 5.18h-2.84l-3.41-11.46z"/><path id="5rvnp" d="M194.36 68.34l-4.37 5.14 4.42 6.34h-3.1l-3.86-5.7v5.7h-2.61V68.34h2.61v4.68l3.86-4.68z"/><path id="5rvnq" d="M37.95 68.23l.04.11c7.46-2.45 18.85-2.31 23.14 1.99-2.65 3.88-14.79 11.45-27.95 16.02l.12-.04-1.23.39c-.17.09 0 .18.1.18 7.34-1.5 28.57-7.92 35.73-18.57-4.79-4.88-17.98-6.47-29.95-.08"/><path id="5rvnr" d="M51.3 87.02l.02.1c6.5-2.14 16.4-2.01 20.15 1.72-2.31 3.4-13.5 9.15-25.16 12.39l.1-.03c-.36.1-.72.2-1.08.28-.16.07 0 .16.07.17 6.46-.9 25.73-5.27 31.96-14.53-4.17-4.24-15.65-5.63-26.07-.08"/><path id="5rvns" d="M81.8 77.83c-3.71-3.78-13.5-4.72-22.22-.09l-.07.16.15.06c5.51-1.8 13.81-1.67 16.96 1.41-2.04 2.9-10.94 8.42-20.57 11.76l-.82.27-.1.13v.02l.2.13c5.56-1.16 21.12-5.83 26.45-13.76l.03-.05z"/><path id="5rvnt" d="M236.55 79.8h-1.33v-5.4h-6.04v5.4h-1.33V68.34h1.33v4.88h6.04v-4.88h1.34z"/><path id="5rvnu" d="M244.63 74.96l-1.33-3.55c-.18-.45-.35-1-.54-1.66-.13.56-.3 1.11-.49 1.66l-1.35 3.55zm1.86 4.84l-1.43-3.64h-4.6l-1.4 3.64h-1.37l4.53-11.51h1.13l4.52 11.51z"/><path id="5rvnv" d="M257.86 79.8h-1.32l-2.31-7.67a34.8 34.8 0 0 1-.39-1.3c-.09-.3-.16-.6-.2-.92-.13.76-.3 1.52-.52 2.26l-2.26 7.63h-1.32l-3.05-11.46h1.41l1.81 7.08c.23.9.42 1.8.55 2.7.14-.95.35-1.89.63-2.8l2.06-6.98h1.4l2.16 7.04c.27.9.49 1.82.64 2.74.13-.9.32-1.8.56-2.7l1.8-7.06h1.42z"/><path id="5rvnw" d="M271.05 79.8h-1.7l-4.51-5.56-1.3 1.07v4.5h-1.45V68.33h1.44v5.68l5.63-5.68h1.7l-4.98 4.98z"/><path id="5rvnx" d="M227.85 95.83V84.37h1.33v11.46z"/><path id="5rvny" d="M240.86 95.83h-1.53l-6.26-9.62H233c.08 1.13.12 2.17.12 3.1v6.52h-1.22V84.37h1.5l6.25 9.58h.07l-.07-1.36c-.05-.76-.06-1.31-.04-1.64v-6.58h1.24z"/><path id="5rvnz" d="M248.29 85.4a3.75 3.75 0 0 0-2.99 1.25 5.07 5.07 0 0 0-1.1 3.45c0 1.5.36 2.66 1.07 3.47.7.81 1.7 1.22 3 1.23.93-.02 1.85-.17 2.74-.43v1.15c-.94.33-1.94.5-2.94.47-1.7 0-3-.51-3.91-1.54-.92-1.03-1.38-2.48-1.38-4.37a6.9 6.9 0 0 1 .66-3.1 4.76 4.76 0 0 1 1.93-2.06c.9-.5 1.92-.74 2.95-.72a7.1 7.1 0 0 1 3.15.66l-.56 1.16a6.08 6.08 0 0 0-2.62-.62z"/><path id="5rvnA" d="M259.77 95.83h-6.39V84.37h6.4v1.18h-5.07v3.7h4.76v1.17h-4.76v4.22h5.06z"/><path id="5rvnB" d="M271.04 95.83h-1.52l-6.27-9.64h-.06c.09 1.13.13 2.17.13 3.1v6.53h-1.23V84.37h1.5l6.25 9.58h.07l-.07-1.36c-.05-.76-.06-1.31-.04-1.64v-6.58h1.24z"/><path id="5rvnC" d="M277.64 95.83h-1.34V85.55h-3.63v-1.18h8.6v1.18h-3.64z"/><path id="5rvnD" d="M282.9 95.83V84.37h1.33v11.46z"/><path id="5rvnE" d="M293.92 84.37h1.43l-4.13 11.46h-1.32l-4.11-11.46h1.41l2.64 7.42c.29.81.53 1.64.72 2.49.19-.86.43-1.7.73-2.53z"/><path id="5rvnF" d="M303.32 95.83h-6.39V84.37h6.4v1.18h-5.07v3.7h4.76v1.17h-4.76v4.22h5.06z"/><path id="5rvnG" d="M312.23 92.78c.04.92-.37 1.8-1.1 2.36-.87.61-1.92.91-2.98.85a7.46 7.46 0 0 1-3.14-.52v-1.29a8.3 8.3 0 0 0 3.19.64c.7.05 1.4-.12 2-.5.45-.33.7-.86.68-1.41a1.8 1.8 0 0 0-.24-.98c-.2-.3-.48-.53-.8-.7-.55-.29-1.12-.53-1.7-.73a5.45 5.45 0 0 1-2.29-1.36 3 3 0 0 1-.68-2.04c-.03-.83.34-1.61 1-2.11.76-.55 1.7-.82 2.63-.77 1.08-.02 2.15.2 3.15.62l-.42 1.16a7.1 7.1 0 0 0-2.76-.6c-.6-.04-1.18.12-1.67.45-.4.3-.62.78-.59 1.27-.01.34.06.68.22.98.19.29.45.53.76.69.5.28 1.04.52 1.6.7 1.2.43 2.02.9 2.48 1.38.46.53.7 1.21.66 1.91z"/><path id="5rvnH" d="M211.34 64.02v37.63"/></defs><g><g transform="translate(-32 -64)"><g><use xlink:href="#5rvna"/></g><g><use xlink:href="#5rvnb"/></g><g><use xlink:href="#5rvnc"/></g><g><use xlink:href="#5rvnd"/></g><g><use xlink:href="#5rvne"/></g><g><use xlink:href="#5rvnf"/></g><g><use xlink:href="#5rvng"/></g><g><use xlink:href="#5rvnh"/></g><g><use xlink:href="#5rvni"/></g><g><use xlink:href="#5rvnj"/></g><g><use xlink:href="#5rvnk"/></g><g><use xlink:href="#5rvnl"/></g><g><use xlink:href="#5rvnm"/></g><g><use xlink:href="#5rvnn"/></g><g><use xlink:href="#5rvno"/></g><g><use xlink:href="#5rvnp"/></g><g><use fill="#1969b7" xlink:href="#5rvnq"/></g><g><use fill="#a8b234" xlink:href="#5rvnr"/></g><g><use xlink:href="#5rvns"/></g><g><use fill="#a8b234" xlink:href="#5rvnt"/></g><g><use fill="#a8b234" xlink:href="#5rvnu"/></g><g><use fill="#a8b234" xlink:href="#5rvnv"/></g><g><use fill="#a8b234" xlink:href="#5rvnw"/></g><g><use fill="#9b9b9b" xlink:href="#5rvnx"/></g><g><use fill="#9b9b9b" xlink:href="#5rvny"/></g><g><use fill="#9b9b9b" xlink:href="#5rvnz"/></g><g><use fill="#9b9b9b" xlink:href="#5rvnA"/></g><g><use fill="#9b9b9b" xlink:href="#5rvnB"/></g><g><use fill="#9b9b9b" xlink:href="#5rvnC"/></g><g><use fill="#9b9b9b" xlink:href="#5rvnD"/></g><g><use fill="#9b9b9b" xlink:href="#5rvnE"/></g><g><use fill="#9b9b9b" xlink:href="#5rvnF"/></g><g><use fill="#9b9b9b" xlink:href="#5rvnG"/></g><g><use fill="#fff" fill-opacity="0" stroke="#4a4a4a" stroke-miterlimit="50" stroke-width=".5" xlink:href="#5rvnH"/></g></g></g></svg>