<svg xmlns="http://www.w3.org/2000/svg" viewBox="0 0 281 38"><g fill="#a8b400"><path d="M25.8 24.2h-2.7V13.4h-12v10.8H8.4V1.3h2.7V11h12V1.3h2.7v22.9zM45.6 24.2l-2.8-7.3h-9.2l-2.8 7.3h-2.7l9-23h2.2l9 23h-2.7zm-3.7-9.7l-2.7-7.1c-.3-.9-.7-2-1.1-3.3-.2 1-.6 2.1-1 3.3l-2.7 7.1h7.5zM68.3 24.2h-2.6L61.1 8.9c-.2-.7-.5-1.5-.7-2.6S60 4.6 60 4.4c-.2 1.4-.6 2.9-1.1 4.5l-4.5 15.2h-2.6L45.6 1.3h2.8L52 15.4c.5 2 .9 3.8 1.1 5.4.3-1.9.7-3.8 1.3-5.6l4.1-13.9h2.8l4.3 14c.5 1.6.9 3.4 1.3 5.5.2-1.5.6-3.3 1.1-5.4l3.6-14.1h2.8l-6.1 22.9zM94.6 24.2h-3.4l-9-11.1-2.6 2.1v9h-2.9V1.3h2.9v11.3L90.8 1.3h3.4l-9.9 9.9 10.3 13z"/></g><g fill="#6e6e6e"><path d="M104.3 24.2V1.3h2.7v22.9h-2.7zM130.2 24.2h-3L114.7 5h-.1c.2 2.3.3 4.3.3 6.2v13h-2.5V1.3h3l12.5 19.1h.1c0-.3-.1-1.2-.1-2.7-.1-1.5-.1-2.6-.1-3.3V1.3h2.5v22.9zM145 3.4c-2.5 0-4.5.8-6 2.5s-2.2 4-2.2 6.9c0 3 .7 5.3 2.1 6.9 1.4 1.6 3.4 2.4 6 2.4 1.6 0 3.4-.3 5.5-.9v2.3c-1.6.6-3.5.9-5.9.9-3.4 0-6-1-7.8-3.1s-2.7-4.9-2.7-8.7c0-2.4.4-4.4 1.3-6.2s2.2-3.1 3.8-4.1c1.7-1 3.6-1.4 5.9-1.4 2.4 0 4.5.4 6.3 1.3l-1.1 2.3c-1.7-.7-3.4-1.1-5.2-1.1zM167.9 24.2h-12.7V1.3h12.7v2.4h-10.1v7.4h9.5v2.3h-9.5v8.4h10.1v2.4zM190.4 24.2h-3L174.9 5h-.1c.2 2.3.3 4.3.3 6.2v13h-2.5V1.3h3L188 20.4h.1c0-.3-.1-1.2-.1-2.7-.1-1.5-.1-2.6-.1-3.3V1.3h2.5v22.9zM203.6 24.2h-2.7V3.7h-7.2V1.3h17.1v2.4h-7.2v20.5zM214 24.2V1.3h2.7v22.9H214zM236 1.3h2.9l-8.2 22.9H228l-8.2-22.9h2.8l5.3 14.8c.6 1.7 1.1 3.4 1.4 5 .4-1.7.9-3.4 1.5-5.1L236 1.3zM254.8 24.2H242V1.3h12.7v2.4h-10.1v7.4h9.5v2.3h-9.5v8.4h10.1v2.4zM272.6 18.1c0 2-.7 3.6-2.2 4.7-1.5 1.1-3.4 1.7-5.9 1.7-2.7 0-4.8-.3-6.3-1v-2.6c.9.4 2 .7 3.1.9 1.1.2 2.2.3 3.3.3 1.8 0 3.1-.3 4-1s1.3-1.6 1.3-2.8c0-.8-.2-1.4-.5-1.9s-.8-1-1.6-1.4c-.7-.4-1.9-.9-3.4-1.5-2.1-.8-3.6-1.7-4.6-2.7-.9-1-1.4-2.4-1.4-4.1 0-1.8.7-3.2 2-4.2s3.1-1.6 5.3-1.6c2.3 0 4.4.4 6.3 1.3l-.8 2.3c-1.9-.8-3.7-1.2-5.5-1.2-1.4 0-2.5.3-3.3.9-.8.6-1.2 1.4-1.2 2.5 0 .8.1 1.4.4 1.9s.8 1 1.5 1.4 1.8.9 3.2 1.4c2.4.9 4 1.8 5 2.8s1.3 2.3 1.3 3.9z"/></g><path d="M12.5 36.8l-.7-1.7H9.7l-.6 1.7h-.7l2.1-5.3h.5l2.1 5.3h-.6zm-.9-2.2L11 33c-.1-.2-.2-.5-.2-.8-.1.2-.1.5-.2.8l-.6 1.6h1.6zM25.1 31.6h1.5c.7 0 1.2.1 1.5.3.3.2.5.5.5 1 0 .3-.1.6-.3.8-.2.2-.4.3-.8.4.8.1 1.2.6 1.2 1.3 0 .5-.2.8-.5 1.1-.3.3-.8.4-1.3.4h-1.8v-5.3zm.6 2.2h1c.4 0 .7-.1.9-.2.2-.1.3-.4.3-.7 0-.3-.1-.5-.3-.6-.2-.1-.5-.2-1-.2h-.9v1.7zm0 .5v2h1.1c.4 0 .7-.1 1-.2s.3-.4.3-.8c0-.3-.1-.6-.3-.7-.2-.2-.6-.2-1-.2h-1.1zM35.3 36.8v-5.2h.6v4.7h2.3v.6h-2.9zM48.8 36.9l-.7-1.7H46l-.6 1.7h-.6l2.1-5.3h.5l2.1 5.3h-.7zm-.9-2.2l-.6-1.7c-.1-.2-.2-.5-.2-.8-.1.3-.1.6-.2.8l-.6 1.6h1.6zM57.9 32.1c-.6 0-1 .2-1.4.6-.3.4-.5.9-.5 1.6 0 .7.2 1.2.5 1.6.3.4.8.6 1.4.6.4 0 .8-.1 1.3-.2v.5c-.4.1-.8.2-1.3.2-.8 0-1.4-.2-1.8-.7-.4-.5-.6-1.1-.6-2 0-.5.1-1 .3-1.4.2-.4.5-.7.9-.9.4-.2.8-.3 1.3-.3s1 .1 1.4.3l-.3.5c-.4-.3-.8-.4-1.2-.4zM70 36.9h-.7l-1.9-2.5-.5.5V37h-.6v-5.2h.6v2.6l2.4-2.6h.7l-2.1 2.3 2.1 2.8zM80.2 36.9h-.6v-2.5h-2.8v2.5h-.6v-5.2h.6v2.2h2.8v-2.2h.6v5.2zM90.8 36.9l-.7-1.7H88l-.6 1.7h-.6l2.1-5.3h.5l2.1 5.3h-.7zm-.9-2.2l-.6-1.7c-.1-.2-.2-.5-.2-.8-.1.3-.1.6-.2.8l-.6 1.6h1.6zM101.6 36.9h-.6l-1.1-3.5c-.1-.2-.1-.4-.2-.6-.1-.2-.1-.4-.1-.4-.1.3-.1.7-.2 1l-1 3.5h-.6l-1.4-5.2h.6l.8 3.2c.1.5.2.9.2 1.2.1-.4.2-.9.3-1.3l.9-3.2h.6l1 3.2c.1.4.2.8.3 1.3 0-.3.1-.8.3-1.2l.8-3.2h.6l-1.2 5.2zM113.1 36.9h-.7l-1.9-2.6-.6.5v2.1h-.6v-5.2h.6v2.6l2.4-2.6h.7l-2.1 2.3 2.2 2.9zM129.2 36.8h-.7l-2.9-4.4c0 .5.1 1 .1 1.4v3h-.6v-5.2h.7l2.9 4.4v-.6-3.8h.6v5.2zM139 36.8h-2.9v-5.2h2.9v.5h-2.3v1.7h2.2v.5h-2.2v1.9h2.3v.6zM147.9 36.8h-.6v-4.7h-1.7v-.5h3.9v.5h-1.7v4.7zM161.3 36.8h-.6l-1.1-3.5c-.1-.2-.1-.4-.2-.6-.1-.2-.1-.4-.1-.4-.1.3-.1.7-.3 1l-1 3.5h-.6l-1.4-5.2h.6l.8 3.2c.1.5.2.9.3 1.2.1-.4.2-.9.3-1.3l.9-3.2h.6l1 3.2c.1.4.2.8.3 1.3 0-.3.1-.8.3-1.2l.8-3.2h.6l-1.2 5.2zM173.2 34.2c0 .8-.2 1.5-.6 2-.4.5-1 .7-1.8.7s-1.4-.2-1.8-.7c-.4-.5-.6-1.1-.6-2 0-.9.2-1.5.6-2 .4-.5 1-.7 1.8-.7s1.3.2 1.8.7c.4.5.6 1.2.6 2zm-4.2 0c0 .7.1 1.2.5 1.6.3.4.7.6 1.3.6.6 0 1-.2 1.3-.5.3-.4.4-.9.4-1.6 0-.7-.1-1.2-.4-1.6-.3-.4-.7-.5-1.3-.5-.6 0-1 .2-1.3.6-.3.2-.5.7-.5 1.4zM180.4 34.6v2.2h-.6v-5.2h1.4c.6 0 1.1.1 1.4.4.3.2.5.6.5 1.1 0 .7-.4 1.2-1.1 1.4l1.4 2.4h-.7l-1.3-2.2h-1zm0-.5h.8c.4 0 .7-.1.9-.3.2-.2.3-.4.3-.8 0-.3-.1-.6-.3-.7-.2-.2-.5-.2-1-.2h-.8v2zM194.4 36.8h-.7l-1.9-2.5-.5.5v2.1h-.6v-5.2h.6v2.6l2.4-2.6h.7l-2.1 2.3 2.1 2.8zM206.7 31.6h1.5c.7 0 1.2.1 1.5.3.3.2.5.5.5 1 0 .3-.1.6-.3.8-.2.2-.4.3-.8.4.8.1 1.2.6 1.2 1.3 0 .5-.2.8-.5 1.1s-.8.4-1.3.4h-1.8v-5.3zm.6 2.2h1c.4 0 .7-.1.9-.2.2-.1.3-.4.3-.7 0-.3-.1-.5-.3-.6-.2-.1-.5-.2-1-.2h-.9v1.7zm0 .5v2h1.1c.4 0 .7-.1 1-.2.2-.2.3-.4.3-.8 0-.3-.1-.6-.3-.7-.2-.2-.6-.2-1-.2h-1.1zM220.2 31.7v3.4c0 .6-.2 1.1-.5 1.4-.4.3-.9.5-1.5.5s-1.1-.2-1.5-.5c-.3-.3-.5-.8-.5-1.4v-3.4h.6v3.4c0 .4.1.8.4 1 .2.2.6.4 1.1.4.4 0 .8-.1 1-.4.2-.2.4-.6.4-1v-3.4h.5zM229.3 35.4c0 .5-.2.8-.5 1.1-.3.3-.8.4-1.4.4-.6 0-1.1-.1-1.4-.2v-.6c.2.1.4.2.7.2.3.1.5.1.8.1.4 0 .7-.1.9-.2.2-.2.3-.4.3-.6 0-.2 0-.3-.1-.4-.1-.1-.2-.2-.4-.3-.2-.1-.4-.2-.8-.3-.5-.2-.8-.4-1-.6-.2-.2-.3-.6-.3-.9 0-.4.2-.7.5-1 .3-.2.7-.4 1.2-.4s1 .1 1.4.3l-.2.5c-.4-.2-.9-.3-1.3-.3-.3 0-.6.1-.8.2-.2.1-.3.3-.3.6 0 .2 0 .3.1.4l.3.3c.2.1.4.2.7.3.5.2.9.4 1.1.6.4.2.5.5.5.8zM235.1 36.8v-5.2h.6v5.2h-.6zM245.6 36.8h-.7l-2.9-4.4c0 .5.1 1 .1 1.4v3h-.6v-5.2h.7l2.9 4.4v-.6-3.8h.6v5.2zM254.3 36.8h-2.9v-5.2h2.9v.5H252v1.7h2.2v.5H252v1.9h2.3v.6zM263.4 35.4c0 .5-.2.8-.5 1.1-.3.3-.8.4-1.4.4-.6 0-1.1-.1-1.4-.2v-.6c.2.1.4.2.7.2.3.1.5.1.8.1.4 0 .7-.1.9-.2.2-.2.3-.4.3-.6 0-.2 0-.3-.1-.4-.1-.1-.2-.2-.4-.3-.2-.1-.4-.2-.8-.3-.5-.2-.8-.4-1-.6-.2-.2-.3-.6-.3-.9 0-.4.2-.7.5-1 .3-.2.7-.4 1.2-.4s1 .1 1.4.3l-.2.5c-.4-.2-.9-.3-1.3-.3-.3 0-.6.1-.8.2-.2.1-.3.3-.3.6 0 .2 0 .3.1.4l.3.3c.2.1.4.2.7.3.5.2.9.4 1.1.6.4.2.5.5.5.8zM272.6 35.4c0 .5-.2.8-.5 1.1s-.8.4-1.4.4c-.6 0-1.1-.1-1.4-.2v-.6c.2.1.4.2.7.2.3.1.5.1.8.1.4 0 .7-.1.9-.2.2-.2.3-.4.3-.6 0-.2 0-.3-.1-.4-.1-.1-.2-.2-.4-.3-.2-.1-.4-.2-.8-.3-.5-.2-.8-.4-1-.6-.2-.2-.3-.6-.3-.9 0-.4.2-.7.5-1 .3-.2.7-.4 1.2-.4s1 .1 1.4.3l-.2.5c-.4-.2-.9-.3-1.3-.3-.3 0-.6.1-.8.2-.2.1-.3.3-.3.6 0 .2 0 .3.1.4l.3.3c.2.1.4.2.7.3.5.2.9.4 1.1.6.4.2.5.5.5.8z" fill="#6e6e6e"/></svg>